<svg width="87" height="68" viewBox="0 0 87 68" fill="none" xmlns="http://www.w3.org/2000/svg">
<g clip-path="url(#clip0_40_1429)">
<path d="M42.4278 68C56.7567 68 68.3726 65.5048 68.3726 62.4268C68.3726 59.3489 56.7567 56.8537 42.4278 56.8537C28.0988 56.8537 16.4829 59.3489 16.4829 62.4268C16.4829 65.5048 28.0988 68 42.4278 68Z" fill="#FFBB61"/>
<path d="M20.1473 42.0849C20.1473 42.0849 12.3679 40.6838 11.4753 42.2131C10.5827 43.7423 0.125484 64.5 12.6217 44.759C12.6217 44.759 21.8042 46.9234 23.3327 45.9038C24.8641 44.8843 20.1445 42.0821 20.1445 42.0821L20.1473 42.0849Z" fill="#D64441"/>
<path d="M20.1474 42.0849C20.1474 42.0849 18.9297 41.8656 17.4069 41.6948C17.2814 43.0247 17.156 44.4059 17.2871 45.6931C19.8081 46.1174 22.56 46.4221 23.3356 45.9038C24.867 44.8843 20.1474 42.0821 20.1474 42.0821V42.0849Z" fill="#A83535"/>
<path d="M22.443 44.6337C22.443 44.6337 14.2814 48.8371 14.2814 50.8733C14.2814 54.6723 16.577 61.5697 17.5979 61.4443C18.3679 61.3475 17.1217 53.9261 17.2158 53.1658C17.3441 52.1463 23.846 48.1992 26.9087 48.1992C31.4173 48.1992 22.4458 44.6337 22.4458 44.6337H22.443Z" fill="#FF554B"/>
<path d="M26.8774 46.4649C26.8774 46.4649 20.769 53.3708 21.5047 55.763C23.0846 60.8976 29.5865 73.072 24.4334 56.0705C24.4334 56.0705 24.8469 54.2935 32.173 49.4067C36.1083 46.781 26.8774 46.4649 26.8774 46.4649Z" fill="#FF554B"/>
<path d="M67.9905 42.0849C67.9905 42.0849 75.7699 40.6838 76.6625 42.2131C77.5551 43.7423 88.0123 64.5 75.5161 44.759C75.5161 44.759 66.3336 46.9234 64.8051 45.9038C63.2737 44.8843 67.9933 42.0821 67.9933 42.0821L67.9905 42.0849Z" fill="#D64441"/>
<path d="M67.9905 42.0849C67.9905 42.0849 69.2082 41.8656 70.731 41.6948C70.8565 43.0247 70.982 44.4059 70.8508 45.6931C68.3299 46.1174 65.578 46.4221 64.8023 45.9038C63.2709 44.8843 67.9905 42.0821 67.9905 42.0821V42.0849Z" fill="#A83535"/>
<path d="M65.6948 44.6337C65.6948 44.6337 73.8564 48.8371 73.8564 50.8732C73.8564 54.6722 71.5608 61.5696 70.5399 61.4443C69.7699 61.3475 71.0161 53.9261 70.922 53.1657C70.7937 52.1462 64.2918 48.1992 61.2291 48.1992C56.7205 48.1992 65.692 44.6337 65.692 44.6337H65.6948Z" fill="#FF554B"/>
<path d="M61.2633 46.4648C61.2633 46.4648 67.3717 53.3708 66.6359 55.7629C65.0561 60.8975 58.5542 73.0719 63.7072 56.0705C63.7072 56.0705 63.2937 54.2935 55.9677 49.4066C52.0323 46.781 61.2633 46.4648 61.2633 46.4648Z" fill="#FF554B"/>
<path d="M15.3564 20.9713C15.3564 20.9713 15.3536 20.9827 15.345 21.0054C15.345 21.0111 15.3393 21.0197 15.3365 21.0282C15.3308 21.0453 15.3279 21.0624 15.3222 21.0823C15.2966 21.1678 15.2623 21.3102 15.2253 21.4981C15.1511 21.874 15.0599 22.4379 15.037 23.1157C15.0228 23.4546 15.0256 23.8248 15.0542 24.2121C15.0741 24.6022 15.1397 25.0009 15.2196 25.4167C15.3108 25.8239 15.422 26.2454 15.5817 26.6527C15.6559 26.8605 15.7528 27.057 15.8441 27.2621C15.9496 27.4557 16.0408 27.6636 16.1663 27.8487L16.3431 28.1364L16.5399 28.4098C16.6654 28.5977 16.8194 28.7629 16.9619 28.9366C17.1045 29.1103 17.2728 29.2612 17.4268 29.4236C17.5893 29.5774 17.7604 29.7169 17.9258 29.865C18.0998 30.0017 18.2766 30.1298 18.4448 30.258C18.6188 30.3833 18.8013 30.4887 18.9753 30.6026C19.1464 30.7193 19.3317 30.8048 19.5028 30.9016C19.6739 30.9956 19.8422 31.0895 20.0133 31.1607C20.1815 31.2376 20.3412 31.3117 20.4952 31.3829C20.6492 31.4541 20.8032 31.5025 20.9429 31.5594C21.2253 31.6676 21.4734 31.7673 21.6872 31.8243C22.1093 31.9553 22.3488 32.0322 22.3488 32.0322L22.0351 33.5273C22.0351 33.5273 21.7642 33.4789 21.288 33.3991C21.0485 33.3649 20.7604 33.2937 20.4296 33.214C20.2642 33.1713 20.0874 33.14 19.9021 33.083C19.7167 33.026 19.5228 32.9662 19.3232 32.9064C19.1178 32.8495 18.9125 32.7697 18.6958 32.6843C18.4819 32.5989 18.2538 32.5248 18.0313 32.4138C17.8089 32.3084 17.5722 32.2059 17.3412 32.0834C17.1131 31.9553 16.8764 31.8271 16.6397 31.6876C16.4116 31.5338 16.172 31.3857 15.941 31.2177C15.7186 31.0383 15.4762 30.8731 15.2595 30.6738C15.0427 30.4744 14.8118 30.2808 14.6121 30.0586L14.3013 29.7283L14.0133 29.378C13.8137 29.1473 13.6511 28.891 13.4715 28.6433C13.3089 28.387 13.1435 28.1307 13.0038 27.8658C12.7129 27.339 12.4819 26.795 12.2851 26.2597C12.1026 25.7214 11.9458 25.1917 11.846 24.682C11.7405 24.1751 11.6663 23.6881 11.6264 23.241C11.538 22.3411 11.5523 21.5864 11.5865 21.0482C11.6036 20.7776 11.6264 20.564 11.6464 20.4074C11.6521 20.3675 11.6549 20.3334 11.6606 20.302C11.6663 20.265 11.672 20.2337 11.6749 20.2081C11.6806 20.1682 11.6834 20.1483 11.6834 20.1483L15.3593 20.9627L15.3564 20.9713Z" fill="#D64441"/>
<path d="M11.8432 24.6934C11.9031 25.0038 11.9886 25.3227 12.0827 25.6445C13.1179 25.3711 14.1217 24.9667 15.0713 24.4285C15.0656 24.3573 15.0571 24.2861 15.0542 24.2149C15.0257 23.8276 15.0228 23.4602 15.0371 23.1185C15.0599 22.4379 15.1512 21.874 15.2253 21.501C15.2624 21.313 15.2994 21.1706 15.3223 21.0852C15.328 21.0652 15.3337 21.0453 15.3365 21.0311C15.3394 21.0225 15.3422 21.014 15.3451 21.0083C15.3508 20.9855 15.3565 20.9741 15.3565 20.9741L11.6806 20.1596C11.6806 20.1596 11.6778 20.1796 11.6721 20.2194C11.6692 20.2451 11.6635 20.2764 11.6578 20.3134C11.655 20.3447 11.6493 20.3789 11.6436 20.4188C11.6236 20.5754 11.6008 20.7919 11.5837 21.0595C11.5494 21.5978 11.5352 22.3525 11.6236 23.2524C11.6664 23.7023 11.7377 24.1864 11.8432 24.6934Z" fill="#A83535"/>
<path d="M21.6844 31.8328C21.4706 31.773 21.2253 31.6762 20.9402 31.568C20.8004 31.511 20.6436 31.4626 20.4924 31.3914C20.3384 31.3202 20.1787 31.2462 20.0105 31.1693C19.9078 31.1266 19.8052 31.0724 19.6997 31.0183C19.3517 31.5594 19.0409 32.1347 18.7871 32.7299C18.9668 32.7982 19.1436 32.8666 19.3175 32.915C19.52 32.9776 19.7139 33.0374 19.8964 33.0915C20.0789 33.1485 20.2586 33.1827 20.424 33.2225C20.7548 33.3023 21.0428 33.3706 21.2824 33.4077C21.7586 33.4902 22.0295 33.5358 22.0295 33.5358L22.3432 32.0407C22.3432 32.0407 22.1036 31.9638 21.6816 31.8328H21.6844Z" fill="#A83535"/>
<path d="M15.3023 14.4526C15.3023 14.4526 15.3023 11.6504 17.8517 12.4164C20.4011 13.1797 20.1473 19.6755 16.0665 22.0961C11.9857 24.5111 0 23.4944 0 13.1797C0 2.86488 7.77947 -0.447118 11.7319 1.58907C15.6844 3.62525 8.92586 8.71998 10.711 9.10159C12.4962 9.48319 14.7975 10.0499 12.1141 14.4498C10.3289 17.3802 14.9202 19.5445 15.3023 14.4498V14.4526Z" fill="#FF554B"/>
<path d="M17.8973 12.4307C18.2766 14.7602 17.2585 18.1861 14.538 19.8008C11.6064 21.538 4.59408 21.5038 0.878296 17.5197C3.7129 23.7336 12.6559 24.1152 16.0694 22.0933C20.1245 19.6869 20.4011 13.2594 17.9002 12.4307H17.8973Z" fill="#D64441"/>
<path d="M9.18253 4.26315C9.18253 4.26315 8.16162 1.0793 4.20915 4.135C0.253827 7.19355 1.53139 15.7256 5.99432 16.1072C10.4572 16.4888 11.6065 10.6309 7.52569 10.2492C3.44489 9.86764 11.4782 6.68379 9.18253 4.26315Z" fill="#FF755A"/>
<path d="M71.6435 19.9518C71.6435 19.9518 71.6464 19.9632 71.6549 19.9859C71.6549 19.9916 71.6606 20.0002 71.6635 20.0087C71.6692 20.0258 71.672 20.0429 71.6777 20.0628C71.7034 20.1483 71.7376 20.2907 71.7747 20.4786C71.8488 20.8545 71.9401 21.4184 71.9629 22.0962C71.9772 22.4351 71.9743 22.8053 71.9458 23.1926C71.9258 23.5827 71.8602 23.9814 71.7804 24.3972C71.6891 24.8044 71.5779 25.2259 71.4182 25.6332C71.3441 25.841 71.2471 26.0375 71.1559 26.2426C71.0504 26.4362 70.9591 26.6441 70.8336 26.8292L70.6568 27.1169L70.4601 27.3903C70.3346 27.5782 70.1806 27.7434 70.038 27.9171C69.8954 28.0908 69.7272 28.2417 69.5732 28.4041C69.4106 28.5579 69.2395 28.6974 69.0741 28.8455C68.9002 28.9822 68.7234 29.1103 68.5551 29.2385C68.3812 29.3638 68.1986 29.4692 68.0247 29.5831C67.8536 29.6998 67.6682 29.7853 67.4971 29.8821C67.326 29.9761 67.1578 30.07 66.9867 30.1412C66.8184 30.2181 66.6587 30.2922 66.5047 30.3634C66.3507 30.4346 66.1967 30.483 66.057 30.5399C65.7747 30.6481 65.5266 30.7478 65.3127 30.8048C64.8907 30.9358 64.6511 31.0127 64.6511 31.0127L64.9648 32.5078C64.9648 32.5078 65.2357 32.4594 65.712 32.3796C65.9515 32.3454 66.2395 32.2742 66.5703 32.1945C66.7357 32.1518 66.9125 32.1205 67.0979 32.0635C67.2832 32.0065 67.4772 31.9467 67.6768 31.8869C67.8821 31.83 68.0874 31.7502 68.3042 31.6648C68.518 31.5794 68.7462 31.5053 68.9686 31.3943C69.191 31.2889 69.4277 31.1864 69.6587 31.0639C69.8869 30.9358 70.1236 30.8076 70.3602 30.6681C70.5884 30.5143 70.8279 30.3662 71.0589 30.1982C71.2813 30.0188 71.5237 29.8536 71.7405 29.6543C71.9572 29.4549 72.1882 29.2613 72.3878 29.0391L72.6986 28.7088L72.9867 28.3585C73.1863 28.1278 73.3488 27.8715 73.5285 27.6238C73.691 27.3675 73.8564 27.1112 73.9962 26.8463C74.2871 26.3195 74.518 25.7755 74.7148 25.2402C74.8973 24.7019 75.0542 24.1722 75.154 23.6625C75.2595 23.1556 75.3336 22.6686 75.3736 22.2215C75.462 21.3216 75.4477 20.5669 75.4135 20.0287C75.3964 19.7581 75.3736 19.5445 75.3536 19.3879C75.3479 19.348 75.345 19.3139 75.3393 19.2825C75.3336 19.2455 75.3279 19.2142 75.3251 19.1886C75.3194 19.1487 75.3165 19.1288 75.3165 19.1288L71.6407 19.9432L71.6435 19.9518Z" fill="#D64441"/>
<path d="M75.1569 23.6767C75.097 23.9871 75.0114 24.3061 74.9173 24.6279C73.8821 24.3545 72.8783 23.9501 71.9287 23.4119C71.9344 23.3407 71.943 23.2695 71.9458 23.1983C71.9744 22.811 71.9772 22.4436 71.9629 22.1019C71.9401 21.4213 71.8489 20.8574 71.7747 20.4843C71.7377 20.2964 71.7006 20.154 71.6778 20.0685C71.6721 20.0486 71.6664 20.0287 71.6635 20.0144C71.6607 20.0059 71.6578 19.9973 71.655 19.9917C71.6493 19.9689 71.6436 19.9575 71.6436 19.9575L75.3194 19.143C75.3194 19.143 75.3223 19.1629 75.328 19.2028C75.3308 19.2284 75.3365 19.2598 75.3422 19.2968C75.3451 19.3281 75.3508 19.3623 75.3565 19.4022C75.3764 19.5588 75.3993 19.7752 75.4164 20.0429C75.4506 20.5811 75.4649 21.3358 75.3764 22.2357C75.3337 22.6857 75.2624 23.1698 75.1569 23.6767Z" fill="#A83535"/>
<path d="M65.3156 30.8162C65.5295 30.7564 65.7747 30.6596 66.0599 30.5513C66.1996 30.4944 66.3565 30.446 66.5076 30.3748C66.6616 30.3036 66.8213 30.2295 66.9896 30.1526C67.0922 30.1099 67.1949 30.0558 67.3004 30.0017C67.6483 30.5428 67.9591 31.1181 68.2129 31.7132C68.0333 31.7816 67.8565 31.8499 67.6825 31.8984C67.4801 31.961 67.2861 32.0208 67.1036 32.0749C66.9211 32.1319 66.7415 32.166 66.5761 32.2059C66.2453 32.2857 65.9572 32.354 65.7177 32.391C65.2415 32.4736 64.9706 32.5192 64.9706 32.5192L64.6569 31.0241C64.6569 31.0241 64.8964 30.9472 65.3185 30.8162H65.3156Z" fill="#A83535"/>
<path d="M71.6951 13.4331C71.6951 13.4331 71.6951 10.6309 69.1457 11.3969C66.5963 12.1602 66.8501 18.656 70.9309 21.0766C75.0117 23.4973 86.9974 22.4778 86.9974 12.163C86.9974 1.84823 79.2208 -1.46662 75.2683 0.572416C71.3158 2.6086 78.0744 7.70333 76.2892 8.08494C74.504 8.46654 72.2027 9.03326 74.8862 13.4331C76.6714 16.3607 72.0801 18.5279 71.698 13.4331H71.6951Z" fill="#FF554B"/>
<path d="M69.0998 11.414C68.7205 13.7435 69.7385 17.1695 72.4591 18.7842C75.3906 20.5213 82.403 20.4872 86.1188 16.5031C83.2842 22.717 74.3412 23.0986 70.9277 21.0767C66.8726 18.6703 66.596 12.2427 69.0969 11.414H69.0998Z" fill="#D64441"/>
<path d="M77.8174 3.24652C77.8174 3.24652 78.8384 0.0626674 82.7908 3.11837C86.7433 6.17407 85.4686 14.7061 81.0057 15.0877C76.5427 15.4693 75.3935 9.61137 79.4743 9.22977C83.5551 8.84816 75.5218 5.66431 77.8174 3.24367V3.24652Z" fill="#FF755A"/>
<path d="M32.772 17.4229C32.772 17.4229 36.003 24.3858 36.6817 29.6486L39.4022 29.3097C39.4022 29.3097 35.4925 20.4815 34.8109 15.7256C34.1322 10.9726 32.772 17.4229 32.772 17.4229Z" fill="#D64441"/>
<path d="M35.6094 19.1629C35.2444 17.9156 34.9563 16.7309 34.8138 15.7256C34.135 10.9726 32.7748 17.4229 32.7748 17.4229C32.7748 17.4229 33.2168 18.3741 33.8071 19.8379C34.4174 19.6613 35.0333 19.4392 35.6122 19.1601L35.6094 19.1629Z" fill="#A83535"/>
<path d="M27.7415 15.9762C26.5381 14.7203 25.9364 13.2423 25.9364 11.5507C25.9364 10.423 26.2472 9.3807 26.8661 8.42099C27.4849 7.46128 28.3062 6.71231 29.3214 6.16553C30.3394 5.6216 31.4117 5.34821 32.5381 5.34821C34.195 5.34821 35.5951 5.89499 36.7444 6.98285C37.8936 8.07356 38.4668 9.53733 38.4668 11.377C38.4668 13.2167 37.8708 14.7147 36.6874 15.9705C35.501 17.2321 34.0239 17.8615 32.2558 17.8615C30.4877 17.8615 28.9421 17.2321 27.7387 15.9705L27.7415 15.9762Z" fill="white"/>
<path d="M28.0866 15.8367C26.3413 13.9856 25.7368 11.209 26.9317 8.89087C28.1265 6.57276 30.8699 5.16594 33.5048 5.63867C35.8775 6.063 37.6683 7.97388 38.0191 10.3347C38.3841 12.7867 37.4972 15.3526 35.4098 16.7907C33.1284 18.3627 29.9488 17.7618 28.0866 15.8395C27.924 15.6715 27.2254 15.9392 27.3965 16.1158C29.2529 18.0295 32.1617 18.5535 34.637 17.6052C37.1123 16.6568 38.7805 14.128 38.8347 11.4596C38.8632 10.1468 38.5837 8.83676 37.8423 7.73751C37.1009 6.63826 36.0001 5.85511 34.7739 5.47065C32.0875 4.62485 28.9421 5.55039 27.0999 7.66347C26.0476 8.87094 25.4944 10.3917 25.5742 11.995C25.6512 13.5641 26.3242 14.9823 27.3965 16.1158C27.5562 16.2866 28.2577 16.0189 28.0866 15.8395V15.8367Z" fill="#FF554B"/>
<path d="M28.3575 16.5429C29.4469 17.4229 30.7473 17.8643 32.2558 17.8643C34.0239 17.8643 35.5011 17.2349 36.6874 15.9734C37.2805 15.344 37.7254 14.6491 38.022 13.8831C33.3623 13.2879 30.0201 15.2329 28.3575 16.5401V16.5429Z" fill="#FF554B"/>
<path d="M35.8917 12.462C35.8917 12.462 35.8689 12.4193 35.8233 12.3367C35.7805 12.257 35.7206 12.1317 35.6408 11.9836C35.5581 11.8383 35.4639 11.6703 35.3356 11.4824C35.2757 11.3884 35.213 11.2887 35.136 11.1919C35.0647 11.0922 34.9906 10.9869 34.9022 10.8872C34.8594 10.8359 34.8195 10.7847 34.7738 10.7306C34.7282 10.6821 34.6797 10.6309 34.6312 10.5796C34.54 10.4742 34.4316 10.3803 34.3261 10.2834C34.1094 10.0955 33.8698 9.91323 33.6103 9.77369C33.3508 9.6313 33.0771 9.51738 32.7976 9.46612C32.5181 9.41201 32.2358 9.40062 31.9592 9.44619C32.0476 9.4291 31.982 9.44334 31.9991 9.43764H31.9934L31.9849 9.44049H31.9677L31.9335 9.45188L31.8651 9.46612L31.7254 9.49745C31.7054 9.50314 31.674 9.50884 31.6598 9.51454L31.6198 9.53162L31.54 9.56295C31.4887 9.57719 31.4259 9.60851 31.3603 9.63984C31.2976 9.67116 31.2292 9.6968 31.1721 9.73951C30.924 9.8819 30.7016 10.0784 30.5048 10.2977C30.3023 10.5141 30.1398 10.7619 29.9944 11.0125C29.9259 11.1406 29.8546 11.2631 29.8033 11.3912C29.7748 11.4539 29.7463 11.5165 29.7177 11.5792C29.6949 11.6447 29.6721 11.7073 29.6493 11.7672C29.598 11.8896 29.5609 12.0121 29.5267 12.1317C29.4868 12.2484 29.4582 12.3623 29.4326 12.4734C29.3755 12.6898 29.3413 12.8863 29.31 13.0515C29.2814 13.2167 29.2672 13.3477 29.2529 13.4388C29.2387 13.5299 29.2301 13.5812 29.2301 13.5812C29.2301 13.5812 29.2101 13.5356 29.1731 13.4531C29.1417 13.3676 29.0761 13.2423 29.0305 13.0743C28.9849 12.9063 28.9193 12.7012 28.8879 12.4563C28.8651 12.3339 28.8537 12.2029 28.848 12.0633C28.8394 11.9238 28.8366 11.7757 28.848 11.6191C28.8508 11.4624 28.8708 11.3001 28.8993 11.1321C28.9193 10.9612 28.9706 10.7932 29.0162 10.6138C29.1246 10.2635 29.2729 9.89329 29.5124 9.54586C29.7434 9.19843 30.04 8.85669 30.4278 8.59754C30.5191 8.52635 30.6217 8.46939 30.7244 8.41243C30.8242 8.35263 30.9297 8.29852 31.0581 8.25296L31.2434 8.18461C31.309 8.16183 31.3689 8.13904 31.4088 8.13335L31.5457 8.09917L31.6141 8.08209L31.6484 8.07354L31.7282 8.05646C32.2044 7.98526 32.6949 8.01659 33.1398 8.14474C33.5875 8.26435 33.9839 8.48648 34.3147 8.74278C34.6512 8.99339 34.9136 9.29241 35.1303 9.58858C35.233 9.74236 35.3356 9.88475 35.4098 10.0414C35.4925 10.1895 35.5638 10.3376 35.6179 10.4828C35.6778 10.6252 35.7263 10.7676 35.7605 10.9014C35.8004 11.0353 35.8347 11.1634 35.8518 11.2859C35.9031 11.5251 35.9117 11.7472 35.9202 11.9209C35.9316 12.0947 35.9088 12.2285 35.9088 12.3196C35.9003 12.4108 35.8974 12.462 35.8974 12.462H35.8917Z" fill="#161420"/>
<path d="M53.2245 17.2947C53.2245 17.2947 49.9935 24.2576 49.3148 29.5204L46.5942 29.1815C46.5942 29.1815 50.5039 20.3533 51.1855 15.5975C51.8671 10.8416 53.2245 17.2947 53.2245 17.2947Z" fill="#D64441"/>
<path d="M50.387 19.0347C50.752 17.7874 51.04 16.6027 51.1826 15.5974C51.8613 10.8444 53.2216 17.2947 53.2216 17.2947C53.2216 17.2947 52.7796 18.2459 52.1893 19.7097C51.579 19.5331 50.9631 19.311 50.3842 19.0319L50.387 19.0347Z" fill="#A83535"/>
<path d="M53.7406 17.739C51.9725 17.739 50.4953 17.1096 49.309 15.8481C48.1227 14.5922 47.5295 13.0601 47.5295 11.2546C47.5295 9.44904 48.1027 7.94824 49.252 6.86038C50.4012 5.77252 51.8014 5.22574 53.4583 5.22574C54.5847 5.22574 55.6598 5.49913 56.675 6.04306C57.6902 6.58984 58.5115 7.33881 59.1303 8.29853C59.7491 9.25824 60.06 10.3005 60.06 11.4283C60.06 13.1199 59.4582 14.595 58.2548 15.8538C57.0514 17.1153 55.5457 17.7447 53.7377 17.7447L53.7406 17.739Z" fill="white"/>
<path d="M53.7748 17.4713C51.3138 17.4514 49.155 15.8566 48.3081 13.5556C47.5096 11.3912 47.8147 8.64595 49.5258 6.99707C51.4193 5.17162 54.3708 5.07195 56.5923 6.35916C58.8138 7.64637 60.0942 10.2009 59.5552 12.7838C59.2786 14.1137 58.5001 15.3355 57.4564 16.2012C56.4126 17.0669 55.1322 17.4571 53.7777 17.4685C53.3585 17.4713 53.2073 18.0039 53.7092 18.001C56.4269 17.9811 58.9279 16.3778 59.9659 13.8347C60.4792 12.5759 60.5933 11.1207 60.2339 9.80501C59.8746 8.48932 58.9849 7.25052 57.8699 6.40472C55.6113 4.69319 52.3318 4.42834 49.9193 5.9747C48.8499 6.66103 47.9887 7.67485 47.5552 8.87662C47.1018 10.1382 47.0391 11.5621 47.3157 12.8693C47.6237 14.3273 48.4478 15.6316 49.5885 16.5885C50.7292 17.5454 52.2035 17.9896 53.7092 18.001C54.1284 18.0039 54.2796 17.4713 53.7777 17.4685L53.7748 17.4713Z" fill="#FF554B"/>
<path d="M57.6389 16.4148C56.5496 17.2948 55.2492 17.7362 53.7406 17.7362C51.9726 17.7362 50.4954 17.1068 49.3091 15.8452C48.7159 15.2159 48.2711 14.521 47.9745 13.7549C52.6342 13.1597 55.9764 15.1048 57.6389 16.4119V16.4148Z" fill="#FF554B"/>
<path d="M50.1076 12.3367C50.1076 12.3367 50.1047 12.2883 50.0961 12.1943C50.0961 12.1032 50.0733 11.9693 50.0847 11.7956C50.0961 11.6219 50.1018 11.3998 50.1532 11.1606C50.1703 11.0381 50.2045 10.91 50.2444 10.7761C50.2815 10.6394 50.3271 10.4999 50.387 10.3575C50.4412 10.2094 50.5125 10.0642 50.5952 9.91608C50.6693 9.76229 50.772 9.61706 50.8747 9.46327C51.0914 9.1671 51.3537 8.86523 51.6902 8.61747C52.021 8.36402 52.4146 8.13904 52.8652 8.01943C53.31 7.89128 53.8005 7.85996 54.2768 7.93115L54.3566 7.94824L54.3908 7.95678L54.4593 7.97387L54.5961 8.00804C54.6361 8.01659 54.6988 8.03652 54.7615 8.0593L54.9469 8.12765C55.0781 8.17322 55.1807 8.22732 55.2806 8.28713C55.3832 8.34408 55.4859 8.40104 55.5771 8.47224C55.9621 8.73139 56.2615 9.07312 56.4925 9.42056C56.7292 9.76799 56.8804 10.1382 56.9887 10.4885C57.0344 10.6679 57.0857 10.8359 57.1056 11.0068C57.1342 11.1748 57.1541 11.3371 57.157 11.4938C57.1684 11.6504 57.1655 11.7985 57.157 11.938C57.1513 12.0776 57.1399 12.2086 57.1171 12.331C57.0885 12.5759 57.0201 12.7838 56.9745 12.949C56.9288 13.117 56.8633 13.2423 56.8319 13.3278C56.7948 13.4132 56.7748 13.4588 56.7748 13.4588C56.7748 13.4588 56.7663 13.4103 56.752 13.3164C56.7378 13.2252 56.7235 13.0942 56.695 12.9291C56.6636 12.7639 56.6294 12.5674 56.5724 12.351C56.5496 12.2427 56.5182 12.1288 56.4783 12.0092C56.4441 11.8925 56.407 11.7672 56.3556 11.6447C56.3328 11.582 56.31 11.5194 56.2872 11.4567C56.2587 11.3941 56.2302 11.3314 56.2017 11.2688C56.1503 11.1406 56.079 11.0153 56.0106 10.89C55.8652 10.6394 55.7026 10.3917 55.5001 10.1752C55.3034 9.95594 55.0809 9.75945 54.8328 9.61706C54.7758 9.57434 54.7074 9.54871 54.6446 9.51738C54.579 9.48606 54.5163 9.45188 54.465 9.44049L54.3851 9.40917L54.3452 9.39208C54.3309 9.38638 54.3024 9.38069 54.2796 9.37499L54.1399 9.34367L54.0714 9.32943L54.0372 9.32088H54.0201L54.0115 9.31519H54.0058C54.0258 9.31519 53.9574 9.3038 54.0458 9.32088C53.7691 9.27532 53.4868 9.28956 53.2074 9.34082C52.9279 9.39493 52.6513 9.50599 52.3946 9.64838C52.1323 9.78508 51.8956 9.96734 51.6788 10.1581C51.5733 10.255 51.465 10.3518 51.3737 10.4543C51.3252 10.5056 51.2767 10.554 51.2311 10.6052C51.1883 10.6594 51.1456 10.7106 51.1028 10.7619C51.0144 10.8615 50.9403 10.9669 50.869 11.0666C50.792 11.1634 50.7264 11.2631 50.6693 11.3571C50.5439 11.545 50.4498 11.713 50.3642 11.8583C50.2844 12.0035 50.2245 12.1317 50.1817 12.2114C50.1389 12.294 50.1133 12.3367 50.1133 12.3367H50.1076Z" fill="#161420"/>
<path d="M41.8261 23.4944C41.8261 23.4944 20.5295 23.7479 18.7871 37.4601C17.2757 49.3469 37.2177 55.2475 51.7729 51.8928C67.2463 48.3273 72.8556 40.006 69.117 34.5724C65.3755 29.1388 56.7463 22.2186 41.8261 23.4944Z" fill="#FF554B"/>
<path d="M69.117 34.5724C68.2758 33.3479 67.1835 32.0521 65.829 30.7877C68.4697 35.7286 63.425 43.1529 49.9478 47.08C37.982 50.5686 21.6303 47.416 18.713 38.7701C18.7729 49.774 37.7681 55.1165 51.7757 51.89C67.2491 48.3245 72.8585 40.0032 69.1199 34.5696L69.117 34.5724Z" fill="#D64441"/>
<path d="M33.2824 25.9122C33.2824 25.9122 23.5495 28.2901 22.4431 34.2335C21.0942 41.4926 29.33 42.0451 29.4155 34.5724C29.5125 26.0603 60.0201 39.9206 60.1912 31.3886C60.3252 24.5965 41.5723 23.4944 33.2853 25.9122H33.2824Z" fill="#FF755A"/>
<path d="M31.8794 41.9596C31.8794 41.9596 28.6484 42.384 29.7549 39.1574C30.8613 35.9308 35.4497 36.6114 35.367 39.6671C35.2843 42.7228 31.8822 41.9596 31.8822 41.9596H31.8794Z" fill="#FF755A"/>
<path d="M59.6608 36.1473C59.6608 36.1473 62.4383 37.8503 59.5439 39.6615C56.6494 41.4727 53.5125 38.0553 55.5087 35.7372C57.502 33.4162 59.6608 36.1501 59.6608 36.1501V36.1473Z" fill="#FF755A"/>
<path d="M31.9649 33.8092C31.9649 33.8092 30.0086 34.4044 30.944 35.5919C31.8793 36.7795 35.0248 34.2335 31.9649 33.8092Z" fill="#FF755A"/>
<path d="M61.5571 30.2209C61.5571 30.2209 60.3736 30.5798 60.9411 31.3003C61.5058 32.0179 63.4079 30.4801 61.5571 30.2209Z" fill="#FF755A"/>
<path d="M26.7806 40.6866C26.7806 40.6866 24.8243 41.2818 25.7596 42.4694C26.695 43.6569 29.8404 41.111 26.7806 40.6866Z" fill="#FF755A"/>
<path d="M61.58 35.7514C61.58 35.7514 64.2292 34.6949 62.7891 33.1514C61.349 31.6078 57.2711 35.5207 61.58 35.7514Z" fill="#FF755A"/>
<path d="M24.8471 37.6224C24.8471 37.6224 27.4193 37.3889 26.5666 35.6774C25.714 33.9658 21.1683 36.3124 24.8471 37.6224Z" fill="#FF554B"/>
<path d="M56.7291 31.5936C56.7291 31.5936 59.3014 31.3601 58.4487 29.6486C57.5961 27.937 53.0504 30.2836 56.7291 31.5936Z" fill="#FF554B"/>
<path d="M23.9059 34.4129C23.9059 34.4129 25.1635 34.299 24.7472 33.4618C24.3308 32.6245 22.1037 33.7722 23.9059 34.4129Z" fill="#FF554B"/>
<path d="M26.3756 31.5566C26.3756 31.5566 26.3728 32.3882 27.0486 32.2458C27.7245 32.1005 27.0001 30.4858 26.3756 31.5566Z" fill="#FF554B"/>
<path d="M54.8984 28.4553C54.8984 28.4553 55.6627 28.7914 55.7995 28.1136C55.9393 27.4358 54.1655 27.4529 54.8984 28.4553Z" fill="#FF554B"/>
<path d="M46.0182 28.5578C43.7881 29.7055 42.2311 30.5855 39.348 27.994C36.4621 25.4025 31.9792 27.2393 33.4108 32.653C34.8423 38.0667 49.2406 39.9377 52.4459 33.1371C54.7102 28.33 50.2045 25.3654 46.021 28.5578H46.0182Z" fill="white"/>
<path d="M34.5628 36.6143C36.8983 38.5138 39.867 38.9068 42.7672 39.0406C44.213 39.0947 45.6616 39.0378 47.0704 38.7445C48.4763 38.4511 49.8394 37.9214 51.0514 37.0301C50.1388 38.2347 48.7386 39.0606 47.2729 39.5134C43.4345 40.6867 37.021 40.1484 34.5599 36.6115L34.5628 36.6143Z" fill="#A83535"/>
</g>
<defs>
<clipPath id="clip0_40_1429">
<rect width="87" height="68" fill="white"/>
</clipPath>
</defs>
</svg>
