<svg width="85" height="53" viewBox="0 0 85 53" fill="none" xmlns="http://www.w3.org/2000/svg">
<g clip-path="url(#clip0_40_1396)">
<path opacity="0.25" d="M85 50.6245C85 51.6769 65.9731 52.5281 42.5 52.5281C19.0269 52.5281 0 51.6769 0 50.6245C0 49.5722 19.0269 48.721 42.5 48.721C65.9731 48.721 85 49.5722 85 50.6245Z" fill="#6EB9C7"/>
<path d="M73.3909 40.1399C73.3827 39.7349 73.6129 39.3355 74.0954 39.3382C74.5395 39.3382 74.9863 39.3162 75.4331 39.3217C75.4907 39.3189 75.5482 39.3162 75.6031 39.3162C76.1486 39.3079 76.6941 39.3217 77.2396 39.3244C77.7028 39.3244 77.9578 39.6908 77.9934 40.082C78.0016 40.1316 78.0044 40.1812 77.9962 40.2308C77.9962 40.2666 77.9907 40.3024 77.9852 40.3382C78.0702 40.7294 78.0894 41.1894 77.7714 41.4374C77.4013 41.7294 76.727 41.655 76.2966 41.6219C75.7785 41.5834 75.2632 41.5035 74.7588 41.3685C74.2928 41.2445 73.7473 41.1178 73.4677 40.6578C73.3662 40.4897 73.3498 40.3107 73.3882 40.1426L73.3909 40.1399Z" fill="#D84A5E"/>
<path d="M78.4895 41.1701C78.4895 40.7542 78.5087 40.3409 78.5553 39.9305C78.7253 39.8726 78.8952 39.8093 79.0652 39.7487C78.9583 38.9746 78.9802 38.1481 79.3969 37.4815C79.745 36.925 80.3837 36.5559 81.0087 36.644C81.6501 36.7349 82.1353 37.3438 82.149 38.0462C82.1545 38.3768 82.0531 38.6688 81.8831 38.903C82.5712 39.0985 83.1825 39.6605 83.2099 40.4759C83.2318 41.0958 82.7494 41.531 82.234 41.6577C82.16 41.677 82.0778 41.6935 81.9928 41.7046C82.1353 41.9966 82.2011 42.3327 82.1628 42.677C82.0723 43.4676 81.4637 44.115 80.7181 44.1177C80.592 44.1177 80.4742 44.1012 80.3645 44.0737C80.2686 44.0874 80.1754 44.0902 80.0876 44.0764C79.6984 44.0158 79.5092 43.6522 79.4106 43.2748C79.3119 42.8891 79.268 42.1811 79.4243 41.6384C79.1803 41.3575 78.8404 41.1922 78.4922 41.1674L78.4895 41.1701Z" fill="#CFE8ED"/>
<path d="M2.74945 35.3521C2.81798 34.0546 2.78509 32.6221 3.1387 31.3714C3.48136 30.1593 4.21327 29.1648 5.20285 28.5009C7.34923 27.0629 10.0713 27.3852 12.4561 27.6993C13.432 27.8288 14.4079 27.9996 15.3701 28.2227C15.3701 27.9445 15.381 27.6717 15.3755 27.4541C15.3646 27.1098 15.3618 26.7654 15.3564 26.4211C15.3509 26.085 15.4084 25.6387 15.3481 25.2999C14.9424 24.8013 14.9013 23.928 14.9068 23.3082C14.9123 22.4928 15.0027 21.4156 15.551 20.7931C15.8251 20.4818 16.2445 20.3991 16.5872 20.6195C16.9874 20.6553 17.2177 21.0492 17.3109 21.4432C17.426 21.928 17.4232 22.4542 17.3821 22.9528C17.3986 23.3633 17.3904 23.7765 17.3492 24.1897C17.2752 24.9473 16.7818 25.7682 16.0389 25.68C16.0581 25.8701 16.0855 26.0602 16.0965 26.2255C16.1184 26.5974 16.1431 26.972 16.1595 27.3439C16.1732 27.6883 16.1842 28.0326 16.1952 28.377C16.1952 28.3935 16.1952 28.41 16.1952 28.4265C16.2856 28.4513 16.3761 28.4734 16.4666 28.4982C17.1793 28.6965 18.6842 27.1814 18.7747 26.253C18.9666 24.2999 19.4024 22.3908 19.9342 20.5176C20.4825 18.5975 21.1102 16.6967 21.79 14.8262C22.4205 13.0935 23.1524 11.3938 24.1228 9.85108C27.6809 4.20654 33.6678 1.07436 39.8191 0.325062C43.4786 -0.121212 47.1902 -0.190082 50.784 0.628087C54.153 1.39392 57.7412 2.54817 60.6743 4.51783C64.4956 7.08528 70.6414 13.5425 72.7933 21.2008C74.7725 28.2365 75.7538 35.6138 75.6469 42.9442C75.6332 43.8616 75.6086 44.7789 75.5702 45.6935C75.5428 46.3794 74.8958 46.6466 74.4518 46.4511C73.9446 46.5199 68.9145 46.6577 67.7906 46.6659C65.4907 46.6797 5.18092 46.6962 4.62719 46.5805C4.09265 46.4676 3.57456 46.2582 3.19079 45.8257C2.69188 45.2665 2.55482 44.4841 2.54112 43.7321C2.48903 40.9443 2.59868 38.1344 2.74397 35.3521H2.74945Z" fill="#FF435E"/>
<path d="M7.56853 42.9194C7.60691 42.9112 7.63158 42.8671 7.63432 42.8258C7.79331 40.0572 8.54715 37.049 10.5976 35.2116C13.2703 32.8177 17.0696 33.6468 19.8492 35.3493C22.6645 37.071 25.3865 40.1068 25.773 43.7403C25.773 43.7486 25.7758 43.7541 25.7785 43.7624C25.7867 43.801 25.8114 43.8368 25.8607 43.8368H53.0126C53.0126 43.8368 53.0126 43.8423 53.0126 43.845C52.9879 43.9662 53.1579 44.0158 53.1826 43.8974C53.1853 43.8781 53.1908 43.8561 53.1963 43.8368H53.2182C53.3251 43.8368 53.3306 43.6715 53.2374 43.6494C53.4896 42.6274 54.0186 41.7266 54.6299 40.9112C55.2494 40.0848 55.943 39.2831 56.6749 38.5724C61.6612 33.7047 69.2105 37.8617 73.04 42.3712C73.1086 42.4511 73.2127 42.3547 73.1826 42.2693H75.6524C75.6524 42.4952 75.6497 42.7211 75.6469 42.947C75.6332 43.8643 75.6085 44.7817 75.5702 45.6962C75.5428 46.3822 74.8958 46.6494 74.4518 46.4538C73.9446 46.5227 68.9145 46.6604 67.7906 46.6687C65.4907 46.6825 5.18092 46.699 4.62719 46.5833C4.09265 46.4703 3.57456 46.261 3.19079 45.8285C2.69188 45.2692 2.55482 44.4869 2.54112 43.7348C2.53563 43.4263 2.53289 43.1205 2.53015 42.812C4.20778 43.0048 5.87993 43.2528 7.56579 42.9194H7.56853Z" fill="#D84A5E"/>
<path d="M58.3964 41.9663C58.8953 41.1619 59.5669 40.4456 60.3618 39.9333C61.0965 39.4594 62.0093 39.1454 62.7851 39.0738C64.6354 38.8975 66.4172 39.5007 68.0208 40.5283C68.3415 40.7321 68.6458 40.9608 68.9446 41.2032C68.9556 41.2142 68.9693 41.2225 68.9775 41.2307C69.0159 41.2638 69.057 41.2996 69.0954 41.3327C69.1749 41.4015 69.2544 41.4732 69.3311 41.542C69.4819 41.6798 69.6299 41.8175 69.7752 41.9608C70.4687 42.6384 71.1184 43.3712 71.7132 44.1536C72.2313 44.834 72.7522 45.6494 73.1551 46.5006C73.1606 46.5144 73.1661 46.5254 73.1743 46.5392C71.6639 46.5971 69.142 46.6632 68.4265 46.6687C67.8509 46.6714 63.1387 46.6769 56.6776 46.6769C56.9298 45.0076 57.5274 43.3712 58.3964 41.9663Z" fill="#FFCD5F"/>
<path d="M17.5713 38.3713C17.892 38.5614 18.2018 38.7762 18.4923 39.0187C18.5006 39.0269 18.6404 39.1509 18.665 39.1729C18.7281 39.2308 18.7884 39.2886 18.8487 39.3465C19.0104 39.5063 19.1639 39.6771 19.3147 39.8534C19.9178 40.5558 20.4139 41.3382 20.8443 42.1894C21.5461 43.5778 22.0176 45.1095 22.1793 46.6659C17.1409 46.6604 12.7385 46.6494 9.97534 46.6356C10.0247 44.5668 10.2632 42.4236 11.0472 40.5365C11.3898 39.7101 11.7242 39.1123 12.3246 38.5448C12.3438 38.5256 12.4863 38.4071 12.489 38.4016C12.5521 38.352 12.6151 38.3052 12.6782 38.2611C12.8125 38.1674 12.9523 38.0793 13.0976 38.0022C13.1278 37.9856 13.2813 37.9112 13.2813 37.9085C13.3361 37.8865 13.3909 37.8617 13.4457 37.8424C13.6075 37.7818 13.7692 37.7322 13.9364 37.6909C14.0324 37.6661 14.1283 37.6495 14.2242 37.6303C14.2434 37.6275 14.2544 37.6248 14.2626 37.622C14.2708 37.622 14.2846 37.622 14.301 37.6192C14.46 37.6055 14.619 37.5917 14.778 37.5889C14.9644 37.5862 15.1508 37.5917 15.3372 37.611C15.3948 37.6165 15.4551 37.6248 15.5126 37.6303C15.5263 37.633 15.6579 37.6551 15.6853 37.6606C16.0389 37.7294 16.3871 37.8314 16.7242 37.9608C16.8092 37.9939 16.8942 38.0297 16.9792 38.0655C17.1272 38.1289 17.0367 38.0931 17.0066 38.0765C17.0422 38.0931 17.0779 38.1123 17.1135 38.1289C17.2697 38.2088 17.4233 38.2914 17.574 38.3796L17.5713 38.3713Z" fill="#FFCD5F"/>
<path d="M51.0416 4.25613C53.4895 4.26991 56.143 5.36355 58.1222 6.85389C62.064 9.82078 64.5613 12.9116 67.0668 17.2669C68.092 19.0493 68.7444 20.9528 69.4517 22.9087C70.1178 24.7517 70.6222 26.9417 70.5893 29.6221C68.7499 29.6221 55.5783 29.523 49.7943 29.0574C49.8382 28.8177 51.0361 10.9199 51.0416 4.25613Z" fill="#DBF8FC"/>
<path d="M48.336 4.00269C48.4183 4.25062 48.0592 28.9086 47.8837 29.0354C47.7576 29.129 25.4112 28.8315 24.0954 28.4431C23.2154 28.1814 22.3931 28.1428 22.3931 27.2392C22.3931 5.79054 44.9972 2.83467 48.336 4.00269Z" fill="#DBF8FC"/>
<path d="M60.3756 43.5778C60.5483 42.6798 60.9156 41.7321 61.7791 41.2307C62.3849 40.7597 63.1716 40.4814 64.0488 40.509C65.9704 40.5668 67.3684 41.7679 67.9907 43.3161C68.2813 44.0406 68.3937 44.8588 68.4704 45.6219C68.5636 46.5475 68.432 47.4841 68.0099 48.3381C67.5576 49.2499 66.716 49.911 65.6853 50.2774C65.4276 50.3711 65.1371 50.4372 64.8383 50.4703C63.6047 50.8642 62.2149 50.5061 61.3843 49.4758C60.7155 48.6466 60.466 47.5557 60.2933 46.5695C60.1179 45.5695 60.1837 44.5723 60.3728 43.5778H60.3756Z" fill="#423B59"/>
<path d="M12.3054 43.5943C12.3849 42.7211 12.5329 41.8258 12.9962 41.0682C13.7116 39.8974 15.0247 39.374 16.3021 39.8726C16.4775 39.9415 16.6447 40.0269 16.7982 40.1288C18.1031 40.3051 18.9803 41.6715 19.3394 42.9112C19.756 44.3492 19.9534 46.272 19.1859 47.6163C18.591 48.6549 17.6617 49.327 16.494 49.4785C15.5318 49.6025 14.5175 49.1617 13.835 48.4731C12.6398 47.272 12.1546 45.2665 12.3054 43.5943Z" fill="#423B59"/>
<path d="M2.23954 32.3521C3.01531 32.1372 3.76641 32.3631 4.52847 32.5284C5.06027 32.6441 5.58932 32.7598 6.12112 32.8727C6.69952 32.9967 7.48351 33.1345 7.97693 33.4816C8.53889 33.8727 8.9254 34.4292 8.94459 35.1813C8.96103 35.8396 8.64853 36.5531 8.11674 36.8975C8.10851 36.9057 8.10303 36.9168 8.09755 36.9278C7.26421 38.06 5.50161 38.0324 4.28176 37.9581C3.52518 37.9112 2.66169 37.9691 1.97364 37.5862C1.12112 37.1124 0.635925 36.1179 0.616737 35.1014C0.594807 33.9581 1.12935 32.6634 2.23954 32.3549V32.3521Z" fill="#D84A5E"/>
<path d="M2.23954 32.3521C2.28614 32.3383 2.33 32.3273 2.37661 32.319C2.38209 32.4072 2.39031 32.4954 2.39579 32.5835C2.43143 33.0931 2.4561 33.6055 2.46158 34.1179C2.47803 35.3162 2.24229 36.4485 1.95994 37.5752C1.11564 37.0986 0.635925 36.1124 0.616737 35.0986C0.594807 33.9554 1.12935 32.6606 2.23954 32.3521Z" fill="#FFCD5F"/>
<path d="M19.978 29.6249C23.5279 29.6056 27.086 29.7709 30.6386 29.859C34.1803 29.9472 37.7247 30.0491 41.2664 30.1152C43.6841 30.1593 46.0964 30.1207 48.5087 30.0767C48.5553 29.6056 48.6019 29.1318 48.6458 28.6607C48.9254 25.7406 49.1337 22.8151 49.3338 19.8867C49.5339 16.9529 49.7505 14.0191 49.8683 11.0797C49.9341 9.4544 49.9643 7.82632 49.9369 6.19825C49.9095 4.51233 49.7779 2.84293 49.6518 1.16527C49.6326 0.906323 49.9807 0.909078 50.0164 1.15425C50.433 4.07156 50.4111 7.09631 50.3261 10.0412C50.2412 12.9833 50.0328 15.9171 49.8409 18.8537C49.597 22.5919 49.364 26.3357 49.0542 30.0711C49.967 30.0546 50.8799 30.0381 51.7927 30.0243C55.296 29.9775 58.7691 30.2337 62.2532 30.6056C66.1677 31.0271 70.0877 31.4899 74.0241 31.5477C74.1776 31.5477 74.183 31.7956 74.0295 31.8067C70.5454 32.0325 67.0668 31.7157 63.5992 31.3631C60.1233 31.0105 56.6474 30.6634 53.1523 30.6689C51.768 30.6689 50.3837 30.6992 48.9994 30.7323C48.8349 32.6441 48.6485 34.5532 48.4292 36.4595C48.0454 39.7625 47.5575 43.0489 46.9352 46.3078C46.8503 46.7486 46.2253 46.586 46.3075 46.1453C47.2751 41.0572 47.9193 35.9058 48.4402 30.7433C46.5049 30.7901 44.5668 30.8342 42.6288 30.8122C39.0898 30.7736 35.5509 30.6607 32.0147 30.5753C28.0098 30.4789 23.9912 30.4733 19.9917 30.253C19.6271 30.2337 19.5997 29.6304 19.9753 29.6276L19.978 29.6249Z" fill="#423B59"/>
<path d="M43.3169 33.027C43.5499 32.9141 43.7555 32.9747 44.0049 33.005C44.3037 33.0408 44.6053 33.0739 44.904 33.1069C45.3865 33.1565 45.943 33.1455 46.3925 33.3548C46.4803 33.3962 46.5214 33.5119 46.5131 33.611C46.6338 34.0215 46.4775 34.6193 46.4391 35.005C46.4035 35.3521 45.8964 35.2777 45.8881 34.9416C45.8772 34.5807 45.921 34.2364 45.9814 33.8893C45.5565 33.9223 45.0932 33.8397 44.693 33.8066C44.2187 33.7653 43.6047 33.8314 43.2127 33.5201C43.029 33.3741 43.1551 33.1069 43.3169 33.0298V33.027Z" fill="#FFCD5F"/>
<path d="M24.0982 28.0822C24.6793 27.1979 25.381 26.388 26.0307 25.5643C26.3405 25.1704 26.653 24.782 26.9792 24.4046C27.3136 24.0189 27.6974 23.6332 27.9304 23.1594C27.2999 22.6277 26.7654 21.9583 26.4666 21.2338C26.2994 20.8261 25.9759 19.7545 26.4474 19.468C26.9929 19.1374 27.7193 19.3082 28.2703 19.5782C28.2922 19.5727 28.3142 19.5782 28.3416 19.5892C29.0269 19.917 29.5888 20.3468 30.1563 20.8757C30.6689 21.355 31.3377 21.8702 31.6667 22.5258C31.9134 23.0134 31.9189 23.6828 31.4995 24.063C31.017 24.501 30.1837 24.3412 29.6354 24.1539C29.131 23.9803 28.6102 23.6938 28.136 23.3247C27.966 23.7241 27.7001 24.0657 27.4616 24.4183C27.1491 24.8867 26.8394 25.3522 26.5104 25.8095C25.8608 26.7076 25.2303 27.6607 24.5066 28.4899C24.2517 28.7819 23.8953 28.3852 24.0982 28.0794V28.0822ZM26.7791 19.9721C26.7434 20.6388 27.0203 21.2256 27.4068 21.7269C27.4287 21.7214 27.4507 21.7159 27.4781 21.7159C27.9139 21.7187 28.3525 21.7297 28.7884 21.7324C28.5252 21.2256 28.2045 20.6939 28.0428 20.1374C27.6398 19.9363 27.2149 19.8371 26.7791 19.9694V19.9721ZM29.4024 21.1374C29.1941 20.9611 28.9666 20.7627 28.7253 20.5809C28.909 20.9225 29.068 21.2862 29.2352 21.614C29.2571 21.6553 29.2763 21.6966 29.2983 21.7352C29.5505 21.7324 29.8136 21.7131 30.074 21.7159C29.852 21.5176 29.6272 21.3275 29.4024 21.1374ZM31.2089 23.5671C31.2774 23.49 31.3103 23.3853 31.3213 23.2779C31.3213 23.2751 31.3185 23.2724 31.3158 23.2696C31.0609 22.8509 30.8772 22.4707 30.5236 22.1291C30.5099 22.1153 30.4962 22.1043 30.4825 22.0906C30.1755 22.1622 29.8438 22.1704 29.5258 22.1787C29.7725 22.6635 30.0219 23.1484 30.2687 23.6332C30.2796 23.6553 30.2878 23.6773 30.2906 23.6993C30.3646 23.7104 30.4414 23.7186 30.5181 23.7241C30.7374 23.7352 31.0444 23.7517 31.2089 23.5671ZM29.7012 23.5451C29.4737 23.096 29.2489 22.647 29.0214 22.198C28.6321 22.2173 28.2429 22.2338 27.8536 22.2393C27.9331 22.322 28.0154 22.3991 28.0949 22.4762C28.5636 22.917 29.1064 23.3219 29.7012 23.5451Z" fill="#423B59"/>
<path d="M14.0213 44.0792C14.1392 43.3822 14.608 42.8203 15.1946 42.5613C15.5537 42.3602 15.9786 42.2583 16.3761 42.3795C16.79 42.5062 17.1518 42.7624 17.3876 43.1619C17.7905 43.8478 18.0043 44.7431 17.7302 45.5255C17.5274 46.1067 17.1052 46.5723 16.5378 46.7348C16.0471 46.8753 15.5016 46.8147 15.0575 46.5337C14.2653 46.0323 13.8569 45.0571 14.0213 44.0764V44.0792Z" fill="#CFE8ED"/>
<path d="M62.5987 44.9552C62.6617 44.6522 62.7741 44.3464 62.9331 44.0874C63.0373 43.9139 63.1442 43.7431 63.2758 43.5916C63.5033 43.3326 63.7336 43.2169 64.0296 43.0709C64.4627 42.8561 65.0302 43.0875 65.3673 43.4235C65.5592 43.5751 65.7264 43.7872 65.8416 44.0654C66.165 44.834 66.3048 45.677 65.9485 46.4703C65.5318 47.4042 64.5312 47.8753 63.6294 47.5061C62.6754 47.1149 62.3821 45.9524 62.5932 44.958L62.5987 44.9552Z" fill="#CFE8ED"/>
<path d="M73.1304 45.8478C73.2209 44.9166 73.9638 44.4841 74.7587 44.5833C74.6655 44.575 74.7012 44.5778 74.8684 44.5943C74.9698 44.6026 75.0712 44.6081 75.1699 44.6136C75.4057 44.6301 75.6359 44.6522 75.8689 44.7073C76.2472 44.7982 76.6995 44.958 76.9846 45.2582C77.2423 45.5337 77.3492 46.0075 77.1573 46.3629C76.6173 47.3546 75.444 47.4731 74.4874 47.4483C73.6897 47.429 73.0482 46.7431 73.1332 45.8478H73.1304Z" fill="#D84A5E"/>
<path d="M69.2735 33.3907C70.1343 33.3907 70.9813 34.1482 70.9649 35.1317C70.9484 36.0793 70.285 36.9664 69.3613 36.9664C68.5005 36.9664 67.6535 36.2088 67.6699 35.2253C67.6864 34.2777 68.3497 33.3907 69.2735 33.3907Z" fill="#423B59"/>
<path d="M69.2845 33.8176C69.9177 33.8176 70.4714 34.3576 70.4906 35.06C70.507 35.735 69.9835 36.3686 69.3475 36.3686C68.7115 36.3686 68.1606 35.8286 68.1414 35.1262C68.1249 34.4512 68.6485 33.8176 69.2845 33.8176Z" fill="#FFCD5F"/>
<path d="M15.3838 23.355C15.3838 22.6305 15.3783 20.7848 16.3596 20.7765C16.8394 20.7738 17.0641 21.2504 17.1162 21.6939C17.1299 21.8178 17.1409 21.939 17.1409 22.0575C17.1628 22.4239 17.1491 22.7958 17.1354 23.1539C17.1162 23.6222 17.1327 24.242 16.9024 24.6525C16.6612 25.085 16.102 25.231 15.7319 24.8922C15.3618 24.5506 15.381 23.8288 15.381 23.3522L15.3838 23.355Z" fill="#CFE8ED"/>
<path d="M42.2422 15.4791C42.1902 15.4267 42.1298 15.3827 42.0668 15.3441C41.7406 15.132 41.2855 15.2146 41.0197 15.4791C40.3042 16.1871 39.6573 16.9832 38.9857 17.7352C38.3661 18.4267 37.7274 19.2063 37.3382 20.052C36.9654 20.8674 37.9385 21.2283 38.3579 20.8344C38.3579 20.8399 38.3607 20.8426 38.3634 20.8481C39.098 20.198 39.7642 19.4405 40.4358 18.7242C41.1019 18.0135 41.8091 17.3303 42.3766 16.5342C42.6041 16.2174 42.4944 15.7435 42.2422 15.4818V15.4791Z" fill="white"/>
<path d="M43.0043 17.5975C42.4671 17.7573 42.2341 18.3992 41.9654 18.8427C41.8009 19.1154 41.4665 19.6305 41.5021 19.9639C41.5131 20.0575 41.5597 20.1457 41.6584 20.1705C42.0257 20.2614 42.5329 19.8371 42.7768 19.603C43.1633 19.2339 43.7774 18.7738 43.7801 18.1925C43.7829 17.7959 43.3854 17.4818 43.0016 17.5975H43.0043Z" fill="white"/>
<path d="M38.6869 13.1816C38.4045 12.8097 37.9687 12.9612 37.5739 13.0742C37.0915 13.2147 36.6556 13.4708 36.3047 13.8317C36.1348 14.0053 36.3047 14.3551 36.5542 14.2615C36.9188 14.1237 37.2779 13.964 37.6479 13.8427C38.0125 13.7243 38.4511 13.8235 38.6841 13.4736C38.7362 13.3965 38.7417 13.2587 38.6841 13.1816H38.6869Z" fill="white"/>
<path d="M39.6079 12.8868C39.1665 12.8868 39.1665 13.5755 39.6079 13.5755C40.0492 13.5755 40.0492 12.8868 39.6079 12.8868Z" fill="white"/>
</g>
<defs>
<clipPath id="clip0_40_1396">
<rect width="85" height="52.5281" fill="white"/>
</clipPath>
</defs>
</svg>
