<svg width="118" height="118" viewBox="0 0 118 118" fill="none" xmlns="http://www.w3.org/2000/svg">
<g filter="url(#filter0_d_8_7819)">
<g filter="url(#filter1_d_8_7819)">
<rect x="4" width="110" height="110" rx="20" fill="#4CDD86"/>
<rect x="4.5" y="0.5" width="109" height="109" rx="19.5" stroke="#5CF297"/>
</g>
<path d="M73.3648 36.875V32H44.125V36.875H36V40.7344C36 43.9844 36.9648 47.1115 38.7178 49.5307C40.0716 51.3995 42.1882 52.6893 44.0915 53.3098C44.644 56.2846 46.143 59.1121 49.1889 61.4176C51.4233 63.1096 54.1096 64.3497 56.5156 64.8565V73.0312H49V77.5H68.5V73.0312H60.9844V64.8565C63.3904 64.3487 66.0757 63.1096 68.3111 61.4176C71.358 59.1121 72.856 56.2846 73.4085 53.3098C75.3118 52.6893 77.4284 51.3995 78.7822 49.5307C80.5352 47.1115 81.5 43.9844 81.5 40.7344V36.875H73.3648ZM42.3375 46.9094C41.2528 45.4184 40.5937 43.4156 40.485 41.3438H44.125V48.186C43.7248 48.0702 42.8128 47.5645 42.3375 46.9094ZM75.1625 46.9094C74.6953 47.5807 73.9844 48.187 73.375 48.187C73.375 45.912 73.375 43.4857 73.3699 41.3438H77.016C76.9063 43.4156 76.2188 45.3961 75.1625 46.9094Z" fill="#34AF65"/>
</g>
<defs>
<filter id="filter0_d_8_7819" x="0" y="0" width="118" height="118" filterUnits="userSpaceOnUse" color-interpolation-filters="sRGB">
<feFlood flood-opacity="0" result="BackgroundImageFix"/>
<feColorMatrix in="SourceAlpha" type="matrix" values="0 0 0 0 0 0 0 0 0 0 0 0 0 0 0 0 0 0 127 0" result="hardAlpha"/>
<feOffset dy="4"/>
<feGaussianBlur stdDeviation="2"/>
<feComposite in2="hardAlpha" operator="out"/>
<feColorMatrix type="matrix" values="0 0 0 0 0 0 0 0 0 0 0 0 0 0 0 0 0 0 0.25 0"/>
<feBlend mode="normal" in2="BackgroundImageFix" result="effect1_dropShadow_8_7819"/>
<feBlend mode="normal" in="SourceGraphic" in2="effect1_dropShadow_8_7819" result="shape"/>
</filter>
<filter id="filter1_d_8_7819" x="2" y="0" width="114" height="117" filterUnits="userSpaceOnUse" color-interpolation-filters="sRGB">
<feFlood flood-opacity="0" result="BackgroundImageFix"/>
<feColorMatrix in="SourceAlpha" type="matrix" values="0 0 0 0 0 0 0 0 0 0 0 0 0 0 0 0 0 0 127 0" result="hardAlpha"/>
<feMorphology radius="2" operator="dilate" in="SourceAlpha" result="effect1_dropShadow_8_7819"/>
<feOffset dy="5"/>
<feComposite in2="hardAlpha" operator="out"/>
<feColorMatrix type="matrix" values="0 0 0 0 0.203385 0 0 0 0 0.6875 0 0 0 0 0.39478 0 0 0 1 0"/>
<feBlend mode="normal" in2="BackgroundImageFix" result="effect1_dropShadow_8_7819"/>
<feBlend mode="normal" in="SourceGraphic" in2="effect1_dropShadow_8_7819" result="shape"/>
</filter>
</defs>
</svg>
