<svg width="114" height="117" viewBox="0 0 114 117" fill="none" xmlns="http://www.w3.org/2000/svg">
<g filter="url(#filter0_d_8_7670)">
<rect x="2" width="110" height="110" rx="20" fill="#423B59"/>
<rect x="2.5" y="0.5" width="109" height="109" rx="19.5" stroke="#695D8F"/>
</g>
<g clip-path="url(#clip0_8_7670)">
<path opacity="0.25" d="M99 79.6245C99 80.6769 79.9731 81.5281 56.5 81.5281C33.0269 81.5281 14 80.6769 14 79.6245C14 78.5722 33.0269 77.721 56.5 77.721C79.9731 77.721 99 78.5722 99 79.6245Z" fill="#6EB9C7"/>
<path d="M87.3909 69.1399C87.3827 68.7349 87.6129 68.3355 88.0954 68.3382C88.5395 68.3382 88.9863 68.3162 89.4331 68.3217C89.4907 68.3189 89.5482 68.3162 89.6031 68.3162C90.1486 68.3079 90.6941 68.3217 91.2396 68.3245C91.7028 68.3245 91.9578 68.6908 91.9934 69.082C92.0016 69.1316 92.0044 69.1812 91.9962 69.2308C91.9962 69.2666 91.9907 69.3024 91.9852 69.3382C92.0702 69.7294 92.0894 70.1894 91.7714 70.4374C91.4013 70.7294 90.727 70.655 90.2966 70.6219C89.7785 70.5834 89.2632 70.5035 88.7588 70.3685C88.2928 70.2445 87.7473 70.1178 87.4677 69.6578C87.3662 69.4897 87.3498 69.3107 87.3882 69.1426L87.3909 69.1399Z" fill="#D84A5E"/>
<path d="M92.4897 70.1701C92.4897 69.7542 92.5089 69.341 92.5555 68.9305C92.7255 68.8726 92.8954 68.8093 93.0654 68.7487C92.9585 67.9746 92.9804 67.1482 93.3971 66.4815C93.7452 65.925 94.3839 65.5559 95.0089 65.6441C95.6504 65.735 96.1356 66.3438 96.1493 67.0462C96.1548 67.3768 96.0533 67.6688 95.8834 67.903C96.5714 68.0986 97.1827 68.6605 97.2101 69.4759C97.2321 70.0958 96.7496 70.531 96.2343 70.6577C96.1603 70.677 96.078 70.6936 95.993 70.7046C96.1356 70.9966 96.2014 71.3327 96.163 71.677C96.0725 72.4676 95.464 73.115 94.7184 73.1178C94.5923 73.1178 94.4744 73.1012 94.3648 73.0737C94.2688 73.0875 94.1756 73.0902 94.0879 73.0764C93.6986 73.0158 93.5095 72.6522 93.4108 72.2748C93.3121 71.8891 93.2683 71.1812 93.4245 70.6385C93.1805 70.3575 92.8406 70.1922 92.4925 70.1674L92.4897 70.1701Z" fill="#CFE8ED"/>
<path d="M16.7496 64.3521C16.8181 63.0546 16.7852 61.6221 17.1388 60.3714C17.4815 59.1593 18.2134 58.1648 19.203 57.5009C21.3494 56.0629 24.0714 56.3852 26.4563 56.6993C27.4321 56.8288 28.408 56.9996 29.3702 57.2227C29.3702 56.9445 29.3812 56.6717 29.3757 56.4541C29.3647 56.1098 29.362 55.7654 29.3565 55.4211C29.351 55.085 29.4086 54.6387 29.3483 54.2999C28.9426 53.8013 28.9014 52.928 28.9069 52.3082C28.9124 51.4928 29.0029 50.4156 29.5511 49.7931C29.8252 49.4818 30.2446 49.3991 30.5873 49.6195C30.9875 49.6553 31.2178 50.0493 31.311 50.4432C31.4261 50.928 31.4234 51.4542 31.3822 51.9528C31.3987 52.3633 31.3905 52.7765 31.3494 53.1897C31.2753 53.9473 30.7819 54.7682 30.039 54.68C30.0582 54.8701 30.0856 55.0602 30.0966 55.2255C30.1185 55.5974 30.1432 55.972 30.1597 56.3439C30.1734 56.6883 30.1843 57.0326 30.1953 57.377C30.1953 57.3935 30.1953 57.41 30.1953 57.4265C30.2858 57.4513 30.3762 57.4734 30.4667 57.4982C31.1794 57.6965 32.6843 56.1814 32.7748 55.253C32.9667 53.2999 33.4025 51.3908 33.9343 49.5176C34.4826 47.5975 35.1103 45.6967 35.7901 43.8262C36.4206 42.0935 37.1525 40.3938 38.1229 38.8511C41.681 33.2065 47.6679 30.0744 53.8192 29.3251C57.4787 28.8788 61.1904 28.8099 64.7841 29.6281C68.1531 30.3939 71.7414 31.5482 74.6745 33.5178C78.4957 36.0853 84.6416 42.5425 86.7934 50.2008C88.7726 57.2365 89.754 64.6138 89.6471 71.9442C89.6333 72.8616 89.6087 73.7789 89.5703 74.6935C89.5429 75.3794 88.896 75.6466 88.4519 75.4511C87.9448 75.5199 82.9146 75.6577 81.7907 75.6659C79.4908 75.6797 19.181 75.6962 18.6273 75.5805C18.0928 75.4676 17.5747 75.2582 17.1909 74.8257C16.692 74.2665 16.5549 73.4841 16.5412 72.7321C16.4892 69.9443 16.5988 67.1344 16.7441 64.3521H16.7496Z" fill="#FF435E"/>
<path d="M21.5687 71.9194C21.607 71.9112 21.6317 71.8671 21.6344 71.8258C21.7934 69.0572 22.5473 66.049 24.5977 64.2116C27.2704 61.8177 31.0697 62.6468 33.8494 64.3493C36.6646 66.071 39.3866 69.1068 39.7731 72.7403C39.7731 72.7486 39.7759 72.7541 39.7786 72.7624C39.7869 72.801 39.8115 72.8368 39.8609 72.8368H67.0127C67.0127 72.8368 67.0127 72.8423 67.0127 72.845C66.9881 72.9662 67.158 73.0158 67.1827 72.8974C67.1854 72.8781 67.1909 72.8561 67.1964 72.8368H67.2183C67.3252 72.8368 67.3307 72.6715 67.2375 72.6494C67.4897 71.6274 68.0188 70.7266 68.6301 69.9112C69.2496 69.0848 69.9431 68.2831 70.675 67.5724C75.6613 62.7047 83.2106 66.8617 87.0401 71.3712C87.1087 71.4511 87.2128 71.3547 87.1827 71.2693H89.6525C89.6525 71.4952 89.6498 71.7211 89.647 71.947C89.6333 72.8643 89.6087 73.7817 89.5703 74.6962C89.5429 75.3822 88.896 75.6494 88.4519 75.4538C87.9447 75.5227 82.9146 75.6604 81.7907 75.6687C79.4908 75.6825 19.181 75.699 18.6273 75.5833C18.0928 75.4703 17.5747 75.261 17.1909 74.8285C16.692 74.2693 16.5549 73.4869 16.5412 72.7348C16.5358 72.4263 16.533 72.1205 16.5303 71.812C18.2079 72.0048 19.8801 72.2528 21.5659 71.9194H21.5687Z" fill="#D84A5E"/>
<path d="M72.3965 70.9663C72.8954 70.1619 73.567 69.4456 74.3619 68.9333C75.0966 68.4594 76.0094 68.1454 76.7852 68.0738C78.6355 67.8975 80.4173 68.5008 82.0209 69.5283C82.3417 69.7321 82.6459 69.9608 82.9447 70.2032C82.9557 70.2142 82.9694 70.2225 82.9776 70.2308C83.016 70.2638 83.0571 70.2996 83.0955 70.3327C83.175 70.4015 83.2545 70.4732 83.3312 70.542C83.482 70.6798 83.63 70.8175 83.7753 70.9608C84.4689 71.6384 85.1185 72.3712 85.7134 73.1536C86.2315 73.834 86.7523 74.6494 87.1553 75.5006C87.1607 75.5144 87.1662 75.5254 87.1744 75.5392C85.664 75.5971 83.1421 75.6632 82.4266 75.6687C81.851 75.6714 77.1388 75.6769 70.6777 75.6769C70.9299 74.0076 71.5275 72.3712 72.3965 70.9663Z" fill="#FFCD5F"/>
<path d="M31.5713 67.3713C31.892 67.5614 32.2018 67.7762 32.4923 68.0187C32.5006 68.0269 32.6404 68.1509 32.665 68.1729C32.7281 68.2308 32.7884 68.2886 32.8487 68.3465C33.0104 68.5063 33.1639 68.6771 33.3147 68.8534C33.9178 69.5558 34.4139 70.3382 34.8443 71.1894C35.5461 72.5778 36.0176 74.1095 36.1793 75.6659C31.1409 75.6604 26.7385 75.6494 23.9753 75.6356C24.0247 73.5668 24.2632 71.4236 25.0472 69.5365C25.3898 68.7101 25.7242 68.1123 26.3246 67.5448C26.3438 67.5256 26.4863 67.4071 26.489 67.4016C26.5521 67.352 26.6151 67.3052 26.6782 67.2611C26.8125 67.1674 26.9523 67.0793 27.0976 67.0022C27.1278 66.9856 27.2813 66.9112 27.2813 66.9085C27.3361 66.8865 27.3909 66.8617 27.4457 66.8424C27.6075 66.7818 27.7692 66.7322 27.9364 66.6909C28.0324 66.6661 28.1283 66.6495 28.2242 66.6303C28.2434 66.6275 28.2544 66.6248 28.2626 66.622C28.2708 66.622 28.2846 66.622 28.301 66.6192C28.46 66.6055 28.619 66.5917 28.778 66.5889C28.9644 66.5862 29.1508 66.5917 29.3372 66.611C29.3948 66.6165 29.4551 66.6248 29.5126 66.6303C29.5263 66.633 29.6579 66.6551 29.6853 66.6606C30.0389 66.7294 30.3871 66.8314 30.7242 66.9608C30.8092 66.9939 30.8942 67.0297 30.9792 67.0655C31.1272 67.1289 31.0367 67.0931 31.0066 67.0765C31.0422 67.0931 31.0779 67.1123 31.1135 67.1289C31.2697 67.2088 31.4233 67.2914 31.574 67.3796L31.5713 67.3713Z" fill="#FFCD5F"/>
<path d="M65.0417 33.2561C67.4896 33.2699 70.1431 34.3636 72.1223 35.8539C76.0642 38.8208 78.5614 41.9116 81.0669 46.2669C82.0921 48.0493 82.7445 49.9528 83.4518 51.9087C84.1179 53.7517 84.6223 55.9417 84.5894 58.6221C82.75 58.6221 69.5784 58.5229 63.7944 58.0574C63.8383 57.8177 65.0362 39.9199 65.0417 33.2561Z" fill="#DBF8FC"/>
<path d="M62.336 33.0027C62.4183 33.2506 62.0592 57.9086 61.8837 58.0354C61.7576 58.129 39.4112 57.8315 38.0954 57.4431C37.2154 57.1814 36.3931 57.1428 36.3931 56.2392C36.3931 34.7905 58.9972 31.8347 62.336 33.0027Z" fill="#DBF8FC"/>
<path d="M74.3757 72.5778C74.5484 71.6798 74.9157 70.7321 75.7792 70.2308C76.385 69.7597 77.1717 69.4815 78.0489 69.509C79.9705 69.5669 81.3686 70.7679 81.9908 72.3161C82.2814 73.0406 82.3938 73.8588 82.4705 74.6219C82.5637 75.5475 82.4322 76.4841 82.01 77.3381C81.5577 78.2499 80.7161 78.9111 79.6854 79.2774C79.4278 79.3711 79.1372 79.4372 78.8384 79.4703C77.6049 79.8642 76.215 79.5061 75.3845 78.4758C74.7156 77.6466 74.4661 76.5557 74.2934 75.5695C74.118 74.5695 74.1838 73.5723 74.3729 72.5778H74.3757Z" fill="#423B59"/>
<path d="M26.3055 72.5944C26.385 71.7211 26.533 70.8258 26.9963 70.0682C27.7117 68.8974 29.0248 68.374 30.3022 68.8726C30.4776 68.9415 30.6449 69.0269 30.7984 69.1288C32.1032 69.3051 32.9804 70.6715 33.3395 71.9112C33.7562 73.3492 33.9535 75.272 33.186 76.6163C32.5911 77.6549 31.6619 78.327 30.4941 78.4786C29.5319 78.6025 28.5177 78.1618 27.8351 77.4731C26.6399 76.272 26.1547 74.2665 26.3055 72.5944Z" fill="#423B59"/>
<path d="M16.2397 61.3521C17.0154 61.1372 17.7665 61.3631 18.5286 61.5284C19.0604 61.6441 19.5894 61.7598 20.1212 61.8728C20.6996 61.9967 21.4836 62.1345 21.9771 62.4816C22.539 62.8727 22.9255 63.4292 22.9447 64.1813C22.9612 64.8397 22.6487 65.5531 22.1169 65.8975C22.1086 65.9058 22.1032 65.9168 22.0977 65.9278C21.2643 67.06 19.5017 67.0325 18.2819 66.9581C17.5253 66.9112 16.6618 66.9691 15.9738 66.5862C15.1212 66.1124 14.636 65.1179 14.6169 64.1014C14.5949 62.9581 15.1295 61.6634 16.2397 61.3549V61.3521Z" fill="#D84A5E"/>
<path d="M16.2397 61.3521C16.2863 61.3383 16.3301 61.3273 16.3767 61.319C16.3822 61.4072 16.3904 61.4953 16.3959 61.5835C16.4316 62.0931 16.4562 62.6055 16.4617 63.1179C16.4782 64.3162 16.2424 65.4485 15.9601 66.5752C15.1158 66.0986 14.636 65.1124 14.6169 64.0986C14.5949 62.9554 15.1295 61.6606 16.2397 61.3521Z" fill="#FFCD5F"/>
<path d="M33.9781 58.6249C37.528 58.6056 41.0861 58.7709 44.6388 58.859C48.1804 58.9472 51.7248 59.0491 55.2665 59.1152C57.6843 59.1593 60.0965 59.1207 62.5088 59.0767C62.5554 58.6056 62.602 58.1318 62.6459 57.6607C62.9255 54.7406 63.1338 51.8151 63.3339 48.8867C63.534 45.9529 63.7506 43.0191 63.8685 40.0797C63.9343 38.4544 63.9644 36.8263 63.937 35.1982C63.9096 33.5123 63.778 31.8429 63.6519 30.1653C63.6327 29.9063 63.9809 29.9091 64.0165 30.1543C64.4332 33.0716 64.4112 36.0963 64.3263 39.0412C64.2413 41.9833 64.0329 44.9171 63.8411 47.8537C63.5971 51.5919 63.3641 55.3357 63.0543 59.0711C63.9672 59.0546 64.88 59.0381 65.7928 59.0243C69.2961 58.9775 72.7692 59.2337 76.2533 59.6056C80.1678 60.0271 84.0878 60.4899 88.0242 60.5477C88.1777 60.5477 88.1832 60.7956 88.0297 60.8067C84.5456 61.0325 81.0669 60.7157 77.5993 60.3631C74.1234 60.0105 70.6475 59.6634 67.1525 59.6689C65.7681 59.6689 64.3838 59.6992 62.9995 59.7323C62.835 61.6441 62.6486 63.5532 62.4293 65.4595C62.0456 68.7625 61.5576 72.0489 60.9354 75.3078C60.8504 75.7486 60.2254 75.586 60.3076 75.1453C61.2753 70.0572 61.9195 64.9058 62.4403 59.7433C60.505 59.7901 58.5669 59.8342 56.6289 59.8122C53.09 59.7736 49.551 59.6607 46.0149 59.5753C42.0099 59.4789 37.9913 59.4733 33.9918 59.253C33.6272 59.2337 33.5998 58.6304 33.9754 58.6276L33.9781 58.6249Z" fill="#423B59"/>
<path d="M57.317 62.027C57.55 61.9141 57.7556 61.9747 58.005 62.005C58.3038 62.0408 58.6054 62.0739 58.9042 62.1069C59.3866 62.1565 59.9431 62.1455 60.3927 62.3548C60.4804 62.3962 60.5215 62.5119 60.5133 62.611C60.6339 63.0215 60.4776 63.6193 60.4393 64.005C60.4036 64.3521 59.8965 64.2777 59.8883 63.9416C59.8773 63.5807 59.9212 63.2364 59.9815 62.8893C59.5566 62.9223 59.0933 62.8397 58.6931 62.8066C58.2189 62.7653 57.6048 62.8314 57.2128 62.5201C57.0292 62.3741 57.1553 62.1069 57.317 62.0298V62.027Z" fill="#FFCD5F"/>
<path d="M38.0983 57.0822C38.6794 56.1979 39.3812 55.388 40.0308 54.5643C40.3406 54.1704 40.6531 53.782 40.9793 53.4046C41.3137 53.0189 41.6975 52.6332 41.9305 52.1594C41.3 51.6277 40.7655 50.9583 40.4667 50.2338C40.2995 49.8261 39.976 48.7545 40.4475 48.468C40.993 48.1374 41.7194 48.3082 42.2704 48.5782C42.2924 48.5727 42.3143 48.5782 42.3417 48.5892C43.027 48.917 43.589 49.3468 44.1564 49.8757C44.669 50.355 45.3379 50.8702 45.6668 51.5258C45.9135 52.0134 45.919 52.6828 45.4996 53.063C45.0171 53.501 44.1838 53.3412 43.6356 53.1539C43.1312 52.9803 42.6103 52.6938 42.1361 52.3247C41.9661 52.7241 41.7002 53.0657 41.4618 53.4183C41.1493 53.8867 40.8395 54.3522 40.5106 54.8095C39.8609 55.7076 39.2304 56.6607 38.5067 57.4899C38.2518 57.7819 37.8954 57.3852 38.0983 57.0794V57.0822ZM40.7792 48.9721C40.7436 49.6388 41.0204 50.2256 41.4069 50.7269C41.4289 50.7214 41.4508 50.7159 41.4782 50.7159C41.9141 50.7187 42.3527 50.7297 42.7885 50.7324C42.5254 50.2256 42.2046 49.6939 42.0429 49.1374C41.6399 48.9363 41.2151 48.8372 40.7792 48.9694V48.9721ZM43.4026 50.1374C43.1942 49.9611 42.9667 49.7628 42.7255 49.5809C42.9091 49.9225 43.0681 50.2862 43.2353 50.614C43.2573 50.6553 43.2765 50.6966 43.2984 50.7352C43.5506 50.7324 43.8137 50.7132 44.0742 50.7159C43.8521 50.5176 43.6273 50.3275 43.4026 50.1374ZM45.209 52.5671C45.2776 52.49 45.3104 52.3853 45.3214 52.2779C45.3214 52.2751 45.3187 52.2724 45.3159 52.2696C45.061 51.8509 44.8773 51.4707 44.5237 51.1291C44.51 51.1154 44.4963 51.1043 44.4826 51.0906C44.1756 51.1622 43.8439 51.1704 43.5259 51.1787C43.7726 51.6636 44.0221 52.1484 44.2688 52.6332C44.2797 52.6553 44.288 52.6773 44.2907 52.6993C44.3647 52.7104 44.4415 52.7186 44.5182 52.7241C44.7375 52.7352 45.0445 52.7517 45.209 52.5671ZM43.7013 52.5451C43.4738 52.0961 43.249 51.647 43.0215 51.198C42.6323 51.2173 42.243 51.2338 41.8538 51.2393C41.9333 51.322 42.0155 51.3991 42.095 51.4762C42.5637 51.917 43.1065 52.3219 43.7013 52.5451Z" fill="#423B59"/>
<path d="M28.0213 73.0792C28.1392 72.3822 28.608 71.8203 29.1946 71.5613C29.5537 71.3602 29.9786 71.2583 30.3761 71.3795C30.79 71.5062 31.1518 71.7624 31.3876 72.1619C31.7905 72.8478 32.0043 73.7431 31.7302 74.5255C31.5274 75.1067 31.1052 75.5723 30.5378 75.7348C30.0471 75.8753 29.5016 75.8147 29.0575 75.5337C28.2653 75.0323 27.8569 74.0571 28.0213 73.0764V73.0792Z" fill="#CFE8ED"/>
<path d="M76.5987 73.9552C76.6617 73.6522 76.7741 73.3464 76.9331 73.0875C77.0373 72.9139 77.1442 72.7431 77.2758 72.5916C77.5033 72.3327 77.7336 72.217 78.0296 72.0709C78.4627 71.8561 79.0302 72.0875 79.3673 72.4236C79.5592 72.5751 79.7264 72.7872 79.8416 73.0654C80.165 73.834 80.3048 74.677 79.9485 75.4703C79.5318 76.4042 78.5312 76.8753 77.6294 76.5061C76.6754 76.115 76.3821 74.9524 76.5932 73.958L76.5987 73.9552Z" fill="#CFE8ED"/>
<path d="M87.1306 74.8478C87.221 73.9166 87.9639 73.4841 88.7589 73.5833C88.6657 73.5751 88.7013 73.5778 88.8685 73.5943C88.9699 73.6026 89.0714 73.6081 89.17 73.6136C89.4058 73.6301 89.636 73.6522 89.869 73.7073C90.2473 73.7982 90.6996 73.958 90.9847 74.2582C91.2424 74.5337 91.3493 75.0075 91.1574 75.3629C90.6174 76.3546 89.4442 76.4731 88.4875 76.4483C87.6898 76.429 87.0483 75.7431 87.1333 74.8478H87.1306Z" fill="#D84A5E"/>
<path d="M83.2738 62.3907C84.1345 62.3907 84.9816 63.1482 84.9651 64.1317C84.9487 65.0793 84.2853 65.9664 83.3615 65.9664C82.5007 65.9664 81.6537 65.2088 81.6702 64.2253C81.6866 63.2777 82.35 62.3907 83.2738 62.3907Z" fill="#423B59"/>
<path d="M83.2846 62.8176C83.9178 62.8176 84.4715 63.3576 84.4907 64.06C84.5072 64.735 83.9836 65.3686 83.3476 65.3686C82.7117 65.3686 82.1607 64.8286 82.1415 64.1262C82.125 63.4512 82.6486 62.8176 83.2846 62.8176Z" fill="#FFCD5F"/>
<path d="M29.3838 52.355C29.3838 51.6305 29.3783 49.7848 30.3596 49.7765C30.8394 49.7738 31.0641 50.2504 31.1162 50.6939C31.1299 50.8178 31.1409 50.939 31.1409 51.0575C31.1628 51.4239 31.1491 51.7958 31.1354 52.1539C31.1162 52.6222 31.1327 53.242 30.9024 53.6525C30.6612 54.085 30.102 54.231 29.7319 53.8922C29.3618 53.5506 29.381 52.8288 29.381 52.3522L29.3838 52.355Z" fill="#CFE8ED"/>
<path d="M56.2424 44.4791C56.1903 44.4268 56.13 44.3827 56.0669 44.3441C55.7407 44.132 55.2857 44.2146 55.0198 44.4791C54.3043 45.1871 53.6574 45.9832 52.9858 46.7353C52.3663 47.4267 51.7276 48.2063 51.3383 49.052C50.9655 49.8674 51.9386 50.2283 52.358 49.8344C52.358 49.8399 52.3608 49.8426 52.3635 49.8482C53.0982 49.198 53.7643 48.4405 54.4359 47.7242C55.102 47.0135 55.8092 46.3303 56.3767 45.5342C56.6042 45.2174 56.4946 44.7436 56.2424 44.4818V44.4791Z" fill="white"/>
<path d="M57.0043 46.5975C56.4671 46.7573 56.2341 47.3992 55.9654 47.8427C55.8009 48.1154 55.4665 48.6305 55.5021 48.9639C55.5131 49.0575 55.5597 49.1457 55.6584 49.1705C56.0257 49.2614 56.5329 48.8372 56.7768 48.603C57.1633 48.2339 57.7774 47.7738 57.7801 47.1925C57.7829 46.7959 57.3854 46.4818 57.0016 46.5975H57.0043Z" fill="white"/>
<path d="M52.687 42.1816C52.4046 41.8097 51.9688 41.9612 51.5741 42.0742C51.0916 42.2147 50.6557 42.4709 50.3049 42.8317C50.1349 43.0053 50.3049 43.3551 50.5543 43.2615C50.9189 43.1237 51.278 42.964 51.6481 42.8428C52.0126 42.7243 52.4512 42.8235 52.6842 42.4736C52.7363 42.3965 52.7418 42.2587 52.6842 42.1816H52.687Z" fill="white"/>
<path d="M53.6081 41.8868C53.1668 41.8868 53.1668 42.5755 53.6081 42.5755C54.0494 42.5755 54.0494 41.8868 53.6081 41.8868Z" fill="white"/>
</g>
<defs>
<filter id="filter0_d_8_7670" x="0" y="0" width="114" height="117" filterUnits="userSpaceOnUse" color-interpolation-filters="sRGB">
<feFlood flood-opacity="0" result="BackgroundImageFix"/>
<feColorMatrix in="SourceAlpha" type="matrix" values="0 0 0 0 0 0 0 0 0 0 0 0 0 0 0 0 0 0 127 0" result="hardAlpha"/>
<feMorphology radius="2" operator="dilate" in="SourceAlpha" result="effect1_dropShadow_8_7670"/>
<feOffset dy="5"/>
<feComposite in2="hardAlpha" operator="out"/>
<feColorMatrix type="matrix" values="0 0 0 0 0.209407 0 0 0 0 0.190712 0 0 0 0 0.270833 0 0 0 1 0"/>
<feBlend mode="normal" in2="BackgroundImageFix" result="effect1_dropShadow_8_7670"/>
<feBlend mode="normal" in="SourceGraphic" in2="effect1_dropShadow_8_7670" result="shape"/>
</filter>
<clipPath id="clip0_8_7670">
<rect width="85" height="52.5281" fill="white" transform="translate(14 29)"/>
</clipPath>
</defs>
</svg>
