<svg width="114" height="117" viewBox="0 0 114 117" fill="none" xmlns="http://www.w3.org/2000/svg">
<g filter="url(#filter0_d_8_7707)">
<rect x="2" width="110" height="110" rx="20" fill="#FFCD5F"/>
<rect x="2.5" y="0.5" width="109" height="109" rx="19.5" stroke="#FFE4AA"/>
</g>
<g clip-path="url(#clip0_8_7707)">
<path d="M55.4278 90C69.7567 90 81.3726 87.5048 81.3726 84.4268C81.3726 81.3489 69.7567 78.8537 55.4278 78.8537C41.0988 78.8537 29.4829 81.3489 29.4829 84.4268C29.4829 87.5048 41.0988 90 55.4278 90Z" fill="#FFBB61"/>
<path d="M33.1472 64.0849C33.1472 64.0849 25.3678 62.6838 24.4752 64.2131C23.5826 65.7424 13.1254 86.5 25.6216 66.759C25.6216 66.759 34.8041 68.9234 36.3326 67.9038C37.864 66.8843 33.1444 64.0821 33.1444 64.0821L33.1472 64.0849Z" fill="#D64441"/>
<path d="M33.1472 64.0849C33.1472 64.0849 31.9295 63.8657 30.4067 63.6948C30.2812 65.0247 30.1557 66.4059 30.2869 67.6931C32.8078 68.1174 35.5597 68.4221 36.3354 67.9038C37.8667 66.8843 33.1472 64.0821 33.1472 64.0821V64.0849Z" fill="#A83535"/>
<path d="M35.4428 66.6337C35.4428 66.6337 27.2812 70.8371 27.2812 72.8733C27.2812 76.6722 29.5769 83.5696 30.5978 83.4443C31.3678 83.3475 30.1216 75.9261 30.2157 75.1658C30.344 74.1462 36.8459 70.1992 39.9086 70.1992C44.4172 70.1992 35.4457 66.6337 35.4457 66.6337H35.4428Z" fill="#FF554B"/>
<path d="M39.8772 68.4649C39.8772 68.4649 33.7689 75.3708 34.5046 77.763C36.0845 82.8976 42.5864 95.0719 37.4333 78.0705C37.4333 78.0705 37.8468 76.2935 45.1729 71.4067C49.1082 68.781 39.8772 68.4649 39.8772 68.4649Z" fill="#FF554B"/>
<path d="M80.9906 64.0849C80.9906 64.0849 88.7701 62.6838 89.6626 64.2131C90.5552 65.7424 101.012 86.5 88.5163 66.759C88.5163 66.759 79.3338 68.9234 77.8052 67.9038C76.2739 66.8843 80.9934 64.0821 80.9934 64.0821L80.9906 64.0849Z" fill="#D64441"/>
<path d="M80.9905 64.0849C80.9905 64.0849 82.2082 63.8657 83.731 63.6948C83.8565 65.0247 83.982 66.4059 83.8508 67.6931C81.3299 68.1174 78.578 68.4221 77.8023 67.9038C76.2709 66.8843 80.9905 64.0821 80.9905 64.0821V64.0849Z" fill="#A83535"/>
<path d="M78.6948 66.6337C78.6948 66.6337 86.8564 70.8371 86.8564 72.8733C86.8564 76.6722 84.5608 83.5696 83.5399 83.4443C82.7699 83.3475 84.0161 75.9261 83.922 75.1658C83.7937 74.1462 77.2918 70.1992 74.2291 70.1992C69.7205 70.1992 78.692 66.6337 78.692 66.6337H78.6948Z" fill="#FF554B"/>
<path d="M74.2633 68.4649C74.2633 68.4649 80.3717 75.3708 79.6359 77.763C78.0561 82.8976 71.5542 95.0719 76.7072 78.0705C76.7072 78.0705 76.2937 76.2935 68.9677 71.4067C65.0323 68.781 74.2633 68.4649 74.2633 68.4649Z" fill="#FF554B"/>
<path d="M28.3566 42.9713C28.3566 42.9713 28.3537 42.9827 28.3452 43.0054C28.3452 43.0111 28.3394 43.0197 28.3366 43.0282C28.3309 43.0453 28.328 43.0624 28.3223 43.0823C28.2967 43.1678 28.2625 43.3102 28.2254 43.4981C28.1512 43.874 28.06 44.4379 28.0372 45.1157C28.0229 45.4546 28.0258 45.8248 28.0543 46.2121C28.0742 46.6022 28.1398 47.0009 28.2197 47.4167C28.3109 47.8239 28.4221 48.2454 28.5818 48.6527C28.656 48.8605 28.7529 49.057 28.8442 49.2621C28.9497 49.4557 29.041 49.6636 29.1664 49.8487L29.3433 50.1364L29.54 50.4098C29.6655 50.5977 29.8195 50.7629 29.9621 50.9366C30.1047 51.1103 30.2729 51.2612 30.4269 51.4236C30.5894 51.5774 30.7606 51.7169 30.926 51.865C31.0999 52.0017 31.2767 52.1298 31.445 52.258C31.6189 52.3833 31.8014 52.4887 31.9754 52.6026C32.1465 52.7193 32.3318 52.8048 32.5029 52.9016C32.674 52.9956 32.8423 53.0895 33.0134 53.1607C33.1817 53.2376 33.3414 53.3117 33.4953 53.3829C33.6493 53.4541 33.8033 53.5025 33.9431 53.5594C34.2254 53.6676 34.4735 53.7673 34.6874 53.8243C35.1094 53.9553 35.349 54.0322 35.349 54.0322L35.0353 55.5273C35.0353 55.5273 34.7644 55.4789 34.2881 55.3991C34.0486 55.3649 33.7606 55.2937 33.4298 55.214C33.2644 55.1713 33.0875 55.14 32.9022 55.083C32.7168 55.026 32.5229 54.9662 32.3233 54.9064C32.118 54.8495 31.9126 54.7697 31.6959 54.6843C31.482 54.5989 31.2539 54.5248 31.0315 54.4138C30.809 54.3084 30.5723 54.2059 30.3413 54.0834C30.1132 53.9553 29.8765 53.8271 29.6398 53.6876C29.4117 53.5338 29.1721 53.3857 28.9412 53.2177C28.7187 53.0383 28.4763 52.8731 28.2596 52.6738C28.0429 52.4744 27.8119 52.2808 27.6123 52.0586L27.3014 51.7283L27.0134 51.378C26.8138 51.1473 26.6512 50.891 26.4716 50.6433C26.309 50.387 26.1436 50.1307 26.0039 49.8658C25.713 49.339 25.482 48.795 25.2853 48.2597C25.1028 47.7214 24.9459 47.1917 24.8461 46.682C24.7406 46.1751 24.6664 45.6881 24.6265 45.241C24.5381 44.3411 24.5524 43.5864 24.5866 43.0482C24.6037 42.7776 24.6265 42.564 24.6465 42.4074C24.6522 42.3675 24.655 42.3334 24.6607 42.302C24.6664 42.265 24.6721 42.2337 24.675 42.2081C24.6807 42.1682 24.6836 42.1483 24.6836 42.1483L28.3594 42.9627L28.3566 42.9713Z" fill="#D64441"/>
<path d="M24.8432 46.6934C24.9031 47.0038 24.9886 47.3227 25.0827 47.6445C26.1179 47.3711 27.1217 46.9667 28.0713 46.4285C28.0656 46.3573 28.0571 46.2861 28.0542 46.2149C28.0257 45.8276 28.0228 45.4603 28.0371 45.1185C28.0599 44.4379 28.1512 43.874 28.2253 43.501C28.2624 43.313 28.2994 43.1706 28.3223 43.0852C28.328 43.0652 28.3337 43.0453 28.3365 43.0311C28.3394 43.0225 28.3422 43.014 28.3451 43.0083C28.3508 42.9855 28.3565 42.9741 28.3565 42.9741L24.6806 42.1596C24.6806 42.1596 24.6778 42.1796 24.6721 42.2194C24.6692 42.2451 24.6635 42.2764 24.6578 42.3134C24.655 42.3448 24.6493 42.3789 24.6436 42.4188C24.6236 42.5754 24.6008 42.7919 24.5837 43.0596C24.5494 43.5978 24.5352 44.3525 24.6236 45.2524C24.6664 45.7023 24.7377 46.1864 24.8432 46.6934Z" fill="#A83535"/>
<path d="M34.6844 53.8328C34.4706 53.773 34.2253 53.6762 33.9402 53.568C33.8004 53.511 33.6436 53.4626 33.4924 53.3914C33.3384 53.3202 33.1787 53.2462 33.0105 53.1693C32.9078 53.1266 32.8052 53.0725 32.6997 53.0183C32.3517 53.5594 32.0409 54.1347 31.7871 54.7299C31.9668 54.7982 32.1436 54.8666 32.3175 54.915C32.52 54.9776 32.7139 55.0374 32.8964 55.0915C33.0789 55.1485 33.2586 55.1827 33.424 55.2225C33.7548 55.3023 34.0428 55.3706 34.2824 55.4077C34.7586 55.4902 35.0295 55.5358 35.0295 55.5358L35.3432 54.0407C35.3432 54.0407 35.1036 53.9638 34.6816 53.8328H34.6844Z" fill="#A83535"/>
<path d="M28.3023 36.4526C28.3023 36.4526 28.3023 33.6504 30.8517 34.4165C33.4011 35.1797 33.1473 41.6755 29.0665 44.0962C24.9857 46.5111 13 45.4944 13 35.1797C13 24.8649 20.7795 21.5529 24.7319 23.5891C28.6844 25.6253 21.9259 30.72 23.711 31.1016C25.4962 31.4832 27.7975 32.0499 25.1141 36.4498C23.3289 39.3802 27.9202 41.5445 28.3023 36.4498V36.4526Z" fill="#FF554B"/>
<path d="M30.8974 34.4307C31.2767 36.7602 30.2586 40.1861 27.5381 41.8008C24.6066 43.538 17.5942 43.5038 13.8784 39.5197C16.713 45.7336 25.656 46.1153 29.0695 44.0933C33.1246 41.6869 33.4012 35.2594 30.9003 34.4307H30.8974Z" fill="#D64441"/>
<path d="M22.1824 26.2632C22.1824 26.2632 21.1615 23.0793 17.209 26.135C13.2537 29.1936 14.5313 37.7256 18.9942 38.1072C23.4571 38.4888 24.6064 32.6309 20.5256 32.2493C16.4448 31.8677 24.478 28.6838 22.1824 26.2632Z" fill="#FF755A"/>
<path d="M84.6435 41.9518C84.6435 41.9518 84.6464 41.9631 84.6549 41.9859C84.6549 41.9916 84.6606 42.0002 84.6635 42.0087C84.6692 42.0258 84.672 42.0429 84.6777 42.0628C84.7034 42.1483 84.7376 42.2906 84.7747 42.4786C84.8488 42.8545 84.9401 43.4184 84.9629 44.0962C84.9772 44.435 84.9743 44.8053 84.9458 45.1926C84.9258 45.5827 84.8602 45.9814 84.7804 46.3972C84.6891 46.8044 84.5779 47.2259 84.4182 47.6331C84.3441 47.841 84.2471 48.0375 84.1559 48.2426C84.0504 48.4362 83.9591 48.6441 83.8336 48.8292L83.6568 49.1168L83.4601 49.3902C83.3346 49.5782 83.1806 49.7434 83.038 49.9171C82.8954 50.0908 82.7272 50.2417 82.5732 50.4041C82.4106 50.5578 82.2395 50.6974 82.0741 50.8455C81.9002 50.9822 81.7234 51.1103 81.5551 51.2385C81.3812 51.3638 81.1986 51.4691 81.0247 51.583C80.8536 51.6998 80.6682 51.7852 80.4971 51.8821C80.326 51.976 80.1578 52.07 79.9867 52.1412C79.8184 52.2181 79.6587 52.2922 79.5047 52.3633C79.3507 52.4345 79.1967 52.483 79.057 52.5399C78.7747 52.6481 78.5266 52.7478 78.3127 52.8048C77.8907 52.9358 77.6511 53.0126 77.6511 53.0126L77.9648 54.5077C77.9648 54.5077 78.2357 54.4593 78.712 54.3796C78.9515 54.3454 79.2395 54.2742 79.5703 54.1945C79.7357 54.1518 79.9125 54.1204 80.0979 54.0635C80.2832 54.0065 80.4772 53.9467 80.6768 53.8869C80.8821 53.83 81.0874 53.7502 81.3042 53.6648C81.518 53.5794 81.7462 53.5053 81.9686 53.3943C82.191 53.2889 82.4277 53.1864 82.6587 53.0639C82.8869 52.9358 83.1236 52.8076 83.3602 52.6681C83.5884 52.5143 83.8279 52.3662 84.0589 52.1982C84.2813 52.0188 84.5237 51.8536 84.7405 51.6542C84.9572 51.4549 85.1882 51.2612 85.3878 51.0391L85.6986 50.7088L85.9867 50.3585C86.1863 50.1278 86.3488 49.8715 86.5285 49.6238C86.691 49.3675 86.8564 49.1111 86.9962 48.8463C87.2871 48.3195 87.518 47.7755 87.7148 47.2401C87.8973 46.7019 88.0542 46.1722 88.154 45.6625C88.2595 45.1555 88.3336 44.6686 88.3736 44.2215C88.462 43.3216 88.4477 42.5669 88.4135 42.0286C88.3964 41.7581 88.3736 41.5445 88.3536 41.3879C88.3479 41.348 88.345 41.3138 88.3393 41.2825C88.3336 41.2455 88.3279 41.2142 88.3251 41.1885C88.3194 41.1487 88.3165 41.1287 88.3165 41.1287L84.6407 41.9432L84.6435 41.9518Z" fill="#D64441"/>
<path d="M88.1566 45.6767C88.0967 45.9871 88.0112 46.3061 87.9171 46.6279C86.8819 46.3545 85.8781 45.9501 84.9285 45.4118C84.9342 45.3406 84.9427 45.2695 84.9456 45.1983C84.9741 44.811 84.977 44.4436 84.9627 44.1019C84.9399 43.4212 84.8486 42.8574 84.7745 42.4843C84.7374 42.2963 84.7003 42.154 84.6775 42.0685C84.6718 42.0486 84.6661 42.0286 84.6633 42.0144C84.6604 42.0059 84.6576 41.9973 84.6547 41.9916C84.649 41.9688 84.6433 41.9575 84.6433 41.9575L88.3192 41.143C88.3192 41.143 88.322 41.1629 88.3277 41.2028C88.3306 41.2284 88.3363 41.2597 88.342 41.2968C88.3448 41.3281 88.3505 41.3623 88.3562 41.4021C88.3762 41.5588 88.399 41.7752 88.4161 42.0429C88.4503 42.5811 88.4646 43.3358 88.3762 44.2357C88.3334 44.6857 88.2621 45.1698 88.1566 45.6767Z" fill="#A83535"/>
<path d="M78.3155 52.8162C78.5294 52.7563 78.7746 52.6595 79.0598 52.5513C79.1995 52.4943 79.3564 52.4459 79.5075 52.3747C79.6615 52.3035 79.8212 52.2295 79.9894 52.1526C80.0921 52.1099 80.1948 52.0558 80.3003 52.0017C80.6482 52.5428 80.959 53.118 81.2128 53.7132C81.0332 53.7816 80.8564 53.8499 80.6824 53.8983C80.4799 53.961 80.286 54.0208 80.1035 54.0749C79.921 54.1318 79.7413 54.166 79.5759 54.2059C79.2451 54.2856 78.9571 54.354 78.7176 54.391C78.2413 54.4736 77.9704 54.5191 77.9704 54.5191L77.6567 53.024C77.6567 53.024 77.8963 52.9471 78.3183 52.8162H78.3155Z" fill="#A83535"/>
<path d="M84.6951 35.4331C84.6951 35.4331 84.6951 32.6309 82.1457 33.3969C79.5963 34.1601 79.8501 40.656 83.9309 43.0766C88.0117 45.4973 99.9974 44.4778 99.9974 34.163C99.9974 23.8482 92.2208 20.5334 88.2683 22.5724C84.3158 24.6086 91.0744 29.7033 89.2892 30.0849C87.504 30.4665 85.2027 31.0333 87.8862 35.4331C89.6714 38.3607 85.0801 40.5279 84.698 35.4331H84.6951Z" fill="#FF554B"/>
<path d="M82.0998 33.414C81.7205 35.7435 82.7385 39.1694 85.4591 40.7842C88.3906 42.5213 95.403 42.4871 99.1188 38.5031C96.2842 44.717 87.3412 45.0986 83.9277 43.0766C79.8726 40.6702 79.596 34.2427 82.0969 33.414H82.0998Z" fill="#D64441"/>
<path d="M90.8176 25.2465C90.8176 25.2465 91.8385 22.0627 95.791 25.1184C99.7434 28.1741 98.4687 36.7061 94.0058 37.0877C89.5429 37.4693 88.3936 31.6114 92.4744 31.2298C96.5552 30.8481 88.5219 27.6643 90.8176 25.2437V25.2465Z" fill="#FF755A"/>
<path d="M45.772 39.4229C45.772 39.4229 49.003 46.3858 49.6817 51.6485L52.4022 51.3097C52.4022 51.3097 48.4925 42.4814 47.8109 37.7256C47.1322 32.9726 45.772 39.4229 45.772 39.4229Z" fill="#D64441"/>
<path d="M48.6095 41.1629C48.2445 39.9156 47.9565 38.7309 47.8139 37.7256C47.1352 32.9726 45.7749 39.4229 45.7749 39.4229C45.7749 39.4229 46.2169 40.3741 46.8072 41.8378C47.4175 41.6613 48.0335 41.4391 48.6124 41.1601L48.6095 41.1629Z" fill="#A83535"/>
<path d="M40.7417 37.9762C39.5382 36.7203 38.9365 35.2423 38.9365 33.5507C38.9365 32.423 39.2474 31.3807 39.8662 30.421C40.485 29.4613 41.3063 28.7123 42.3215 28.1655C43.3396 27.6216 44.4118 27.3482 45.5382 27.3482C47.1951 27.3482 48.5953 27.895 49.7445 28.9828C50.8938 30.0735 51.4669 31.5373 51.4669 33.377C51.4669 35.2167 50.8709 36.7146 49.6875 37.9705C48.5012 39.2321 47.024 39.8615 45.2559 39.8615C43.4879 39.8615 41.9422 39.2321 40.7388 37.9705L40.7417 37.9762Z" fill="white"/>
<path d="M41.0866 37.8367C39.3413 35.9856 38.7368 33.209 39.9317 30.8909C41.1265 28.5727 43.8699 27.1659 46.5048 27.6387C48.8775 28.063 50.6683 29.9739 51.0191 32.3347C51.3841 34.7867 50.4972 37.3525 48.4098 38.7907C46.1284 40.3627 42.9488 39.7618 41.0866 37.8395C40.924 37.6715 40.2254 37.9392 40.3965 38.1158C42.2529 40.0295 45.1617 40.5535 47.637 39.6052C50.1123 38.6568 51.7805 36.128 51.8347 33.4596C51.8632 32.1467 51.5837 30.8368 50.8423 29.7375C50.1009 28.6382 49.0001 27.8551 47.7739 27.4706C45.0875 26.6248 41.9421 27.5504 40.0999 29.6635C39.0476 30.8709 38.4944 32.3917 38.5742 33.995C38.6512 35.5641 39.3242 36.9823 40.3965 38.1158C40.5562 38.2866 41.2577 38.0189 41.0866 37.8395V37.8367Z" fill="#FF554B"/>
<path d="M41.3574 38.5429C42.4468 39.4229 43.7472 39.8643 45.2557 39.8643C47.0238 39.8643 48.501 39.2349 49.6873 37.9734C50.2804 37.344 50.7253 36.6491 51.0219 35.8831C46.3622 35.2879 43.02 37.2329 41.3574 38.5401V38.5429Z" fill="#FF554B"/>
<path d="M48.8918 34.462C48.8918 34.462 48.869 34.4193 48.8234 34.3367C48.7806 34.257 48.7207 34.1317 48.6409 33.9836C48.5582 33.8383 48.4641 33.6703 48.3357 33.4824C48.2759 33.3884 48.2131 33.2887 48.1361 33.1919C48.0648 33.0922 47.9907 32.9868 47.9023 32.8872C47.8595 32.8359 47.8196 32.7847 47.774 32.7305C47.7283 32.6821 47.6798 32.6309 47.6314 32.5796C47.5401 32.4742 47.4317 32.3803 47.3262 32.2834C47.1095 32.0955 46.87 31.9132 46.6105 31.7737C46.351 31.6313 46.0772 31.5174 45.7977 31.4661C45.5183 31.412 45.2359 31.4006 44.9593 31.4462C45.0477 31.4291 44.9821 31.4433 44.9992 31.4376H44.9935L44.985 31.4405H44.9679L44.9337 31.4519L44.8652 31.4661L44.7255 31.4974C44.7055 31.5031 44.6741 31.5088 44.6599 31.5145L44.62 31.5316L44.5401 31.5629C44.4888 31.5772 44.426 31.6085 44.3605 31.6398C44.2977 31.6712 44.2293 31.6968 44.1722 31.7395C43.9241 31.8819 43.7017 32.0784 43.5049 32.2977C43.3025 32.5141 43.1399 32.7619 42.9945 33.0125C42.926 33.1406 42.8548 33.2631 42.8034 33.3912C42.7749 33.4539 42.7464 33.5165 42.7179 33.5792C42.6951 33.6447 42.6722 33.7073 42.6494 33.7671C42.5981 33.8896 42.561 34.0121 42.5268 34.1317C42.4869 34.2484 42.4584 34.3623 42.4327 34.4734C42.3757 34.6898 42.3414 34.8863 42.3101 35.0515C42.2816 35.2167 42.2673 35.3477 42.253 35.4388C42.2388 35.5299 42.2302 35.5812 42.2302 35.5812C42.2302 35.5812 42.2103 35.5356 42.1732 35.4531C42.1418 35.3676 42.0762 35.2423 42.0306 35.0743C41.985 34.9063 41.9194 34.7012 41.888 34.4563C41.8652 34.3339 41.8538 34.2029 41.8481 34.0633C41.8395 33.9238 41.8367 33.7757 41.8481 33.6191C41.851 33.4624 41.8709 33.3001 41.8994 33.1321C41.9194 32.9612 41.9707 32.7932 42.0163 32.6138C42.1247 32.2635 42.273 31.8933 42.5125 31.5459C42.7435 31.1984 43.0401 30.8567 43.4279 30.5975C43.5192 30.5263 43.6219 30.4694 43.7245 30.4124C43.8243 30.3526 43.9298 30.2985 44.0582 30.253L44.2435 30.1846C44.3091 30.1618 44.369 30.139 44.4089 30.1333L44.5458 30.0992L44.6143 30.0821L44.6485 30.0735L44.7283 30.0565C45.2046 29.9853 45.6951 30.0166 46.1399 30.1447C46.5876 30.2643 46.984 30.4865 47.3148 30.7428C47.6513 30.9934 47.9137 31.2924 48.1304 31.5886C48.2331 31.7424 48.3357 31.8847 48.4099 32.0414C48.4926 32.1895 48.5639 32.3375 48.6181 32.4828C48.6779 32.6252 48.7264 32.7676 48.7606 32.9014C48.8006 33.0353 48.8348 33.1634 48.8519 33.2859C48.9032 33.5251 48.9118 33.7472 48.9203 33.9209C48.9317 34.0946 48.9089 34.2285 48.9089 34.3196C48.9004 34.4108 48.8975 34.462 48.8975 34.462H48.8918Z" fill="#161420"/>
<path d="M66.2245 39.2947C66.2245 39.2947 62.9935 46.2576 62.3148 51.5204L59.5942 51.1815C59.5942 51.1815 63.5039 42.3533 64.1855 37.5975C64.8671 32.8416 66.2245 39.2947 66.2245 39.2947Z" fill="#D64441"/>
<path d="M63.3871 41.0348C63.7522 39.7874 64.0402 38.6027 64.1828 37.5975C64.8615 32.8445 66.2217 39.2947 66.2217 39.2947C66.2217 39.2947 65.7797 40.2459 65.1894 41.7097C64.5791 41.5331 63.9632 41.311 63.3843 41.0319L63.3871 41.0348Z" fill="#A83535"/>
<path d="M66.7406 39.739C64.9725 39.739 63.4953 39.1096 62.309 37.8481C61.1227 36.5922 60.5295 35.0601 60.5295 33.2545C60.5295 31.449 61.1027 29.9482 62.252 28.8604C63.4012 27.7725 64.8014 27.2257 66.4583 27.2257C67.5847 27.2257 68.6598 27.4991 69.675 28.0431C70.6902 28.5898 71.5115 29.3388 72.1303 30.2985C72.7491 31.2582 73.06 32.3005 73.06 33.4283C73.06 35.1199 72.4582 36.595 71.2548 37.8538C70.0514 39.1153 68.5457 39.7447 66.7377 39.7447L66.7406 39.739Z" fill="white"/>
<path d="M66.7748 39.4713C64.3138 39.4514 62.155 37.8566 61.3081 35.5556C60.5096 33.3912 60.8147 30.646 62.5258 28.9971C64.4193 27.1716 67.3708 27.0719 69.5923 28.3592C71.8138 29.6464 73.0942 32.2009 72.5552 34.7838C72.2786 36.1137 71.5001 37.3355 70.4564 38.2012C69.4126 39.0669 68.1322 39.4571 66.7777 39.4685C66.3585 39.4713 66.2073 40.0039 66.7092 40.001C69.4269 39.9811 71.9279 38.3778 72.9659 35.8347C73.4792 34.5759 73.5933 33.1207 73.2339 31.805C72.8746 30.4893 71.9849 29.2505 70.8699 28.4047C68.6113 26.6932 65.3318 26.4283 62.9193 27.9747C61.8499 28.661 60.9887 29.6748 60.5552 30.8766C60.1018 32.1382 60.0391 33.5621 60.3157 34.8693C60.6237 36.3273 61.4478 37.6316 62.5885 38.5885C63.7292 39.5454 65.2035 39.9896 66.7092 40.001C67.1284 40.0039 67.2796 39.4713 66.7777 39.4685L66.7748 39.4713Z" fill="#FF554B"/>
<path d="M70.6388 38.4148C69.5495 39.2947 68.2491 39.7362 66.7405 39.7362C64.9725 39.7362 63.4953 39.1068 62.309 37.8452C61.7158 37.2158 61.2709 36.521 60.9744 35.7549C65.6341 35.1597 68.9763 37.1048 70.6388 38.4119V38.4148Z" fill="#FF554B"/>
<path d="M63.1076 34.3367C63.1076 34.3367 63.1047 34.2883 63.0961 34.1943C63.0961 34.1032 63.0733 33.9693 63.0847 33.7956C63.0961 33.6219 63.1018 33.3998 63.1532 33.1606C63.1703 33.0381 63.2045 32.91 63.2444 32.7761C63.2815 32.6394 63.3271 32.4999 63.387 32.3575C63.4412 32.2094 63.5125 32.0642 63.5952 31.9161C63.6693 31.7623 63.772 31.6171 63.8747 31.4633C64.0914 31.1671 64.3537 30.8652 64.6902 30.6175C65.021 30.364 65.4146 30.139 65.8652 30.0194C66.31 29.8913 66.8005 29.86 67.2768 29.9312L67.3566 29.9482L67.3908 29.9568L67.4593 29.9739L67.5961 30.008C67.6361 30.0166 67.6988 30.0365 67.7615 30.0593L67.9469 30.1276C68.0781 30.1732 68.1807 30.2273 68.2806 30.2871C68.3832 30.3441 68.4859 30.401 68.5771 30.4722C68.9621 30.7314 69.2615 31.0731 69.4925 31.4206C69.7292 31.768 69.8804 32.1382 69.9887 32.4885C70.0344 32.6679 70.0857 32.8359 70.1056 33.0068C70.1342 33.1748 70.1541 33.3371 70.157 33.4938C70.1684 33.6504 70.1655 33.7985 70.157 33.938C70.1513 34.0776 70.1399 34.2086 70.1171 34.331C70.0885 34.5759 70.0201 34.7838 69.9745 34.949C69.9288 35.117 69.8633 35.2423 69.8319 35.3277C69.7948 35.4132 69.7748 35.4587 69.7748 35.4587C69.7748 35.4587 69.7663 35.4103 69.752 35.3164C69.7378 35.2252 69.7235 35.0942 69.695 34.9291C69.6636 34.7639 69.6294 34.5674 69.5724 34.351C69.5496 34.2427 69.5182 34.1288 69.4783 34.0092C69.4441 33.8925 69.407 33.7671 69.3556 33.6447C69.3328 33.582 69.31 33.5194 69.2872 33.4567C69.2587 33.3941 69.2302 33.3314 69.2017 33.2688C69.1503 33.1406 69.079 33.0153 69.0106 32.89C68.8652 32.6394 68.7026 32.3917 68.5001 32.1752C68.3034 31.9559 68.0809 31.7594 67.8328 31.6171C67.7758 31.5743 67.7074 31.5487 67.6446 31.5174C67.579 31.4861 67.5163 31.4519 67.465 31.4405L67.3851 31.4092L67.3452 31.3921C67.3309 31.3864 67.3024 31.3807 67.2796 31.375L67.1399 31.3437L67.0714 31.3294L67.0372 31.3209H67.0201L67.0115 31.3152H67.0058C67.0258 31.3152 66.9574 31.3038 67.0458 31.3209C66.7691 31.2753 66.4868 31.2896 66.2074 31.3408C65.9279 31.3949 65.6513 31.506 65.3946 31.6484C65.1323 31.7851 64.8956 31.9673 64.6788 32.1581C64.5733 32.255 64.465 32.3518 64.3737 32.4543C64.3252 32.5056 64.2767 32.554 64.2311 32.6052C64.1883 32.6594 64.1456 32.7106 64.1028 32.7619C64.0144 32.8615 63.9403 32.9669 63.869 33.0666C63.792 33.1634 63.7264 33.2631 63.6693 33.3571C63.5439 33.545 63.4498 33.713 63.3642 33.8583C63.2844 34.0035 63.2245 34.1317 63.1817 34.2114C63.1389 34.294 63.1133 34.3367 63.1133 34.3367H63.1076Z" fill="#161420"/>
<path d="M54.8261 45.4944C54.8261 45.4944 33.5295 45.7479 31.7871 59.4601C30.2757 71.3468 50.2177 77.2475 64.7729 73.8928C80.2463 70.3273 85.8556 62.006 82.117 56.5724C78.3755 51.1388 69.7463 44.2186 54.8261 45.4944Z" fill="#FF554B"/>
<path d="M82.1169 56.5724C81.2756 55.3479 80.1834 54.0521 78.8289 52.7877C81.4695 57.7286 76.4249 65.1529 62.9477 69.08C50.9819 72.5686 34.6302 69.416 31.7129 60.7701C31.7728 71.774 50.768 77.1165 64.7756 73.8899C80.249 70.3245 85.8583 62.0032 82.1197 56.5696L82.1169 56.5724Z" fill="#D64441"/>
<path d="M46.2823 47.9122C46.2823 47.9122 36.5494 50.2901 35.4429 56.2335C34.0941 63.4926 42.3298 64.0451 42.4154 56.5724C42.5123 48.0603 73.02 61.9206 73.1911 53.3886C73.3251 46.5965 54.5722 45.4944 46.2852 47.9122H46.2823Z" fill="#FF755A"/>
<path d="M44.8793 63.9596C44.8793 63.9596 41.6483 64.384 42.7547 61.1574C43.8612 57.9308 48.4496 58.6114 48.3669 61.6671C48.2842 64.7228 44.8821 63.9596 44.8821 63.9596H44.8793Z" fill="#FF755A"/>
<path d="M72.6607 58.1473C72.6607 58.1473 75.4382 59.8502 72.5437 61.6614C69.6492 63.4727 66.5124 60.0553 68.5086 57.7372C70.5019 55.4162 72.6607 58.1501 72.6607 58.1501V58.1473Z" fill="#FF755A"/>
<path d="M44.9649 55.8092C44.9649 55.8092 43.0086 56.4044 43.944 57.5919C44.8793 58.7795 48.0248 56.2335 44.9649 55.8092Z" fill="#FF755A"/>
<path d="M74.5571 52.221C74.5571 52.221 73.3736 52.5798 73.9411 53.3003C74.5058 54.0179 76.4079 52.4801 74.5571 52.221Z" fill="#FF755A"/>
<path d="M39.7803 62.6867C39.7803 62.6867 37.824 63.2819 38.7594 64.4694C39.6948 65.6569 42.8402 63.111 39.7803 62.6867Z" fill="#FF755A"/>
<path d="M74.5799 57.7514C74.5799 57.7514 77.2291 56.6949 75.789 55.1514C74.3489 53.6078 70.2709 57.5207 74.5799 57.7514Z" fill="#FF755A"/>
<path d="M37.8471 59.6224C37.8471 59.6224 40.4193 59.3889 39.5666 57.6774C38.714 55.9658 34.1683 58.3124 37.8471 59.6224Z" fill="#FF554B"/>
<path d="M69.7291 53.5936C69.7291 53.5936 72.3014 53.3601 71.4487 51.6485C70.5961 49.937 66.0504 52.2836 69.7291 53.5936Z" fill="#FF554B"/>
<path d="M36.9058 56.4129C36.9058 56.4129 38.1634 56.299 37.7471 55.4618C37.3307 54.6245 35.1035 55.7722 36.9058 56.4129Z" fill="#FF554B"/>
<path d="M39.3755 53.5566C39.3755 53.5566 39.3726 54.3881 40.0485 54.2458C40.7243 54.1005 40 52.4858 39.3755 53.5566Z" fill="#FF554B"/>
<path d="M67.8982 50.4553C67.8982 50.4553 68.6624 50.7914 68.7993 50.1136C68.939 49.4358 67.1653 49.4529 67.8982 50.4553Z" fill="#FF554B"/>
<path d="M59.0182 50.5578C56.7881 51.7055 55.2311 52.5855 52.348 49.994C49.4621 47.4025 44.9792 49.2393 46.4108 54.653C47.8423 60.0667 62.2406 61.9377 65.4459 55.1371C67.7102 50.33 63.2045 47.3654 59.021 50.5578H59.0182Z" fill="white"/>
<path d="M47.5629 58.6143C49.8985 60.5138 52.8671 60.9068 55.7673 61.0406C57.2131 61.0947 58.6618 61.0378 60.0705 60.7445C61.4764 60.4511 62.8395 59.9214 64.0515 59.0301C63.139 60.2347 61.7388 61.0606 60.273 61.5134C56.4346 62.6867 50.0211 62.1484 47.5601 58.6114L47.5629 58.6143Z" fill="#A83535"/>
</g>
<defs>
<filter id="filter0_d_8_7707" x="0" y="0" width="114" height="117" filterUnits="userSpaceOnUse" color-interpolation-filters="sRGB">
<feFlood flood-opacity="0" result="BackgroundImageFix"/>
<feColorMatrix in="SourceAlpha" type="matrix" values="0 0 0 0 0 0 0 0 0 0 0 0 0 0 0 0 0 0 127 0" result="hardAlpha"/>
<feMorphology radius="2" operator="dilate" in="SourceAlpha" result="effect1_dropShadow_8_7707"/>
<feOffset dy="5"/>
<feComposite in2="hardAlpha" operator="out"/>
<feColorMatrix type="matrix" values="0 0 0 0 0.804167 0 0 0 0 0.678516 0 0 0 0 0.402083 0 0 0 1 0"/>
<feBlend mode="normal" in2="BackgroundImageFix" result="effect1_dropShadow_8_7707"/>
<feBlend mode="normal" in="SourceGraphic" in2="effect1_dropShadow_8_7707" result="shape"/>
</filter>
<clipPath id="clip0_8_7707">
<rect width="87" height="68" fill="white" transform="translate(13 22)"/>
</clipPath>
</defs>
</svg>
