<svg width="588" height="306" viewBox="0 0 588 306" fill="none" xmlns="http://www.w3.org/2000/svg">
<g clip-path="url(#clip0_1_15)">
<path style="mix-blend-mode:multiply" opacity="0.5" d="M368.699 282.474C246.419 287.579 146.341 269.182 145.189 241.328C144.036 213.497 242.209 186.771 364.489 181.666C486.77 176.561 586.848 194.982 588 222.813C589.176 250.644 490.98 277.346 368.699 282.474Z" fill="url(#paint0_radial_1_15)"/>
<path d="M485.288 48.5337C473.011 30.4894 445.328 12.8686 423.783 9.3868L369.099 0.564623C347.555 -2.91719 322.224 10.3749 312.84 30.0895L289.296 79.5172C279.912 99.2318 278.5 132.074 286.168 152.518L305.196 203.239C312.863 223.683 336.948 239.093 358.727 237.469L413.929 233.352C435.708 231.729 464.779 216.531 478.538 199.593L513.089 157.082C526.848 140.143 528.071 111.512 515.794 93.4445L485.288 48.5572V48.5337Z" fill="url(#paint1_radial_1_15)"/>
<path d="M291.742 152.729C284.075 132.286 285.486 99.42 294.87 79.7289L313.028 41.6171C322.412 21.9025 338.312 21.6437 348.331 41.0525L370.84 84.5752C380.859 103.96 379.542 134.944 367.9 153.412L341.487 195.335C329.845 213.802 314.039 212.203 306.372 191.759L291.742 152.753V152.729Z" fill="url(#paint2_radial_1_15)"/>
<path d="M357.386 36.1827C347.367 16.7974 356.798 3.76414 378.343 7.24596L420.796 14.092C442.341 17.5738 470.024 35.1946 482.301 53.2389L505.821 87.8453C518.099 105.89 510.29 119.911 488.487 118.97L437.825 116.782C416.022 115.841 389.962 99.2083 379.942 79.823L357.386 36.2062V36.1827Z" fill="url(#paint3_radial_1_15)"/>
<path d="M376.555 158.917C388.198 140.449 415.575 126.098 437.378 127.039L488.04 129.227C509.843 130.168 516.429 144.801 502.669 161.74L475.951 194.629C462.192 211.567 433.097 226.765 411.341 228.388L368.511 231.588C346.732 233.211 338.453 219.425 350.095 200.957L376.579 158.94L376.555 158.917Z" fill="url(#paint4_radial_1_15)"/>
<path d="M468.683 84.1988C464.826 78.5291 466.519 74.0592 472.164 74.0121C477.621 73.9651 485.053 78.1056 489.051 83.4225C493.214 88.951 492.321 93.915 486.723 94.3149C480.937 94.7384 472.705 90.1038 468.683 84.2223V84.1988Z" fill="url(#paint5_linear_1_15)"/>
<path d="M469.624 80.6464C468.824 79.4937 469.153 78.5526 470.353 78.5291C471.529 78.5291 473.128 79.3996 473.904 80.5288C474.704 81.658 474.422 82.6226 473.222 82.6696C472.023 82.7167 470.4 81.7992 469.624 80.6464Z" fill="white"/>
<path d="M411.882 86.3867C408.707 79.7289 412.564 74.5297 420.091 74.4591C427.358 74.4121 435.802 79.1643 439.354 85.3281C443.07 91.7977 440.247 97.6556 432.65 98.1967C424.724 98.7613 415.222 93.3504 411.882 86.3867Z" fill="url(#paint6_linear_1_15)"/>
<path d="M414.399 82.1991C413.74 80.8582 414.516 79.7524 416.116 79.7289C417.692 79.7054 419.503 80.717 420.185 82.0344C420.867 83.3519 420.138 84.4811 418.538 84.5517C416.916 84.5988 415.057 83.5401 414.399 82.1991Z" fill="white"/>
<path d="M448.291 54.1799C445.187 49.6159 447.233 46.3694 452.595 46.7222C457.793 47.0751 464.473 50.7687 467.742 55.0974C471.106 59.5673 469.718 63.2138 464.355 63.0962C458.828 62.955 451.513 58.9086 448.315 54.1799H448.291Z" fill="url(#paint7_linear_1_15)"/>
<path d="M449.514 51.5685C448.879 50.651 449.279 49.9688 450.408 50.0158C451.537 50.0864 452.948 50.8628 453.583 51.7803C454.242 52.6978 453.842 53.4036 452.737 53.333C451.608 53.2859 450.149 52.4625 449.514 51.545V51.5685Z" fill="white"/>
<path d="M395.301 51.6627C392.831 46.5105 396.735 42.864 403.674 43.3581C410.401 43.8286 417.88 47.9926 420.679 52.8625C423.595 57.9205 420.514 62.0375 413.458 61.8964C406.143 61.7082 397.864 57.0501 395.277 51.6627H395.301Z" fill="url(#paint8_linear_1_15)"/>
<path d="M397.864 48.7455C397.347 47.7103 398.147 46.934 399.605 47.0281C401.063 47.1222 402.662 48.0162 403.18 49.0278C403.721 50.0629 402.968 50.8393 401.486 50.7687C400.005 50.6981 398.358 49.7806 397.841 48.7219L397.864 48.7455Z" fill="white"/>
<path d="M431.733 29.8307C429.193 26.0901 431.427 23.6905 436.531 24.3257C441.494 24.9609 447.539 28.278 450.243 31.8539C453.019 35.5475 451.302 38.2765 446.198 37.806C440.929 37.3119 434.367 33.6889 431.733 29.8307Z" fill="url(#paint9_linear_1_15)"/>
<path d="M433.144 27.9016C432.627 27.1488 433.074 26.6312 434.132 26.7724C435.191 26.89 436.484 27.5958 437.002 28.3486C437.543 29.1014 437.119 29.619 436.037 29.5013C434.955 29.3837 433.662 28.6544 433.121 27.9016H433.144Z" fill="white"/>
<path d="M382.271 24.3963C380.295 20.2792 384.129 17.7149 390.573 18.5383C396.829 19.3382 403.533 23.0553 405.814 26.9841C408.166 31.0776 404.967 34.0183 398.429 33.4066C391.679 32.7714 384.317 28.6779 382.271 24.3963Z" fill="url(#paint10_linear_1_15)"/>
<path d="M384.834 22.326C384.434 21.5026 385.187 20.9615 386.551 21.1262C387.892 21.2909 389.327 22.0907 389.75 22.9141C390.173 23.7375 389.421 24.3022 388.08 24.161C386.716 24.0199 385.258 23.1964 384.834 22.3495V22.326Z" fill="white"/>
<path d="M315.591 156.023C319.025 151.694 323.776 152.8 326.222 158.729C328.739 164.845 327.728 173.479 324.035 177.761C320.413 181.925 315.709 180.184 313.498 174.138C311.358 168.256 312.299 160.258 315.615 156.023H315.591Z" fill="url(#paint11_linear_1_15)"/>
<path d="M318.908 156.635C319.613 155.741 320.578 155.976 321.072 157.199C321.565 158.399 321.354 160.117 320.625 161.011C319.896 161.905 318.931 161.622 318.461 160.422C317.99 159.223 318.179 157.552 318.908 156.658V156.635Z" fill="white"/>
<path d="M296.305 106.242C299.104 101.89 302.867 101.867 304.725 106.407C306.63 111.065 305.76 118.546 302.773 122.922C299.856 127.18 296.117 126.71 294.4 122.052C292.73 117.511 293.577 110.501 296.305 106.242Z" fill="url(#paint12_linear_1_15)"/>
<path d="M298.939 106.078C299.527 105.184 300.28 105.184 300.656 106.101C301.033 107.019 300.844 108.501 300.256 109.418C299.668 110.312 298.892 110.289 298.539 109.348C298.187 108.43 298.351 106.948 298.939 106.078Z" fill="white"/>
<path d="M321.354 106.76C324.835 101.843 329.68 101.82 332.197 106.995C334.784 112.312 333.796 120.828 330.033 125.769C326.364 130.568 321.565 129.956 319.284 124.64C317.073 119.464 317.99 111.559 321.377 106.76H321.354Z" fill="url(#paint13_linear_1_15)"/>
<path d="M324.741 106.595C325.47 105.584 326.458 105.584 326.952 106.642C327.445 107.701 327.257 109.371 326.505 110.407C325.776 111.418 324.788 111.371 324.294 110.336C323.8 109.277 324.012 107.631 324.717 106.619L324.741 106.595Z" fill="white"/>
<path d="M327.022 58.1087C330.55 52.6037 335.489 51.5215 338.077 55.9208C340.734 60.4613 339.746 68.86 335.936 74.4592C332.22 79.8936 327.328 80.3876 324.976 75.7766C322.694 71.3067 323.612 63.4961 327.046 58.1322L327.022 58.1087Z" fill="url(#paint14_linear_1_15)"/>
<path d="M330.48 57.1912C331.209 56.062 332.22 55.8503 332.737 56.7442C333.255 57.6382 333.043 59.3086 332.314 60.4613C331.561 61.5906 330.574 61.7788 330.08 60.8848C329.586 59.9908 329.774 58.344 330.503 57.2148L330.48 57.1912Z" fill="white"/>
<path d="M353.929 107.442C358.421 101.773 364.889 101.773 368.37 107.748C371.992 113.935 370.887 123.84 365.971 129.533C361.173 135.038 354.776 134.215 351.624 128.027C348.566 122.028 349.601 112.971 353.929 107.442Z" fill="url(#paint15_linear_1_15)"/>
<path d="M358.421 107.254C359.362 106.078 360.679 106.101 361.361 107.301C362.043 108.525 361.832 110.477 360.867 111.63C359.927 112.806 358.609 112.736 357.927 111.512C357.269 110.312 357.48 108.383 358.398 107.231L358.421 107.254Z" fill="white"/>
<path d="M378.296 200.44C382.012 193.594 391.302 188.865 398.829 189.924C406.167 190.982 408.872 197.17 405.108 203.686C401.392 210.109 392.643 214.649 385.352 213.92C377.896 213.167 374.65 207.168 378.296 200.463V200.44Z" fill="url(#paint16_linear_1_15)"/>
<path d="M384.811 196.864C385.587 195.476 387.468 194.488 389.021 194.699C390.573 194.911 391.208 196.205 390.432 197.593C389.656 198.981 387.798 199.922 386.245 199.734C384.693 199.546 384.035 198.252 384.811 196.864Z" fill="white"/>
<path d="M462.803 157.129C467.154 150.095 475.974 145.578 482.301 147.13C488.487 148.659 489.804 155.364 485.476 162.069C481.196 168.656 472.87 172.985 466.684 171.785C460.357 170.562 458.546 164.045 462.803 157.105V157.129Z" fill="url(#paint17_linear_1_15)"/>
<path d="M469.012 153.718C469.906 152.282 471.694 151.365 473.011 151.671C474.328 151.977 474.634 153.365 473.74 154.8C472.846 156.211 471.082 157.129 469.765 156.846C468.448 156.564 468.095 155.153 468.989 153.718H469.012Z" fill="white"/>
<path style="mix-blend-mode:multiply" d="M346.755 143.201C339.323 198.793 310.911 240.881 283.298 237.187C255.686 233.493 239.34 185.43 246.772 129.815C254.204 74.2003 282.616 32.1362 310.229 35.8298C337.841 39.5233 354.188 87.5865 346.755 143.201Z" fill="url(#paint18_radial_1_15)"/>
<path style="mix-blend-mode:multiply" opacity="0.5" d="M223.534 305.153C101.254 310.258 1.176 291.837 3.73181e-06 264.006C-1.15248 236.175 97.02 209.45 219.3 204.345C341.581 199.24 441.659 217.661 442.811 245.492C443.987 273.323 345.791 300.024 223.511 305.153H223.534Z" fill="url(#paint19_radial_1_15)"/>
<path d="M200.743 27.4781C179.316 23.2905 147.259 30.2306 129.501 42.911L84.4368 75.1179C66.6792 87.7983 58.0239 115.065 65.1975 135.673L83.2138 187.359C90.3874 207.968 112.496 232.317 132.324 241.469L181.527 264.124C201.355 273.252 229.296 267.253 243.644 250.785L279.982 209.027C294.306 192.559 304.302 161.316 302.161 139.579L296.822 85.0457C294.682 63.3079 275.419 42.1112 253.992 37.9001L200.743 27.4546V27.4781Z" fill="url(#paint20_radial_1_15)"/>
<path d="M136.44 237.728C116.612 228.6 94.5034 204.251 87.3298 183.642L73.4295 143.766C66.2559 123.158 77.3573 111.795 98.1255 118.523L144.719 133.627C165.487 140.355 186.325 163.316 191.053 184.63L201.755 232.999C206.459 254.314 194.111 264.289 174.283 255.161L136.463 237.728H136.44Z" fill="url(#paint21_radial_1_15)"/>
<path d="M101.16 108.689C80.3914 101.961 77.9453 86.0574 95.7029 73.377L130.701 48.3926C148.458 35.7122 180.516 28.7485 201.943 32.9596L242.985 41.0055C264.412 45.1931 268.716 60.6495 252.558 75.3296L215.02 109.418C198.862 124.099 168.638 130.592 147.87 123.863L101.16 108.713V108.689Z" fill="url(#paint22_radial_1_15)"/>
<path d="M201.072 182.443C196.368 161.128 205.729 131.674 221.888 116.994L259.426 82.9049C275.584 68.2248 290.566 74.0121 292.683 95.7264L296.822 137.908C298.939 159.646 288.967 190.888 274.62 207.356L246.419 239.751C232.095 256.219 216.502 252.244 211.774 230.929L201.049 182.419L201.072 182.443Z" fill="url(#paint23_radial_1_15)"/>
<path d="M105.111 90.8096C99.325 88.5981 100.078 83.2578 105.464 79.0467C110.309 75.2826 118.094 73.0476 123.903 73.824C130.512 74.7179 133.217 79.2114 128.584 84.3635C123.245 90.292 111.885 93.3739 105.111 90.7861V90.8096Z" fill="url(#paint24_linear_1_15)"/>
<path d="M104.97 86.4808C103.817 86.1044 103.888 84.9987 105.064 84.0106C106.216 83.0461 108.051 82.552 109.227 82.8579C110.426 83.1637 110.497 84.2459 109.345 85.281C108.145 86.3397 106.169 86.8808 104.97 86.5043V86.4808Z" fill="white"/>
<path d="M162.359 78.0116C156.573 75.8001 157.325 70.4598 162.711 66.2487C167.557 62.4845 175.342 60.2731 181.151 61.0259C187.737 61.9199 190.465 66.4133 185.832 71.5655C180.493 77.494 169.132 80.5524 162.359 77.988V78.0116Z" fill="url(#paint25_linear_1_15)"/>
<path d="M162.217 73.6828C161.065 73.3064 161.136 72.2007 162.312 71.2126C163.464 70.2481 165.299 69.754 166.475 70.0598C167.674 70.3892 167.768 71.4479 166.592 72.483C165.416 73.5417 163.417 74.0828 162.217 73.6828Z" fill="white"/>
<path d="M220.077 65.9428C214.291 63.7314 215.043 58.391 220.429 54.1799C225.275 50.4158 233.06 48.1808 238.869 48.9572C245.455 49.8512 248.183 54.3446 243.55 59.4967C238.211 65.4252 226.85 68.4836 220.077 65.9193V65.9428Z" fill="url(#paint26_linear_1_15)"/>
<path d="M219.936 61.6141C218.783 61.2377 218.83 60.1319 220.03 59.1439C221.182 58.1793 223.017 57.6617 224.193 57.9911C225.392 58.3205 225.463 59.3791 224.31 60.4143C223.111 61.4729 221.135 62.014 219.936 61.6141Z" fill="white"/>
<path d="M120.611 183.595C119.035 176.255 122.68 171.15 129.548 172.985C137.263 175.055 144.742 184.513 145.283 192.959C145.777 200.557 140.25 203.404 133.617 200.299C127.62 197.476 122.045 190.324 120.611 183.595Z" fill="url(#paint27_linear_1_15)"/>
<path d="M122.963 180.372C122.657 178.796 123.433 177.855 124.727 178.255C126.044 178.678 127.361 180.372 127.643 181.972C127.902 183.548 127.055 184.419 125.785 183.948C124.515 183.478 123.292 181.901 122.986 180.349L122.963 180.372Z" fill="white"/>
<path d="M230.731 214.391C228.591 208.203 231.366 198.628 236.917 193.147C242.374 187.736 248.348 188.489 250.3 194.699C252.205 200.816 249.5 210.015 244.232 215.426C238.893 220.884 232.848 220.484 230.731 214.414V214.391Z" fill="url(#paint28_linear_1_15)"/>
<path d="M232.542 207.592C232.119 206.321 232.683 204.369 233.812 203.239C234.941 202.11 236.211 202.251 236.635 203.522C237.058 204.792 236.494 206.721 235.365 207.85C234.236 208.98 232.989 208.862 232.542 207.592Z" fill="white"/>
<path d="M270.809 174.067C269.069 167.857 271.774 158.705 276.807 153.694C281.793 148.777 287.062 149.906 288.661 156.094C290.213 162.21 287.603 171.033 282.781 175.973C277.912 180.96 272.55 180.161 270.809 174.044V174.067Z" fill="url(#paint29_linear_1_15)"/>
<path d="M272.55 167.504C272.197 166.233 272.738 164.351 273.773 163.34C274.808 162.304 275.913 162.516 276.266 163.787C276.619 165.057 276.054 166.915 275.043 167.951C274.008 168.986 272.903 168.774 272.55 167.504Z" fill="white"/>
<path d="M256.862 124.569C254.91 117.629 257.756 107.866 263.165 102.902C268.528 98.0085 274.243 99.7729 276.031 106.689C277.771 113.512 275.019 122.899 269.845 127.816C264.6 132.78 258.791 131.392 256.862 124.569Z" fill="url(#paint30_linear_1_15)"/>
<path d="M258.72 117.582C258.32 116.147 258.908 114.171 260.014 113.136C261.119 112.124 262.319 112.453 262.718 113.865C263.095 115.276 262.53 117.276 261.425 118.288C260.319 119.323 259.12 118.993 258.72 117.558V117.582Z" fill="white"/>
<path d="M213.656 164.869C211.257 157.905 214.173 147.671 220.171 142.213C226.074 136.826 232.589 138.214 234.777 145.178C236.917 152.024 234.071 161.834 228.403 167.245C222.64 172.726 216.031 171.738 213.656 164.869Z" fill="url(#paint31_linear_1_15)"/>
<path d="M215.537 157.599C215.043 156.164 215.655 154.07 216.878 152.941C218.101 151.812 219.465 152.071 219.959 153.506C220.429 154.941 219.841 157.011 218.618 158.117C217.395 159.246 216.031 159.011 215.537 157.576V157.599Z" fill="white"/>
</g>
<defs>
<radialGradient id="paint0_radial_1_15" cx="0" cy="0" r="1" gradientUnits="userSpaceOnUse" gradientTransform="translate(361.944 226.182) rotate(87.6106) scale(50.8467 221.375)">
<stop stop-color="#231F20"/>
<stop offset="0.44" stop-color="#121312" stop-opacity="0"/>
<stop offset="0.51" stop-color="#171716" stop-opacity="0"/>
<stop offset="1" stop-color="#231F20" stop-opacity="0"/>
</radialGradient>
<radialGradient id="paint1_radial_1_15" cx="0" cy="0" r="1" gradientUnits="userSpaceOnUse" gradientTransform="translate(409.503 116.346) rotate(32.4564) scale(257.28 257.307)">
<stop stop-color="white"/>
<stop offset="0.28" stop-color="#E5E5E5"/>
<stop offset="0.46" stop-color="#D1D1D1"/>
<stop offset="0.62" stop-color="#C9C9C9"/>
<stop offset="0.87" stop-color="#B4B4B4"/>
<stop offset="1" stop-color="#A6A6A6"/>
</radialGradient>
<radialGradient id="paint2_radial_1_15" cx="0" cy="0" r="1" gradientUnits="userSpaceOnUse" gradientTransform="translate(129.998 131.306) rotate(32.4564) scale(257.562 257.589)">
<stop stop-color="white"/>
<stop offset="0.28" stop-color="#E5E5E5"/>
<stop offset="0.46" stop-color="#D1D1D1"/>
<stop offset="0.62" stop-color="#C9C9C9"/>
<stop offset="0.87" stop-color="#B4B4B4"/>
<stop offset="1" stop-color="#A6A6A6"/>
</radialGradient>
<radialGradient id="paint3_radial_1_15" cx="0" cy="0" r="1" gradientUnits="userSpaceOnUse" gradientTransform="translate(459.357 17.3574) rotate(32.4564) scale(511.149 511.203)">
<stop stop-color="white"/>
<stop offset="0.28" stop-color="#E5E5E5"/>
<stop offset="0.46" stop-color="#D1D1D1"/>
<stop offset="0.62" stop-color="#C9C9C9"/>
<stop offset="0.87" stop-color="#B4B4B4"/>
<stop offset="1" stop-color="#A6A6A6"/>
</radialGradient>
<radialGradient id="paint4_radial_1_15" cx="0" cy="0" r="1" gradientUnits="userSpaceOnUse" gradientTransform="translate(445.693 234.095) rotate(32.4564) scale(171.849 171.867)">
<stop stop-color="white"/>
<stop offset="0.28" stop-color="#E5E5E5"/>
<stop offset="0.46" stop-color="#D1D1D1"/>
<stop offset="0.62" stop-color="#C9C9C9"/>
<stop offset="0.87" stop-color="#B4B4B4"/>
<stop offset="1" stop-color="#A6A6A6"/>
</radialGradient>
<linearGradient id="paint5_linear_1_15" x1="529.051" y1="26.8062" x2="436.277" y2="133.312" gradientUnits="userSpaceOnUse">
<stop stop-color="#A6A6A6"/>
<stop offset="0.25" stop-color="#6E6E6E"/>
<stop offset="0.49" stop-color="#3F3F3F"/>
<stop offset="0.71" stop-color="#1C1C1C"/>
<stop offset="0.88" stop-color="#070707"/>
<stop offset="1"/>
</linearGradient>
<linearGradient id="paint6_linear_1_15" x1="499.856" y1="1.35231" x2="407.082" y2="107.858" gradientUnits="userSpaceOnUse">
<stop stop-color="#A6A6A6"/>
<stop offset="0.25" stop-color="#6E6E6E"/>
<stop offset="0.49" stop-color="#3F3F3F"/>
<stop offset="0.71" stop-color="#1C1C1C"/>
<stop offset="0.88" stop-color="#070707"/>
<stop offset="1"/>
</linearGradient>
<linearGradient id="paint7_linear_1_15" x1="502.649" y1="3.798" x2="409.876" y2="110.304" gradientUnits="userSpaceOnUse">
<stop stop-color="#A6A6A6"/>
<stop offset="0.25" stop-color="#6E6E6E"/>
<stop offset="0.49" stop-color="#3F3F3F"/>
<stop offset="0.71" stop-color="#1C1C1C"/>
<stop offset="0.88" stop-color="#070707"/>
<stop offset="1"/>
</linearGradient>
<linearGradient id="paint8_linear_1_15" x1="473.076" y1="-21.9806" x2="380.289" y2="84.5452" gradientUnits="userSpaceOnUse">
<stop stop-color="#A6A6A6"/>
<stop offset="0.25" stop-color="#6E6E6E"/>
<stop offset="0.49" stop-color="#3F3F3F"/>
<stop offset="0.71" stop-color="#1C1C1C"/>
<stop offset="0.88" stop-color="#070707"/>
<stop offset="1"/>
</linearGradient>
<linearGradient id="paint9_linear_1_15" x1="481.156" y1="-14.9178" x2="388.375" y2="91.5557" gradientUnits="userSpaceOnUse">
<stop stop-color="#A6A6A6"/>
<stop offset="0.25" stop-color="#6E6E6E"/>
<stop offset="0.49" stop-color="#3F3F3F"/>
<stop offset="0.71" stop-color="#1C1C1C"/>
<stop offset="0.88" stop-color="#070707"/>
<stop offset="1"/>
</linearGradient>
<linearGradient id="paint10_linear_1_15" x1="451.902" y1="-40.4096" x2="359.128" y2="66.0964" gradientUnits="userSpaceOnUse">
<stop stop-color="#A6A6A6"/>
<stop offset="0.25" stop-color="#6E6E6E"/>
<stop offset="0.49" stop-color="#3F3F3F"/>
<stop offset="0.71" stop-color="#1C1C1C"/>
<stop offset="0.88" stop-color="#070707"/>
<stop offset="1"/>
</linearGradient>
<linearGradient id="paint11_linear_1_15" x1="198.195" y1="177.747" x2="409.155" y2="158.732" gradientUnits="userSpaceOnUse">
<stop stop-color="#A6A6A6"/>
<stop offset="0.25" stop-color="#6E6E6E"/>
<stop offset="0.49" stop-color="#3F3F3F"/>
<stop offset="0.71" stop-color="#1C1C1C"/>
<stop offset="0.88" stop-color="#070707"/>
<stop offset="1"/>
</linearGradient>
<linearGradient id="paint12_linear_1_15" x1="193.346" y1="124.035" x2="404.326" y2="105.033" gradientUnits="userSpaceOnUse">
<stop stop-color="#A6A6A6"/>
<stop offset="0.25" stop-color="#6E6E6E"/>
<stop offset="0.49" stop-color="#3F3F3F"/>
<stop offset="0.71" stop-color="#1C1C1C"/>
<stop offset="0.88" stop-color="#070707"/>
<stop offset="1"/>
</linearGradient>
<linearGradient id="paint13_linear_1_15" x1="193.707" y1="128.028" x2="404.667" y2="109.013" gradientUnits="userSpaceOnUse">
<stop stop-color="#A6A6A6"/>
<stop offset="0.25" stop-color="#6E6E6E"/>
<stop offset="0.49" stop-color="#3F3F3F"/>
<stop offset="0.71" stop-color="#1C1C1C"/>
<stop offset="0.88" stop-color="#070707"/>
<stop offset="1"/>
</linearGradient>
<linearGradient id="paint14_linear_1_15" x1="189.291" y1="78.9404" x2="400.251" y2="59.926" gradientUnits="userSpaceOnUse">
<stop stop-color="#A6A6A6"/>
<stop offset="0.25" stop-color="#6E6E6E"/>
<stop offset="0.49" stop-color="#3F3F3F"/>
<stop offset="0.71" stop-color="#1C1C1C"/>
<stop offset="0.88" stop-color="#070707"/>
<stop offset="1"/>
</linearGradient>
<linearGradient id="paint15_linear_1_15" x1="194.198" y1="133.219" x2="405.145" y2="114.224" gradientUnits="userSpaceOnUse">
<stop stop-color="#A6A6A6"/>
<stop offset="0.25" stop-color="#6E6E6E"/>
<stop offset="0.49" stop-color="#3F3F3F"/>
<stop offset="0.71" stop-color="#1C1C1C"/>
<stop offset="0.88" stop-color="#070707"/>
<stop offset="1"/>
</linearGradient>
<linearGradient id="paint16_linear_1_15" x1="439.602" y1="304.184" x2="359.249" y2="132.623" gradientUnits="userSpaceOnUse">
<stop stop-color="#A6A6A6"/>
<stop offset="0.25" stop-color="#6E6E6E"/>
<stop offset="0.49" stop-color="#3F3F3F"/>
<stop offset="0.71" stop-color="#1C1C1C"/>
<stop offset="0.88" stop-color="#070707"/>
<stop offset="1"/>
</linearGradient>
<linearGradient id="paint17_linear_1_15" x1="523.516" y1="264.912" x2="443.136" y2="93.3055" gradientUnits="userSpaceOnUse">
<stop stop-color="#A6A6A6"/>
<stop offset="0.25" stop-color="#6E6E6E"/>
<stop offset="0.49" stop-color="#3F3F3F"/>
<stop offset="0.71" stop-color="#1C1C1C"/>
<stop offset="0.88" stop-color="#070707"/>
<stop offset="1"/>
</linearGradient>
<radialGradient id="paint18_radial_1_15" cx="0" cy="0" r="1" gradientUnits="userSpaceOnUse" gradientTransform="translate(310.747 137.825) rotate(7.62186) scale(50.8345 101.693)">
<stop offset="0.06" stop-color="#56585A"/>
<stop offset="0.44" stop-color="#58595B" stop-opacity="0.2"/>
<stop offset="0.52" stop-color="#58595B" stop-opacity="0.12"/>
<stop offset="0.71" stop-color="#58595B" stop-opacity="0.03"/>
<stop offset="1" stop-color="#58595B" stop-opacity="0"/>
</radialGradient>
<radialGradient id="paint19_radial_1_15" cx="0" cy="0" r="1" gradientUnits="userSpaceOnUse" gradientTransform="translate(216.962 248.964) rotate(87.6106) scale(50.8468 221.375)">
<stop stop-color="#231F20"/>
<stop offset="0.44" stop-color="#121312" stop-opacity="0"/>
<stop offset="0.51" stop-color="#171716" stop-opacity="0"/>
<stop offset="1" stop-color="#231F20" stop-opacity="0"/>
</radialGradient>
<radialGradient id="paint20_radial_1_15" cx="0" cy="0" r="1" gradientUnits="userSpaceOnUse" gradientTransform="translate(186.501 125.986) rotate(-12.2529) scale(292.216 292.281)">
<stop stop-color="white"/>
<stop offset="0.28" stop-color="#E5E5E5"/>
<stop offset="0.46" stop-color="#D1D1D1"/>
<stop offset="0.62" stop-color="#C9C9C9"/>
<stop offset="0.87" stop-color="#B4B4B4"/>
<stop offset="1" stop-color="#A6A6A6"/>
</radialGradient>
<radialGradient id="paint21_radial_1_15" cx="0" cy="0" r="1" gradientUnits="userSpaceOnUse" gradientTransform="translate(29.7507 326.475) rotate(-12.2529) scale(241.671 241.725)">
<stop stop-color="white"/>
<stop offset="0.28" stop-color="#E5E5E5"/>
<stop offset="0.46" stop-color="#D1D1D1"/>
<stop offset="0.62" stop-color="#C9C9C9"/>
<stop offset="0.87" stop-color="#B4B4B4"/>
<stop offset="1" stop-color="#A6A6A6"/>
</radialGradient>
<radialGradient id="paint22_radial_1_15" cx="0" cy="0" r="1" gradientUnits="userSpaceOnUse" gradientTransform="translate(161.874 21.2922) rotate(-12.2529) scale(395.117 395.205)">
<stop stop-color="white"/>
<stop offset="0.28" stop-color="#E5E5E5"/>
<stop offset="0.46" stop-color="#D1D1D1"/>
<stop offset="0.62" stop-color="#C9C9C9"/>
<stop offset="0.87" stop-color="#B4B4B4"/>
<stop offset="1" stop-color="#A6A6A6"/>
</radialGradient>
<radialGradient id="paint23_radial_1_15" cx="0" cy="0" r="1" gradientUnits="userSpaceOnUse" gradientTransform="translate(329.997 206.718) rotate(-12.2529) scale(256.535 256.593)">
<stop stop-color="white"/>
<stop offset="0.28" stop-color="#E5E5E5"/>
<stop offset="0.46" stop-color="#D1D1D1"/>
<stop offset="0.62" stop-color="#C9C9C9"/>
<stop offset="0.87" stop-color="#B4B4B4"/>
<stop offset="1" stop-color="#A6A6A6"/>
</radialGradient>
<linearGradient id="paint24_linear_1_15" x1="112.404" y1="9.38218" x2="117.066" y2="103.029" gradientUnits="userSpaceOnUse">
<stop stop-color="#A6A6A6"/>
<stop offset="0.25" stop-color="#6E6E6E"/>
<stop offset="0.49" stop-color="#3F3F3F"/>
<stop offset="0.71" stop-color="#1C1C1C"/>
<stop offset="0.88" stop-color="#070707"/>
<stop offset="1"/>
</linearGradient>
<linearGradient id="paint25_linear_1_15" x1="170.165" y1="6.49151" x2="174.809" y2="100.166" gradientUnits="userSpaceOnUse">
<stop stop-color="#A6A6A6"/>
<stop offset="0.25" stop-color="#6E6E6E"/>
<stop offset="0.49" stop-color="#3F3F3F"/>
<stop offset="0.71" stop-color="#1C1C1C"/>
<stop offset="0.88" stop-color="#070707"/>
<stop offset="1"/>
</linearGradient>
<linearGradient id="paint26_linear_1_15" x1="228.338" y1="3.6079" x2="232.999" y2="97.2546" gradientUnits="userSpaceOnUse">
<stop stop-color="#A6A6A6"/>
<stop offset="0.25" stop-color="#6E6E6E"/>
<stop offset="0.49" stop-color="#3F3F3F"/>
<stop offset="0.71" stop-color="#1C1C1C"/>
<stop offset="0.88" stop-color="#070707"/>
<stop offset="1"/>
</linearGradient>
<linearGradient id="paint27_linear_1_15" x1="86.8864" y1="250.848" x2="153.4" y2="158.689" gradientUnits="userSpaceOnUse">
<stop stop-color="#A6A6A6"/>
<stop offset="0.25" stop-color="#6E6E6E"/>
<stop offset="0.49" stop-color="#3F3F3F"/>
<stop offset="0.71" stop-color="#1C1C1C"/>
<stop offset="0.88" stop-color="#070707"/>
<stop offset="1"/>
</linearGradient>
<linearGradient id="paint28_linear_1_15" x1="363.592" y1="254.045" x2="155.434" y2="170.128" gradientUnits="userSpaceOnUse">
<stop stop-color="#A6A6A6"/>
<stop offset="0.25" stop-color="#6E6E6E"/>
<stop offset="0.49" stop-color="#3F3F3F"/>
<stop offset="0.71" stop-color="#1C1C1C"/>
<stop offset="0.88" stop-color="#070707"/>
<stop offset="1"/>
</linearGradient>
<linearGradient id="paint29_linear_1_15" x1="382.75" y1="206.479" x2="174.62" y2="122.58" gradientUnits="userSpaceOnUse">
<stop stop-color="#A6A6A6"/>
<stop offset="0.25" stop-color="#6E6E6E"/>
<stop offset="0.49" stop-color="#3F3F3F"/>
<stop offset="0.71" stop-color="#1C1C1C"/>
<stop offset="0.88" stop-color="#070707"/>
<stop offset="1"/>
</linearGradient>
<linearGradient id="paint30_linear_1_15" x1="398.053" y1="168.538" x2="189.895" y2="84.6202" gradientUnits="userSpaceOnUse">
<stop stop-color="#A6A6A6"/>
<stop offset="0.25" stop-color="#6E6E6E"/>
<stop offset="0.49" stop-color="#3F3F3F"/>
<stop offset="0.71" stop-color="#1C1C1C"/>
<stop offset="0.88" stop-color="#070707"/>
<stop offset="1"/>
</linearGradient>
<linearGradient id="paint31_linear_1_15" x1="378.482" y1="217.084" x2="170.323" y2="133.167" gradientUnits="userSpaceOnUse">
<stop stop-color="#A6A6A6"/>
<stop offset="0.25" stop-color="#6E6E6E"/>
<stop offset="0.49" stop-color="#3F3F3F"/>
<stop offset="0.71" stop-color="#1C1C1C"/>
<stop offset="0.88" stop-color="#070707"/>
<stop offset="1"/>
</linearGradient>
<clipPath id="clip0_1_15">
<rect width="588" height="306" fill="white"/>
</clipPath>
</defs>
</svg>
