<svg width="21" height="22" viewBox="0 0 21 22" fill="none" xmlns="http://www.w3.org/2000/svg">
<g filter="url(#filter0_d_8_7827)">
<path d="M20.5349 0.481069C20.3875 0.333407 20.2125 0.216258 20.0198 0.136328C19.8271 0.0563967 19.6205 0.0152535 19.4119 0.0152535C19.2033 0.0152535 18.9967 0.0563967 18.804 0.136328C18.6114 0.216258 18.4363 0.333407 18.289 0.481069L10.5 8.2541L2.71104 0.46514C2.56357 0.317672 2.3885 0.200695 2.19582 0.120886C2.00315 0.0410767 1.79664 1.55382e-09 1.58809 0C1.37954 -1.55383e-09 1.17303 0.0410767 0.980353 0.120886C0.787678 0.200695 0.612608 0.317672 0.46514 0.46514C0.317672 0.612608 0.200695 0.787678 0.120886 0.980353C0.0410767 1.17303 -1.55382e-09 1.37954 0 1.58809C1.55383e-09 1.79664 0.0410767 2.00315 0.120886 2.19582C0.200695 2.3885 0.317672 2.56357 0.46514 2.71104L8.2541 10.5L0.46514 18.289C0.317672 18.4364 0.200695 18.6115 0.120886 18.8042C0.0410767 18.9969 0 19.2034 0 19.4119C0 19.6205 0.0410767 19.827 0.120886 20.0196C0.200695 20.2123 0.317672 20.3874 0.46514 20.5349C0.612608 20.6823 0.787678 20.7993 0.980353 20.8791C1.17303 20.9589 1.37954 21 1.58809 21C1.79664 21 2.00315 20.9589 2.19582 20.8791C2.3885 20.7993 2.56357 20.6823 2.71104 20.5349L10.5 12.7459L18.289 20.5349C18.4364 20.6823 18.6115 20.7993 18.8042 20.8791C18.9969 20.9589 19.2034 21 19.4119 21C19.6205 21 19.827 20.9589 20.0196 20.8791C20.2123 20.7993 20.3874 20.6823 20.5349 20.5349C20.6823 20.3874 20.7993 20.2123 20.8791 20.0196C20.9589 19.827 21 19.6205 21 19.4119C21 19.2034 20.9589 18.9969 20.8791 18.8042C20.7993 18.6115 20.6823 18.4364 20.5349 18.289L12.7459 10.5L20.5349 2.71104C21.1401 2.10576 21.1401 1.08635 20.5349 0.481069Z" fill="#992F2F"/>
</g>
<defs>
<filter id="filter0_d_8_7827" x="0" y="0" width="21" height="22" filterUnits="userSpaceOnUse" color-interpolation-filters="sRGB">
<feFlood flood-opacity="0" result="BackgroundImageFix"/>
<feColorMatrix in="SourceAlpha" type="matrix" values="0 0 0 0 0 0 0 0 0 0 0 0 0 0 0 0 0 0 127 0" result="hardAlpha"/>
<feOffset dy="1"/>
<feComposite in2="hardAlpha" operator="out"/>
<feColorMatrix type="matrix" values="0 0 0 0 1 0 0 0 0 0.458824 0 0 0 0 0.352941 0 0 0 1 0"/>
<feBlend mode="normal" in2="BackgroundImageFix" result="effect1_dropShadow_8_7827"/>
<feBlend mode="normal" in="SourceGraphic" in2="effect1_dropShadow_8_7827" result="shape"/>
</filter>
</defs>
</svg>
