<svg width="114" height="117" viewBox="0 0 114 117" fill="none" xmlns="http://www.w3.org/2000/svg">
<g filter="url(#filter0_d_8_7796)">
<rect x="2" width="110" height="110" rx="20" fill="#A83535"/>
<rect x="2.5" y="0.5" width="109" height="109" rx="19.5" stroke="#CC5856"/>
</g>
<g clip-path="url(#clip0_8_7796)">
<path d="M59.0499 13.09L59.1199 13.34C59.0999 13.61 59.0699 13.88 59.0299 14.15C58.7199 16.38 58.0399 18.7 56.8899 21.43C55.9099 23.72 54.6499 26.13 53.0599 28.72C51.6999 30.96 50.1799 33.16 48.5599 35.27C48.5599 35.27 48.5199 35.32 48.5299 35.32L48.5099 35.36C47.8999 36.13 47.2699 36.91 46.6299 37.68C46.2699 38.11 45.8999 38.54 45.5399 38.97C45.1699 39.4 44.7999 39.83 44.4399 40.27C42.7499 42.29 41.3299 44.11 40.0999 45.83C37.1499 49.96 35.0799 53.81 33.7899 57.62C32.2999 61.98 31.7399 66.67 32.1099 71.56C32.2799 73.77 32.5799 75.89 33.0099 77.86C33.4199 79.76 34.0199 81.63 34.7699 83.39C35.4999 85.1 36.4299 86.69 37.5199 88.11C38.6599 89.6 39.9999 90.94 41.4899 92.09C43.0399 93.29 44.8299 94.36 46.8199 95.26C47.9799 95.78 49.0499 96.19 50.0899 96.48C51.1099 96.77 52.2399 96.99 53.5399 97.13C54.3099 97.22 55.1199 97.26 55.9299 97.26C57.3799 97.26 58.9299 97.12 60.5299 96.84C62.7199 96.46 64.9999 95.75 67.3199 94.73C69.4399 93.8 71.4699 92.61 73.3799 91.2C75.3199 89.76 76.9099 88.28 78.2299 86.68C78.8799 85.9 79.4599 85.09 79.9599 84.27C80.3999 83.56 80.7999 82.77 81.2099 81.79C81.8399 80.28 82.2399 78.61 82.3899 76.82C82.5199 75.28 82.4299 73.62 82.0999 71.75C81.8299 70.21 81.3699 68.58 80.6899 66.77C79.2499 62.98 77.2699 59.55 75.5199 56.7C74.3399 54.77 73.0799 52.84 71.8599 50.98C70.9999 49.66 70.1399 48.35 69.2999 47.02C67.6099 44.35 65.8499 41.44 64.5299 38.35C64.1499 37.43 63.8199 36.48 63.5499 35.53C63.0199 33.69 62.7299 31.83 62.5099 30.26C62.4199 29.59 62.3399 28.9 62.2699 28.21C62.1899 27.72 62.1099 27.24 62.0299 26.75C61.7199 24.75 61.4499 22.75 61.1099 20.76C60.8399 19.21 60.5299 17.66 60.0999 16.14C59.8799 15.36 59.6399 14.59 59.3599 13.83C59.2599 13.55 59.1499 13.27 59.0399 12.99C59.0399 13.02 59.0399 13.05 59.0499 13.08" fill="#F55308"/>
<path d="M54.4499 41.61C53.9499 42.54 53.5099 43.5 53.0899 44.47C53.0899 44.47 53.0899 44.47 53.0899 44.46C52.0599 46.9 51.2599 49.41 50.3799 51.91C49.5299 54.31 48.6199 56.69 47.3899 58.92C47.2899 59.09 47.0199 59.05 46.9699 58.87C46.9099 58.62 46.8199 58.39 46.7199 58.15C46.7199 58.17 46.7299 58.19 46.7399 58.21C46.3799 57.4 45.9199 56.65 45.4999 55.89C45.2099 55.36 44.9199 54.82 44.7199 54.24C44.1999 54.96 43.7599 55.72 43.3499 56.51C42.7799 57.6 42.2699 58.72 41.7899 59.86C41.7899 59.84 41.7999 59.82 41.8099 59.81C40.5899 62.7 39.5599 65.67 38.5999 68.66C38.1699 69.98 37.7599 71.3 37.3599 72.62C37.2699 72.91 37.1799 73.19 37.0999 73.47C36.9999 73.81 36.8899 74.15 36.7999 74.49C36.6099 75.23 36.4599 75.98 36.3499 76.73C36.2499 77.52 36.1899 78.32 36.1899 79.13C36.1899 79.89 36.2499 80.65 36.3499 81.4C36.3499 81.38 36.3499 81.36 36.3399 81.34C36.4599 82.17 36.6199 82.99 36.8499 83.79C37.0799 84.59 37.3599 85.38 37.6799 86.14C38.0399 86.96 38.4399 87.76 38.8999 88.54C39.3699 89.32 39.8799 90.07 40.4299 90.8C40.4299 90.8 40.4299 90.8 40.4199 90.79C40.4199 90.79 40.4199 90.79 40.4299 90.8C40.4299 90.8 40.4299 90.8 40.4299 90.81C40.4299 90.81 40.4299 90.82 40.4399 90.83C40.8099 91.3 41.1999 91.76 41.5999 92.21C43.1099 93.37 44.8599 94.4 46.7999 95.29C47.9599 95.82 49.0299 96.22 50.0699 96.51C51.0999 96.8 52.2299 97.02 53.5199 97.17C54.2899 97.25 55.0999 97.3 55.9099 97.3C57.3499 97.3 58.8999 97.16 60.5099 96.88C62.6899 96.5 64.9799 95.79 67.2999 94.77C69.4099 93.84 71.4499 92.65 73.3599 91.24C75.3099 89.79 76.8899 88.31 78.2099 86.72C78.8699 85.92 79.4499 85.11 79.9399 84.31C80.0099 84.2 80.0699 84.1 80.1299 83.99C80.1499 83.88 80.1599 83.78 80.1799 83.67C80.1799 83.69 80.1799 83.71 80.1799 83.73C80.2799 82.98 80.3299 82.23 80.3299 81.47C80.3299 80.78 80.2799 80.09 80.1899 79.4C80.1899 79.39 80.1899 79.38 80.1899 79.37C80.1899 79.37 80.1899 79.37 80.1899 79.35C80.1899 79.35 80.1899 79.36 80.1899 79.37C80.1899 79.37 80.1899 79.35 80.1899 79.34C80.0699 78.47 79.8799 77.59 79.6399 76.74C79.3899 75.88 79.0899 75.04 78.7499 74.22C78.7499 74.24 78.7599 74.25 78.7699 74.27C77.4199 71.08 75.4599 68.19 73.3499 65.45C70.4599 61.71 67.2599 58.24 64.2799 54.59C63.2699 53.35 62.2699 52.09 61.3299 50.8C60.4199 49.55 59.5499 48.26 58.7699 46.92C58.0299 45.65 57.3699 44.34 56.8399 42.97C56.3899 41.81 56.0299 40.62 55.7899 39.39C55.2999 40.12 54.8499 40.87 54.4399 41.63M53.1099 44.43C53.1099 44.43 53.0999 44.46 53.0899 44.48C53.0899 44.47 53.0999 44.45 53.1099 44.43Z" fill="#F8781F"/>
<path d="M40.46 90.84C40.46 90.84 40.46 90.84 40.46 90.83C40.46 90.83 40.46 90.84 40.47 90.85" fill="#F8781F"/>
<path d="M56.8901 59.82C56.8901 59.82 56.9301 59.82 56.9501 59.81C56.7201 59.84 56.4901 59.88 56.2701 59.95C56.0701 60.01 55.8701 60.07 55.6801 60.15H55.6701C55.6701 60.15 55.6701 60.15 55.6801 60.15C55.6801 60.15 55.7001 60.15 55.7101 60.14C55.5301 60.22 55.3501 60.3 55.1801 60.4C55.0201 60.5 54.8701 60.6 54.7201 60.71C54.3901 60.98 54.0901 61.28 53.8201 61.61C53.8201 61.61 53.8101 61.62 53.8101 61.63C53.8101 61.63 53.8101 61.62 53.8201 61.61C53.8201 61.62 53.8101 61.63 53.8001 61.64C53.1801 62.47 52.7301 63.4 52.3001 64.33C51.8401 65.32 51.3901 66.32 50.7701 67.22C50.3901 67.78 49.9501 68.3 49.4501 68.77C48.9801 69.21 48.4901 69.62 47.9701 70.01C46.9401 70.78 45.8501 71.45 44.8201 72.22C44.8201 72.22 44.8201 72.22 44.8101 72.23C44.8101 72.23 44.7901 72.24 44.7901 72.25C44.2901 72.64 43.8201 73.05 43.4201 73.55C42.9301 74.2 42.5201 74.91 42.1901 75.66C42.1901 75.66 42.1901 75.67 42.1901 75.68V75.69C42.1901 75.69 42.1901 75.7 42.1901 75.71C42.1901 75.71 42.1901 75.71 42.1901 75.7C41.9801 76.21 41.8101 76.72 41.6701 77.25C41.5401 77.76 41.4401 78.27 41.3701 78.78C41.3701 78.78 41.3701 78.8 41.3701 78.81C41.3701 78.81 41.3701 78.81 41.3701 78.82C41.2001 80.22 41.2301 81.62 41.4001 83.01V83.03C41.6601 84.92 42.1901 86.76 42.9201 88.51C42.9201 88.49 42.9001 88.47 42.9001 88.46C43.6601 90.27 44.6401 91.98 45.8401 93.54C46.4301 94.31 47.0801 95.03 47.7701 95.7C48.5801 96.03 49.3501 96.3 50.1001 96.52C51.1501 96.82 52.2801 97.03 53.5601 97.18C54.3701 97.26 55.1701 97.31 55.9501 97.31C57.3901 97.31 58.9401 97.17 60.5501 96.89C62.7501 96.5 65.0401 95.79 67.3501 94.78C69.2501 93.95 71.1001 92.9 72.8601 91.65C72.8801 91.62 72.9001 91.58 72.9201 91.55C73.1901 91.07 73.4401 90.59 73.6601 90.08C73.6601 90.1 73.6501 90.11 73.6401 90.13C73.8801 89.56 74.0801 88.98 74.2401 88.38C74.4001 87.79 74.5101 87.19 74.6001 86.58C74.6001 86.58 74.6001 86.57 74.6001 86.56V86.58C74.6901 85.87 74.7301 85.14 74.7301 84.41C74.7201 83.67 74.6601 82.93 74.5701 82.19C74.2801 80.08 73.6701 78.03 72.8501 76.06C72.8501 76.08 72.8601 76.09 72.8701 76.11C72.1801 74.49 71.3601 72.93 70.4201 71.43C69.5001 69.96 68.5201 68.55 67.4601 67.18C66.6601 66.15 65.8201 65.14 64.9201 64.19C64.0901 63.32 63.2201 62.49 62.2801 61.74C62.2801 61.74 62.2801 61.74 62.3001 61.74L62.2801 61.73C62.2701 61.73 62.2601 61.71 62.2501 61.71C62.2501 61.71 62.2501 61.71 62.2601 61.71C62.2601 61.71 62.2601 61.71 62.2501 61.7C61.4801 61.11 60.6701 60.59 59.7801 60.2C59.7801 60.2 59.7801 60.2 59.7901 60.2C59.2801 59.99 58.7601 59.83 58.2101 59.75C58.2301 59.75 58.2501 59.75 58.2701 59.76C58.0901 59.73 57.8901 59.72 57.7101 59.72C57.4501 59.72 57.1901 59.74 56.9301 59.78" fill="#FAA032"/>
<path d="M42.1699 75.69V75.68C42.1699 75.68 42.1699 75.67 42.1699 75.66C42.1699 75.67 42.1699 75.68 42.1599 75.69" fill="#FAA032"/>
<path d="M53.2201 84.34C53.2201 84.34 53.2601 84.34 53.2801 84.33C52.6501 84.42 52.0401 84.57 51.4501 84.81C51.4601 84.81 51.4801 84.8 51.4901 84.79C51.1001 84.96 50.7301 85.17 50.3801 85.43C50.3901 85.42 50.4101 85.41 50.4201 85.39C50.1201 85.63 49.8401 85.9 49.6101 86.2C49.3901 86.5 49.2101 86.82 49.0601 87.16C49.0601 87.14 49.0801 87.12 49.0801 87.11C48.9101 87.52 48.8001 87.94 48.7401 88.37C48.7401 88.38 48.7401 88.4 48.7401 88.41C48.6801 88.97 48.6901 89.53 48.7601 90.09C48.8801 90.91 49.1101 91.71 49.4401 92.48C49.4401 92.46 49.4301 92.44 49.4201 92.43C49.8201 93.38 50.3501 94.27 50.9801 95.09C51.5601 95.84 52.2301 96.52 52.9601 97.13C53.1501 97.16 53.3401 97.18 53.5301 97.2C54.3801 97.29 55.1801 97.33 55.9301 97.33C57.3601 97.33 58.9001 97.19 60.5301 96.91C62.7401 96.52 65.0301 95.8 67.3301 94.79C68.2201 94.4 69.0901 93.96 69.9601 93.48C69.5601 92.82 69.1201 92.19 68.6501 91.58C68.6501 91.58 68.6301 91.56 68.6301 91.55C68.6301 91.55 68.6301 91.55 68.6301 91.56C68.6301 91.56 68.6301 91.55 68.6201 91.54C68.0901 90.86 67.5201 90.21 66.9101 89.61C66.3301 89.03 65.7101 88.49 65.0701 87.99C65.0701 87.99 65.0501 87.98 65.0401 87.97C65.0401 87.97 65.0401 87.97 65.0501 87.97C65.0501 87.97 65.0501 87.97 65.0401 87.97C65.0401 87.97 65.0301 87.97 65.0301 87.96C64.4101 87.49 63.7601 87.05 63.0901 86.66C62.4001 86.27 61.7001 85.91 60.9801 85.61C60.2601 85.31 59.5301 85.06 58.7801 84.85C58.0101 84.64 57.2301 84.49 56.4401 84.38C56.4601 84.38 56.4801 84.38 56.5001 84.39C55.8601 84.31 55.2201 84.26 54.5801 84.26C54.1201 84.26 53.6701 84.29 53.2101 84.34M51.4401 84.81C51.4401 84.81 51.4401 84.81 51.4301 84.81C51.4301 84.81 51.4301 84.81 51.4401 84.81Z" fill="#FBB45E"/>
</g>
<defs>
<filter id="filter0_d_8_7796" x="0" y="0" width="114" height="117" filterUnits="userSpaceOnUse" color-interpolation-filters="sRGB">
<feFlood flood-opacity="0" result="BackgroundImageFix"/>
<feColorMatrix in="SourceAlpha" type="matrix" values="0 0 0 0 0 0 0 0 0 0 0 0 0 0 0 0 0 0 127 0" result="hardAlpha"/>
<feMorphology radius="2" operator="dilate" in="SourceAlpha" result="effect1_dropShadow_8_7796"/>
<feOffset dy="5"/>
<feComposite in2="hardAlpha" operator="out"/>
<feColorMatrix type="matrix" values="0 0 0 0 0.5875 0 0 0 0 0.208517 0 0 0 0 0.200729 0 0 0 1 0"/>
<feBlend mode="normal" in2="BackgroundImageFix" result="effect1_dropShadow_8_7796"/>
<feBlend mode="normal" in="SourceGraphic" in2="effect1_dropShadow_8_7796" result="shape"/>
</filter>
<clipPath id="clip0_8_7796">
<rect width="50.45" height="84.34" fill="white" transform="translate(32 13)"/>
</clipPath>
</defs>
</svg>
