<svg width="51" height="85" viewBox="0 0 51 85" fill="none" xmlns="http://www.w3.org/2000/svg">
<g clip-path="url(#clip0_8_3331)">
<path d="M27.05 0.0900017L27.12 0.340002C27.1 0.610002 27.07 0.880002 27.03 1.15C26.72 3.38 26.04 5.7 24.89 8.43C23.91 10.72 22.65 13.13 21.06 15.72C19.7 17.96 18.18 20.16 16.56 22.27C16.56 22.27 16.52 22.32 16.53 22.32L16.51 22.36C15.9 23.13 15.27 23.91 14.63 24.68C14.27 25.11 13.9 25.54 13.54 25.97C13.17 26.4 12.8 26.83 12.44 27.27C10.75 29.29 9.33004 31.11 8.10004 32.83C5.15004 36.96 3.08004 40.81 1.79004 44.62C0.300037 48.98 -0.259963 53.67 0.110037 58.56C0.280037 60.77 0.580037 62.89 1.01004 64.86C1.42004 66.76 2.02004 68.63 2.77004 70.39C3.50004 72.1 4.43004 73.69 5.52004 75.11C6.66004 76.6 8.00004 77.94 9.49004 79.09C11.04 80.29 12.83 81.36 14.82 82.26C15.98 82.78 17.05 83.19 18.09 83.48C19.11 83.77 20.24 83.99 21.54 84.13C22.31 84.22 23.12 84.26 23.93 84.26C25.38 84.26 26.93 84.12 28.53 83.84C30.72 83.46 33 82.75 35.32 81.73C37.44 80.8 39.47 79.61 41.38 78.2C43.32 76.76 44.91 75.28 46.23 73.68C46.88 72.9 47.46 72.09 47.96 71.27C48.4 70.56 48.8 69.77 49.21 68.79C49.84 67.28 50.24 65.61 50.39 63.82C50.52 62.28 50.43 60.62 50.1 58.75C49.83 57.21 49.37 55.58 48.69 53.77C47.25 49.98 45.27 46.55 43.52 43.7C42.34 41.77 41.08 39.84 39.86 37.98C39 36.66 38.14 35.35 37.3 34.02C35.61 31.35 33.85 28.44 32.53 25.35C32.15 24.43 31.82 23.48 31.55 22.53C31.02 20.69 30.73 18.83 30.51 17.26C30.42 16.59 30.34 15.9 30.27 15.21C30.19 14.72 30.11 14.24 30.03 13.75C29.72 11.75 29.45 9.75 29.11 7.76C28.84 6.21 28.53 4.66 28.1 3.14C27.88 2.36 27.64 1.59 27.36 0.830002C27.26 0.550002 27.15 0.270002 27.04 -0.00999832C27.04 0.0200017 27.04 0.0500017 27.05 0.0800017" fill="#F55308"/>
<path d="M22.4499 28.61C21.9499 29.54 21.5099 30.5 21.0899 31.47C21.0899 31.47 21.0899 31.47 21.0899 31.46C20.0599 33.9 19.2599 36.41 18.3799 38.91C17.5299 41.31 16.6199 43.69 15.3899 45.92C15.2899 46.09 15.0199 46.05 14.9699 45.87C14.9099 45.62 14.8199 45.39 14.7199 45.15C14.7199 45.17 14.7299 45.19 14.7399 45.21C14.3799 44.4 13.9199 43.65 13.4999 42.89C13.2099 42.36 12.9199 41.82 12.7199 41.24C12.1999 41.96 11.7599 42.72 11.3499 43.51C10.7799 44.6 10.2699 45.72 9.78994 46.86C9.78994 46.84 9.79994 46.82 9.80994 46.81C8.58994 49.7 7.55994 52.67 6.59994 55.66C6.16994 56.98 5.75994 58.3 5.35994 59.62C5.26994 59.91 5.17994 60.19 5.09994 60.47C4.99994 60.81 4.88994 61.15 4.79994 61.49C4.60994 62.23 4.45994 62.98 4.34994 63.73C4.24994 64.52 4.18994 65.32 4.18994 66.13C4.18994 66.89 4.24994 67.65 4.34994 68.4C4.34994 68.38 4.34994 68.36 4.33994 68.34C4.45994 69.17 4.61994 69.99 4.84994 70.79C5.07994 71.59 5.35994 72.38 5.67994 73.14C6.03994 73.96 6.43994 74.76 6.89994 75.54C7.36994 76.32 7.87994 77.07 8.42994 77.8C8.42994 77.8 8.42994 77.8 8.41994 77.79C8.41994 77.79 8.41994 77.79 8.42994 77.8C8.42994 77.8 8.42994 77.8 8.42994 77.81C8.42994 77.81 8.42994 77.82 8.43994 77.83C8.80994 78.3 9.19994 78.76 9.59994 79.21C11.1099 80.37 12.8599 81.4 14.7999 82.29C15.9599 82.82 17.0299 83.22 18.0699 83.51C19.0999 83.8 20.2299 84.02 21.5199 84.17C22.2899 84.25 23.0999 84.3 23.9099 84.3C25.3499 84.3 26.8999 84.16 28.5099 83.88C30.6899 83.5 32.9799 82.79 35.2999 81.77C37.4099 80.84 39.4499 79.65 41.3599 78.24C43.3099 76.79 44.8899 75.31 46.2099 73.72C46.8699 72.92 47.4499 72.11 47.9399 71.31C48.0099 71.2 48.0699 71.1 48.1299 70.99C48.1499 70.88 48.1599 70.78 48.1799 70.67C48.1799 70.69 48.1799 70.71 48.1799 70.73C48.2799 69.98 48.3299 69.23 48.3299 68.47C48.3299 67.78 48.2799 67.09 48.1899 66.4C48.1899 66.39 48.1899 66.38 48.1899 66.37C48.1899 66.37 48.1899 66.37 48.1899 66.35C48.1899 66.35 48.1899 66.36 48.1899 66.37C48.1899 66.37 48.1899 66.35 48.1899 66.34C48.0699 65.47 47.8799 64.59 47.6399 63.74C47.3899 62.88 47.0899 62.04 46.7499 61.22C46.7499 61.24 46.7599 61.25 46.7699 61.27C45.4199 58.08 43.4599 55.19 41.3499 52.45C38.4599 48.71 35.2599 45.24 32.2799 41.59C31.2699 40.35 30.2699 39.09 29.3299 37.8C28.4199 36.55 27.5499 35.26 26.7699 33.92C26.0299 32.65 25.3699 31.34 24.8399 29.97C24.3899 28.81 24.0299 27.62 23.7899 26.39C23.2999 27.12 22.8499 27.87 22.4399 28.63M21.1099 31.43C21.1099 31.43 21.0999 31.46 21.0899 31.48C21.0899 31.47 21.0999 31.45 21.1099 31.43Z" fill="#F8781F"/>
<path d="M8.45996 77.84C8.45996 77.84 8.45996 77.84 8.45996 77.83C8.45996 77.83 8.45996 77.84 8.46996 77.85" fill="#F8781F"/>
<path d="M24.89 46.82C24.89 46.82 24.93 46.82 24.95 46.81C24.72 46.84 24.49 46.88 24.27 46.95C24.07 47.01 23.87 47.07 23.68 47.15H23.67C23.67 47.15 23.67 47.15 23.68 47.15C23.68 47.15 23.7 47.15 23.71 47.14C23.53 47.22 23.35 47.3 23.18 47.4C23.02 47.5 22.87 47.6 22.72 47.71C22.39 47.98 22.09 48.28 21.82 48.61C21.82 48.61 21.81 48.62 21.81 48.63C21.81 48.63 21.81 48.62 21.82 48.61C21.82 48.62 21.81 48.63 21.8 48.64C21.18 49.47 20.73 50.4 20.3 51.33C19.84 52.32 19.39 53.32 18.77 54.22C18.39 54.78 17.95 55.3 17.45 55.77C16.98 56.21 16.49 56.62 15.97 57.01C14.94 57.78 13.85 58.45 12.82 59.22C12.82 59.22 12.82 59.22 12.81 59.23C12.81 59.23 12.79 59.24 12.79 59.25C12.29 59.64 11.82 60.05 11.42 60.55C10.93 61.2 10.52 61.91 10.19 62.66C10.19 62.66 10.19 62.67 10.19 62.68V62.69C10.19 62.69 10.19 62.7 10.19 62.71C10.19 62.71 10.19 62.71 10.19 62.7C9.97996 63.21 9.80996 63.72 9.66996 64.25C9.53996 64.76 9.43996 65.27 9.36996 65.78C9.36996 65.78 9.36996 65.8 9.36996 65.81C9.36996 65.81 9.36996 65.81 9.36996 65.82C9.19996 67.22 9.22996 68.62 9.39996 70.01V70.03C9.65996 71.92 10.19 73.76 10.92 75.51C10.92 75.49 10.9 75.47 10.9 75.46C11.66 77.27 12.64 78.98 13.84 80.54C14.43 81.31 15.08 82.03 15.77 82.7C16.58 83.03 17.35 83.3 18.1 83.52C19.15 83.82 20.28 84.03 21.56 84.18C22.37 84.26 23.17 84.31 23.95 84.31C25.39 84.31 26.94 84.17 28.55 83.89C30.75 83.5 33.04 82.79 35.35 81.78C37.25 80.95 39.1 79.9 40.86 78.65C40.88 78.62 40.9 78.58 40.92 78.55C41.19 78.07 41.44 77.59 41.66 77.08C41.66 77.1 41.65 77.11 41.64 77.13C41.88 76.56 42.08 75.98 42.24 75.38C42.4 74.79 42.51 74.19 42.6 73.58C42.6 73.58 42.6 73.57 42.6 73.56V73.58C42.69 72.87 42.73 72.14 42.73 71.41C42.72 70.67 42.66 69.93 42.57 69.19C42.28 67.08 41.67 65.03 40.85 63.06C40.85 63.08 40.86 63.09 40.87 63.11C40.18 61.49 39.36 59.93 38.42 58.43C37.5 56.96 36.52 55.55 35.46 54.18C34.66 53.15 33.82 52.14 32.92 51.19C32.09 50.32 31.22 49.49 30.28 48.74C30.28 48.74 30.28 48.74 30.3 48.74L30.28 48.73C30.27 48.73 30.26 48.71 30.25 48.71C30.25 48.71 30.25 48.71 30.26 48.71C30.26 48.71 30.26 48.71 30.25 48.7C29.48 48.11 28.67 47.59 27.78 47.2C27.78 47.2 27.78 47.2 27.79 47.2C27.28 46.99 26.76 46.83 26.21 46.75C26.23 46.75 26.25 46.75 26.27 46.76C26.09 46.73 25.89 46.72 25.71 46.72C25.45 46.72 25.19 46.74 24.93 46.78" fill="#FAA032"/>
<path d="M10.17 62.69V62.68C10.17 62.68 10.17 62.67 10.17 62.66C10.17 62.67 10.17 62.68 10.16 62.69" fill="#FAA032"/>
<path d="M21.22 71.34C21.22 71.34 21.26 71.34 21.28 71.33C20.65 71.42 20.04 71.57 19.45 71.81C19.46 71.81 19.48 71.8 19.49 71.79C19.1 71.96 18.73 72.17 18.38 72.43C18.39 72.42 18.41 72.41 18.42 72.39C18.12 72.63 17.84 72.9 17.61 73.2C17.39 73.5 17.21 73.82 17.06 74.16C17.06 74.14 17.08 74.12 17.08 74.11C16.91 74.52 16.8 74.94 16.74 75.37C16.74 75.38 16.74 75.4 16.74 75.41C16.68 75.97 16.69 76.53 16.76 77.09C16.88 77.91 17.11 78.71 17.44 79.48C17.44 79.46 17.43 79.44 17.42 79.43C17.82 80.38 18.35 81.27 18.98 82.09C19.56 82.84 20.23 83.52 20.96 84.13C21.15 84.16 21.34 84.18 21.53 84.2C22.38 84.29 23.18 84.33 23.93 84.33C25.36 84.33 26.9 84.19 28.53 83.91C30.74 83.52 33.03 82.8 35.33 81.79C36.22 81.4 37.09 80.96 37.96 80.48C37.56 79.82 37.12 79.19 36.65 78.58C36.65 78.58 36.63 78.56 36.63 78.55C36.63 78.55 36.63 78.55 36.63 78.56C36.63 78.56 36.63 78.55 36.62 78.54C36.09 77.86 35.52 77.21 34.91 76.61C34.33 76.03 33.71 75.49 33.07 74.99C33.07 74.99 33.05 74.98 33.04 74.97C33.04 74.97 33.04 74.97 33.05 74.97C33.05 74.97 33.05 74.97 33.04 74.97C33.04 74.97 33.03 74.97 33.03 74.96C32.41 74.49 31.76 74.05 31.09 73.66C30.4 73.27 29.7 72.91 28.98 72.61C28.26 72.31 27.53 72.06 26.78 71.85C26.01 71.64 25.23 71.49 24.44 71.38C24.46 71.38 24.48 71.38 24.5 71.39C23.86 71.31 23.22 71.26 22.58 71.26C22.12 71.26 21.67 71.29 21.21 71.34M19.44 71.81C19.44 71.81 19.44 71.81 19.43 71.81C19.43 71.81 19.43 71.81 19.44 71.81Z" fill="#FBB45E"/>
</g>
<defs>
<clipPath id="clip0_8_3331">
<rect width="50.45" height="84.34" fill="white"/>
</clipPath>
</defs>
</svg>
