<svg width="40" height="65" viewBox="0 0 40 65" fill="none" xmlns="http://www.w3.org/2000/svg">
<path fill-rule="evenodd" clip-rule="evenodd" d="M25.1242 30.5285C30.7288 28.4475 34.7223 23.0513 34.7223 16.7224C34.7223 8.59145 28.1309 2 19.9999 2C11.869 2 5.27752 8.59145 5.27752 16.7224C5.27752 23.0514 9.2711 28.4476 14.8758 30.5286L3 62.5255H37L25.1242 30.5285Z" fill="#FFBC0A"/>
<path d="M25.1242 30.5285L24.6021 29.1223L23.196 29.6444L23.7179 31.0505L25.1242 30.5285ZM14.8758 30.5286L16.282 31.0505L16.8039 29.6444L15.3979 29.1224L14.8758 30.5286ZM3 62.5255L1.59374 62.0035L0.843285 64.0255H3V62.5255ZM37 62.5255V64.0255H39.1567L38.4062 62.0035L37 62.5255ZM33.2223 16.7224C33.2223 22.4042 29.638 27.2525 24.6021 29.1223L25.6463 31.9347C31.8197 29.6426 36.2223 23.6985 36.2223 16.7224H33.2223ZM19.9999 3.5C27.3025 3.5 33.2223 9.41988 33.2223 16.7224H36.2223C36.2223 7.76302 28.9593 0.5 19.9999 0.5V3.5ZM6.77752 16.7224C6.77752 9.41988 12.6974 3.5 19.9999 3.5V0.5C11.0405 0.5 3.77752 7.76302 3.77752 16.7224H6.77752ZM15.3979 29.1224C10.3619 27.2526 6.77752 22.4042 6.77752 16.7224H3.77752C3.77752 23.6986 8.18025 29.6426 14.3537 31.9348L15.3979 29.1224ZM4.40626 63.0474L16.282 31.0505L13.4695 30.0066L1.59374 62.0035L4.40626 63.0474ZM37 61.0255H3V64.0255H37V61.0255ZM23.7179 31.0505L35.5937 63.0474L38.4062 62.0035L26.5304 30.0066L23.7179 31.0505Z" fill="#C19A31"/>
</svg>
