<svg width="114" height="117" viewBox="0 0 114 117" fill="none" xmlns="http://www.w3.org/2000/svg">
<g filter="url(#filter0_d_8_7198)">
<rect x="2" width="110" height="110" rx="20" fill="#FFF464"/>
<rect x="2.5" y="0.5" width="109" height="109" rx="19.5" stroke="#FEFAC5"/>
</g>
<path d="M64.9342 57.236C65.1742 57.236 65.2942 58.148 65.2942 59.972C65.2942 61.772 65.1742 62.672 64.9342 62.672L62.5582 62.708V67.244C62.5582 67.508 62.0662 67.7 61.0822 67.82C60.0982 67.94 59.2462 68 58.5262 68L57.0502 67.928C55.8262 67.832 55.2142 67.616 55.2142 67.28V62.816H48.0502C47.4262 62.192 46.8622 61.388 46.3582 60.404C45.8542 59.396 45.6022 58.676 45.6022 58.244C45.6022 57.788 45.6742 57.428 45.8182 57.164L53.7022 43.196C53.7982 43.004 54.5302 42.86 55.8982 42.764C57.2902 42.668 58.7422 42.62 60.2542 42.62C61.7662 42.62 62.5222 42.68 62.5222 42.8L62.5582 57.236H64.9342ZM56.2582 57.272V49.748L52.0462 57.272H56.2582Z" fill="#C3C1A6"/>
<path d="M64.9342 62.672V61.672H64.9266L64.919 61.6721L64.9342 62.672ZM62.5582 62.708L62.543 61.7081L61.5582 61.723V62.708H62.5582ZM58.5262 68L58.4775 68.9988L58.5018 69H58.5262V68ZM57.0502 67.928L56.972 68.9249L56.9867 68.9261L57.0015 68.9268L57.0502 67.928ZM55.2142 62.816H56.2142V61.816H55.2142V62.816ZM48.0502 62.816L47.3431 63.5231L47.636 63.816H48.0502V62.816ZM46.3582 60.404L45.4637 60.8512L45.4681 60.8599L46.3582 60.404ZM45.8182 57.164L44.9473 56.6725L44.9438 56.6788L44.9403 56.6851L45.8182 57.164ZM53.7022 43.196L54.573 43.6875L54.5854 43.6657L54.5966 43.6432L53.7022 43.196ZM55.8982 42.764L55.8294 41.7664L55.8282 41.7665L55.8982 42.764ZM62.5222 42.8H61.5222L61.5222 42.8025L62.5222 42.8ZM62.5582 57.236L61.5582 57.2385L61.5607 58.236H62.5582V57.236ZM56.2582 57.272V58.272H57.2582V57.272H56.2582ZM56.2582 49.748H57.2582V45.9145L55.3856 49.2595L56.2582 49.748ZM52.0462 57.272L51.1736 56.7835L50.3403 58.272H52.0462V57.272ZM64.9342 58.236C64.6088 58.236 64.3877 58.0699 64.283 57.9562C64.2335 57.9024 64.2035 57.855 64.1878 57.8275C64.1716 57.7991 64.1637 57.7796 64.1615 57.7742C64.1608 57.7723 64.1858 57.846 64.2127 58.0505C64.2639 58.4393 64.2942 59.07 64.2942 59.972H66.2942C66.2942 59.05 66.2645 58.3127 66.1956 57.7895C66.1625 57.538 66.1126 57.2697 66.0218 57.0398C65.9774 56.9271 65.898 56.7575 65.7541 56.6013C65.597 56.4306 65.3196 56.236 64.9342 56.236V58.236ZM64.2942 59.972C64.2942 60.8618 64.2639 61.4828 64.213 61.8648C64.1862 62.0659 64.1615 62.1362 64.1632 62.1319C64.1633 62.1316 64.1949 62.0467 64.2875 61.9475C64.3938 61.8336 64.6138 61.672 64.9342 61.672V63.672C65.3146 63.672 65.5908 63.4823 65.7496 63.3121C65.8947 63.1567 65.9751 62.9874 66.0202 62.8746C66.1119 62.6453 66.1622 62.3781 66.1954 62.1292C66.2645 61.6112 66.2942 60.8822 66.2942 59.972H64.2942ZM64.919 61.6721L62.543 61.7081L62.5733 63.7079L64.9493 63.6719L64.919 61.6721ZM61.5582 62.708V67.244H63.5582V62.708H61.5582ZM61.5582 67.244C61.5582 66.9605 61.7022 66.7729 61.7862 66.6951C61.8542 66.6321 61.8913 66.6288 61.8256 66.6544C61.6983 66.7041 61.4291 66.7703 60.9611 66.8274L61.2032 68.8126C61.7193 68.7497 62.188 68.6599 62.5527 68.5176C62.7331 68.4472 62.9547 68.3389 63.1457 68.1619C63.3527 67.9701 63.5582 67.6595 63.5582 67.244H61.5582ZM60.9611 66.8274C60.0035 66.9441 59.1939 67 58.5262 67V69C59.2985 69 60.1929 68.9359 61.2032 68.8126L60.9611 66.8274ZM58.5749 67.0012L57.0989 66.9292L57.0015 68.9268L58.4775 68.9988L58.5749 67.0012ZM57.1284 66.9311C56.5407 66.885 56.1865 66.8147 56.006 66.751C55.9139 66.7185 55.9372 66.7115 55.9987 66.7669C56.081 66.8411 56.2142 67.0183 56.2142 67.28H54.2142C54.2142 67.7097 54.4239 68.0399 54.6592 68.2521C54.8737 68.4455 55.1265 68.5615 55.3404 68.637C55.7719 68.7893 56.3357 68.875 56.972 68.9249L57.1284 66.9311ZM56.2142 67.28V62.816H54.2142V67.28H56.2142ZM55.2142 61.816H48.0502V63.816H55.2142V61.816ZM48.7573 62.1089C48.2229 61.5745 47.7162 60.8618 47.2482 59.9481L45.4681 60.8599C46.0082 61.9142 46.6295 62.8095 47.3431 63.5231L48.7573 62.1089ZM47.2526 59.9568C47.0115 59.4746 46.8422 59.0837 46.735 58.7776C46.6223 58.4555 46.6022 58.2927 46.6022 58.244H44.6022C44.6022 58.6273 44.7081 59.0405 44.8473 59.4383C44.9922 59.8523 45.2008 60.3254 45.4638 60.8512L47.2526 59.9568ZM46.6022 58.244C46.6022 57.876 46.6631 57.7033 46.6961 57.6429L44.9403 56.6851C44.6853 57.1527 44.6022 57.7 44.6022 58.244H46.6022ZM46.689 57.6555L54.573 43.6875L52.8313 42.7045L44.9473 56.6725L46.689 57.6555ZM54.5966 43.6432C54.5089 43.8186 54.3906 43.9108 54.3447 43.9432C54.2937 43.9792 54.2609 43.9911 54.2695 43.9876C54.2877 43.9802 54.3602 43.9559 54.5162 43.9252C54.8211 43.8652 55.2974 43.8086 55.9682 43.7615L55.8282 41.7665C55.131 41.8154 54.5573 41.8788 54.1302 41.9628C53.9201 42.0041 53.7062 42.0578 53.5174 42.1344C53.3922 42.1852 53.0096 42.3452 52.8078 42.7488L54.5966 43.6432ZM55.967 43.7616C57.3343 43.6673 58.7633 43.62 60.2542 43.62V41.62C58.7211 41.62 57.2461 41.6687 55.8294 41.7664L55.967 43.7616ZM60.2542 43.62C61.0042 43.62 61.539 43.6351 61.8761 43.6619C61.9584 43.6684 62.023 43.6752 62.0721 43.6817C62.0964 43.6849 62.115 43.6878 62.1287 43.6902C62.1427 43.6926 62.1489 43.6941 62.1488 43.6941C62.1486 43.694 62.1459 43.6933 62.141 43.692C62.1361 43.6906 62.128 43.6882 62.1172 43.6845C62.099 43.6782 62.0559 43.6624 62.0011 43.632C61.9637 43.6112 61.5222 43.3685 61.5222 42.8H63.5222C63.5222 42.2015 63.057 41.9307 62.9724 41.8837C62.8295 41.8043 62.6895 41.7669 62.6121 41.7484C62.4402 41.7075 62.236 41.6841 62.0343 41.6681C61.6154 41.6349 61.0161 41.62 60.2542 41.62V43.62ZM61.5222 42.8025L61.5582 57.2385L63.5582 57.2335L63.5222 42.7975L61.5222 42.8025ZM62.5582 58.236H64.9342V56.236H62.5582V58.236ZM57.2582 57.272V49.748H55.2582V57.272H57.2582ZM55.3856 49.2595L51.1736 56.7835L52.9188 57.7605L57.1308 50.2365L55.3856 49.2595ZM52.0462 58.272H56.2582V56.272H52.0462V58.272Z" fill="#F5F5EC"/>
<g clip-path="url(#clip0_8_7198)">
<path d="M58.5125 74.5191C58.5125 74.5191 57.1202 82.2071 59.7658 85.6957L64.8675 85.9981L59.432 86.8359L55.2742 89L57.779 85.9703C57.779 85.9703 54.857 80.4967 56.6821 74.7451L58.5108 74.5173L58.5125 74.5191Z" fill="#EC7A15"/>
<path d="M53.5776 73.6465C53.5776 73.6465 52.0079 79.6641 45.7938 80.2256C45.7938 80.2256 46.4247 82.7912 44.989 84.2756C44.989 84.2756 45.5765 80.6375 43.2368 77.5714C43.2368 77.5714 44.1807 77.2759 45.2028 78.3379C45.2028 78.3379 50.8746 78.8072 52.3764 70.9123L53.5776 73.6448V73.6465Z" fill="#EC7A15"/>
<path d="M17.3789 44.052C17.3789 44.052 15.745 39.3832 19.2631 37.937C19.2631 37.937 30.5686 35.0672 34.1215 46.0526C34.1215 46.0526 22.1695 52.7395 17.3789 44.052Z" fill="#529453"/>
<path d="M18.1525 45.2305C17.8796 44.8707 17.6188 44.4848 17.3789 44.052C17.3789 44.052 17.0782 43.1881 17.0139 42.0913C20.6173 42.0009 28.4567 42.2112 33.8469 45.2878C33.8765 45.366 33.9043 45.4495 33.9339 45.5312C31.8202 45.1297 23.1221 43.6383 18.1525 45.2322V45.2305Z" fill="#91AB44"/>
<path d="M25.6042 32.7745C24.6169 29.5085 24.4361 26.1729 25.9136 23.6594C30.1149 16.5102 36.3621 25.5436 37.3216 30.0995C38.4341 35.3766 37.3164 41.6811 34.1198 46.0544C34.2849 45.6146 31.2778 42.8213 30.9423 42.4441C28.9607 40.2279 26.7428 36.5482 25.6025 32.7745H25.6042Z" fill="#60AD62"/>
<path d="M25.3835 24.8032C25.5313 24.4086 25.6999 24.0227 25.9137 23.6594C26.7567 22.2254 27.6832 21.4502 28.6306 21.1512C30.7321 22.9955 32.2496 26.4666 33.0022 28.4012C34.1529 31.3631 34.7161 34.5319 34.8204 37.7023C34.9073 40.3687 34.8239 43.0091 34.4137 45.625C34.3163 45.7676 34.2225 45.9153 34.1216 46.0544C34.1599 45.9553 34.0278 45.7293 33.807 45.4425C33.6923 38.9347 32.6042 32.4269 28.1195 27.3027C27.2765 26.3676 26.2787 25.6636 25.3835 24.8032Z" fill="#C2CC5A"/>
<path d="M88.5333 46.3029C88.5333 46.3029 91.1389 46.3516 93.5342 40.7668C93.5342 40.7668 99.1591 46.6036 90.1273 50.2938L97.3636 50.7927C97.3636 50.7927 95.0952 57.8915 87.7998 52.2319L88.5351 46.3047L88.5333 46.3029Z" fill="#EC7A15"/>
<path d="M69.5485 22.9537C71.4119 23.1832 73.2092 23.6316 74.8779 24.3304C83.9115 28.1144 88.9645 36.8124 90.2056 46.1256C90.2056 46.1343 92.7643 65.3553 72.0602 74.7694C68.6064 76.339 64.1704 76.7231 60.4506 76.6397C56.8003 76.5597 53.1605 75.8088 49.8509 74.2427C44.1964 71.5659 39.6005 66.9527 36.4056 61.5991C34.763 58.8492 33.5689 55.8074 33.0248 52.6456C32.7554 51.0812 32.6424 49.489 32.7206 47.9038C32.7814 46.6697 32.8909 44.8446 34.3458 44.7507C35.4392 44.6795 36.3813 46.0648 37.4973 46.1865C40.1602 46.4768 40.5652 44.0867 41.2518 42.06C42.9397 37.0731 45.8634 32.5955 49.9569 29.2477C55.0586 25.0761 62.8946 22.135 69.5502 22.9537H69.5485Z" fill="#3A6D3C"/>
<path d="M58.2135 50.0505C56.3241 44.0328 57.2714 37.5233 62.7938 33.9791C64.5338 32.8632 66.4875 31.9107 68.483 31.3405C75.6845 29.2756 82.1681 32.0428 86.5641 34.9699C88.4657 38.3628 89.6807 42.1869 90.2057 46.1274C90.2057 46.1361 92.0621 60.1703 79.6842 70.1284C75.2221 69.4644 70.9861 67.7349 67.4783 64.7817C62.9641 60.9803 59.9674 55.6318 58.217 50.054L58.2135 50.0505Z" fill="#FDDE00"/>
<path d="M77.3861 46.9165C77.5321 46.8713 77.6503 46.7496 77.685 46.588C77.9093 45.5433 78.104 44.1823 77.6155 42.9308C77.1618 41.7645 75.9051 40.6538 74.4676 40.8971C73.5237 41.0571 72.6668 41.8166 72.2374 42.8804C71.8724 43.786 71.8289 44.7751 71.7907 45.6494C71.7803 45.8927 71.968 46.0978 72.2114 46.1082C72.4547 46.1187 72.6598 45.931 72.6702 45.6876C72.7067 44.8446 72.745 43.9737 73.0544 43.2089C73.3012 42.5971 73.8418 41.8949 74.6153 41.7645C75.5574 41.6046 76.4631 42.3937 76.7968 43.2489C77.2001 44.2831 77.0245 45.479 76.8264 46.4037C76.7759 46.6419 76.9272 46.8748 77.1636 46.9252C77.2401 46.9408 77.3165 46.9374 77.3861 46.9148V46.9165Z" fill="#1D1D1B"/>
<path d="M80.595 55.0721C80.6801 54.801 80.7201 54.4968 80.7114 54.1526C80.6315 51.2776 76.199 50.9769 74.1427 51.2742C70.6818 51.7713 70.2681 55.2147 73.4995 56.4557C75.455 57.2066 79.7606 57.735 80.595 55.0721Z" fill="#F5B700"/>
<path d="M47.5843 59.4628C45.6566 59.1969 43.1361 57.0276 42.4026 59.4176C41.5995 62.0319 43.8088 64.773 45.9555 65.8437C47.9024 66.8154 50.3411 67.6045 52.5313 67.236C54.7562 66.8623 56.7639 65.6577 57.1654 63.2886C57.4348 61.6999 56.8925 60.0903 56.2493 58.6128C55.4863 56.8607 54.0974 55.4111 53.3708 53.6659C52.759 52.2006 52.6251 50.4624 52.2792 48.8841C52.208 48.5608 52.135 48.2323 51.9698 47.9438C50.129 44.7403 47.3131 49.5412 46.5691 51.1473C45.8599 52.6786 44.6171 59.0526 47.5825 59.4611L47.5843 59.4628Z" fill="#60AD62"/>
<path d="M65.8184 29.4077C65.8549 29.3955 65.8931 29.3798 65.9279 29.359C66.1608 29.2182 66.2355 28.914 66.0947 28.6794C65.9035 28.3647 65.9035 27.9371 66.0947 27.5374C66.2842 27.1376 66.618 26.8716 66.9812 26.816C67.2524 26.7812 67.4401 26.5292 67.4019 26.258C67.3637 25.9869 67.1133 25.7992 66.8439 25.8374C66.1452 25.9382 65.5333 26.4127 65.2013 27.1132C64.8676 27.8137 64.8867 28.5924 65.25 29.1921C65.3699 29.3903 65.608 29.4737 65.8201 29.4077H65.8184Z" fill="#164D31"/>
<path d="M58.3924 33.8192C58.641 33.741 58.7888 33.4803 58.7227 33.2247C58.5697 32.6303 58.4324 31.9367 58.5836 31.2936C58.6984 30.7982 59.053 30.242 59.604 30.1273C59.8786 30.0682 60.0403 29.8057 59.9812 29.5398C59.9221 29.2738 59.6596 29.1035 59.3937 29.1626C58.5454 29.3486 57.8484 30.096 57.6207 31.0711C57.4225 31.9263 57.5946 32.8041 57.7649 33.4716C57.8327 33.7358 58.1022 33.8957 58.3664 33.8279C58.3751 33.8262 58.3837 33.8227 58.3907 33.8209L58.3924 33.8192Z" fill="#164D31"/>
<path d="M51.1806 35.872C51.2084 35.8633 51.2379 35.8512 51.2657 35.8355C51.5074 35.7069 51.5977 35.4079 51.4691 35.1663C51.0919 34.4571 51.0711 33.5637 51.417 32.8389C51.7629 32.1123 52.4651 31.563 53.256 31.4083C53.5324 31.3527 53.6975 31.0954 53.6454 30.8278C53.5932 30.5601 53.3325 30.3863 53.0648 30.4384C51.9749 30.6522 51.0015 31.4101 50.5253 32.4147C50.049 33.4177 50.0751 34.6518 50.5983 35.6321C50.7112 35.8459 50.9598 35.9415 51.1823 35.872H51.1806Z" fill="#164D31"/>
<path d="M55.0603 40.7251C55.3071 40.6486 55.4549 40.3913 55.3923 40.1375C55.2202 39.4284 55.3193 38.6514 55.6617 38.0065C55.6687 37.9926 55.6808 37.977 55.693 37.9631C55.8407 38.0309 56.018 38.0256 56.1641 37.93C56.3952 37.784 56.4613 37.4781 56.3153 37.2469C56.1745 37.0279 55.9468 36.9062 55.686 36.9184C55.2915 36.934 54.9403 37.2539 54.7874 37.5442C54.3337 38.3993 54.2033 39.4284 54.431 40.3705C54.4954 40.6364 54.763 40.7998 55.0273 40.7355C55.0377 40.732 55.0481 40.7303 55.0585 40.7268L55.0603 40.7251Z" fill="#164D31"/>
<path d="M49.1104 45.2079C49.1956 45.1818 49.2721 45.1314 49.3347 45.0619C49.5137 44.8568 49.4928 44.5439 49.286 44.3648C48.323 43.5253 47.9875 42.0131 48.5055 40.845C48.6168 40.5947 48.5055 40.3027 48.2535 40.1932C48.0049 40.0819 47.7111 40.1949 47.6016 40.4452C46.9029 42.0183 47.3392 43.9807 48.6359 45.1123C48.7715 45.2287 48.9505 45.26 49.1087 45.2113L49.1104 45.2079Z" fill="#164D31"/>
<path d="M45.6791 40.0193C45.726 40.0054 45.7695 39.9846 45.8112 39.955C46.0371 39.8003 46.0928 39.4927 45.9398 39.2667C45.5157 38.6514 45.6234 37.7023 46.1727 37.1965C46.3726 37.0105 46.3848 36.6977 46.2005 36.4978C46.0163 36.2979 45.7034 36.2822 45.5018 36.47C44.5961 37.306 44.4275 38.8113 45.1246 39.8264C45.2515 40.0107 45.4774 40.0819 45.6791 40.0176V40.0193Z" fill="#164D31"/>
<path d="M41.7473 53.3583C41.9698 53.2887 42.1193 53.068 42.0898 52.8281C42.0255 52.2789 41.9577 51.7122 42.0706 51.1994C42.1558 50.8136 42.3957 50.3477 42.8163 50.1913C43.0719 50.0974 43.2022 49.8124 43.1084 49.5551C43.0128 49.2978 42.7347 49.1571 42.4722 49.2631C41.796 49.5134 41.285 50.1583 41.1042 50.9856C40.9564 51.6601 41.0364 52.3397 41.1077 52.9411C41.139 53.2123 41.3858 53.4069 41.6569 53.3739C41.6882 53.3704 41.7178 53.3635 41.7473 53.3548V53.3583Z" fill="#164D31"/>
<path d="M35.978 53.7685C36.0076 53.7598 36.0354 53.7476 36.0632 53.732C36.3048 53.6034 36.3952 53.3044 36.2666 53.0628C35.7607 52.1155 35.905 50.8396 36.6073 50.0279C36.7863 49.821 36.7637 49.5099 36.5569 49.3309C36.35 49.1518 36.0389 49.1744 35.8598 49.3813C34.8847 50.5076 34.6935 52.2128 35.3957 53.5286C35.5087 53.7424 35.7573 53.838 35.9798 53.7685H35.978Z" fill="#164D31"/>
<path d="M61.9871 61.8337C62.1436 61.7851 62.2704 61.6599 62.3174 61.4913C62.3886 61.2271 62.2322 60.9559 61.968 60.8847C60.6869 60.5388 59.6388 59.3846 59.418 58.0775C59.3728 57.8081 59.1173 57.6273 58.8479 57.6725C58.5819 57.7177 58.3977 57.9732 58.4429 58.2426C58.7314 59.9443 60.0438 61.3887 61.7107 61.8389C61.8046 61.865 61.9002 61.8598 61.9871 61.8337Z" fill="#164D31"/>
<path d="M67.2958 71.2113C67.5166 71.1418 67.6661 70.9245 67.6383 70.6846C67.6087 70.4135 67.3636 70.2188 67.0925 70.2483C65.2917 70.45 63.4578 69.0559 63.171 67.2673C63.1276 66.9979 62.8738 66.8137 62.6043 66.8571C62.3367 66.8954 62.1524 67.1543 62.1941 67.4238C62.5609 69.7095 64.9006 71.4877 67.202 71.2304C67.235 71.2269 67.2645 71.22 67.2958 71.2113Z" fill="#164D31"/>
<path d="M57.9841 72.9773C58.045 72.9582 58.1023 72.9269 58.1545 72.8834C58.3631 72.7079 58.3909 72.3967 58.2153 72.1864C57.4939 71.326 57.3305 70.0189 57.8172 69.0073C57.9354 68.7604 57.8329 68.4649 57.5861 68.3467C57.3392 68.2303 57.0455 68.3328 56.9255 68.5779C56.265 69.9494 56.4771 71.6545 57.4574 72.8209C57.5895 72.979 57.7981 73.0329 57.9841 72.9756V72.9773Z" fill="#164D31"/>
<path d="M49.5188 71.1209C49.7343 71.0531 49.8821 70.8445 49.863 70.6099C49.8299 70.1771 49.976 69.7217 50.2558 69.3897C50.4331 69.1811 50.407 68.8682 50.1984 68.6926C49.9899 68.5154 49.677 68.5414 49.5014 68.75C49.0495 69.2836 48.8218 69.9893 48.8774 70.6864C48.8982 70.9593 49.1364 71.1609 49.4093 71.14C49.4475 71.1366 49.484 71.1296 49.5188 71.1192V71.1209Z" fill="#164D31"/>
</g>
<defs>
<filter id="filter0_d_8_7198" x="0" y="0" width="114" height="117" filterUnits="userSpaceOnUse" color-interpolation-filters="sRGB">
<feFlood flood-opacity="0" result="BackgroundImageFix"/>
<feColorMatrix in="SourceAlpha" type="matrix" values="0 0 0 0 0 0 0 0 0 0 0 0 0 0 0 0 0 0 127 0" result="hardAlpha"/>
<feMorphology radius="2" operator="dilate" in="SourceAlpha" result="effect1_dropShadow_8_7198"/>
<feOffset dy="5"/>
<feComposite in2="hardAlpha" operator="out"/>
<feColorMatrix type="matrix" values="0 0 0 0 0.992157 0 0 0 0 0.870588 0 0 0 0 0 0 0 0 1 0"/>
<feBlend mode="normal" in2="BackgroundImageFix" result="effect1_dropShadow_8_7198"/>
<feBlend mode="normal" in="SourceGraphic" in2="effect1_dropShadow_8_7198" result="shape"/>
</filter>
<clipPath id="clip0_8_7198">
<rect width="80.3636" height="68" fill="white" transform="translate(17 21)"/>
</clipPath>
</defs>
</svg>
