<svg width="81" height="68" viewBox="0 0 81 68" fill="none" xmlns="http://www.w3.org/2000/svg">
<g clip-path="url(#clip0_8_626)">
<path d="M41.5125 53.5191C41.5125 53.5191 40.1202 61.2071 42.7658 64.6957L47.8675 64.9981L42.432 65.8359L38.2742 68L40.779 64.9703C40.779 64.9703 37.857 59.4967 39.6821 53.7451L41.5108 53.5173L41.5125 53.5191Z" fill="#EC7A15"/>
<path d="M36.5776 52.6465C36.5776 52.6465 35.0079 58.6641 28.7938 59.2256C28.7938 59.2256 29.4247 61.7912 27.989 63.2756C27.989 63.2756 28.5765 59.6375 26.2368 56.5714C26.2368 56.5714 27.1807 56.2759 28.2028 57.3379C28.2028 57.3379 33.8746 57.8072 35.3764 49.9123L36.5776 52.6448V52.6465Z" fill="#EC7A15"/>
<path d="M0.378906 23.052C0.378906 23.052 -1.25503 18.3832 2.26315 16.937C2.26315 16.937 13.5686 14.0672 17.1215 25.0526C17.1215 25.0526 5.16947 31.7395 0.378906 23.052Z" fill="#529453"/>
<path d="M1.15246 24.2305C0.879555 23.8707 0.618821 23.4848 0.378945 23.052C0.378945 23.052 0.0782306 22.1881 0.013916 21.0913C3.61727 21.0009 11.4567 21.2112 16.8469 24.2878C16.8765 24.366 16.9043 24.4495 16.9339 24.5312C14.8202 24.1297 6.12206 22.6383 1.15246 24.2322V24.2305Z" fill="#91AB44"/>
<path d="M8.60422 11.7745C7.6169 8.50847 7.43613 5.17287 8.91362 2.65944C13.1149 -4.48976 19.3621 4.54365 20.3216 9.09946C21.4341 14.3766 20.3164 20.6811 17.1198 25.0544C17.2849 24.6146 14.2778 21.8213 13.9423 21.4441C11.9607 19.2279 9.74276 15.5482 8.60248 11.7745H8.60422Z" fill="#60AD62"/>
<path d="M8.38354 3.80318C8.53129 3.40861 8.6999 3.02273 8.91371 2.65945C9.75675 1.22544 10.6832 0.4502 11.6306 0.15123C13.7321 1.99546 15.2496 5.46664 16.0022 7.40125C17.1529 10.3631 17.7161 13.5319 17.8204 16.7023C17.9073 19.3687 17.8239 22.0091 17.4137 24.625C17.3163 24.7676 17.2225 24.9153 17.1216 25.0544C17.1599 24.9553 17.0278 24.7293 16.807 24.4425C16.6923 17.9347 15.6042 11.4269 11.1195 6.30271C10.2765 5.36756 9.27873 4.66359 8.38354 3.80318Z" fill="#C2CC5A"/>
<path d="M71.5335 25.3029C71.5335 25.3029 74.1391 25.3516 76.5343 19.7668C76.5343 19.7668 82.1593 25.6036 73.1274 29.2938L80.3637 29.7927C80.3637 29.7927 78.0953 36.8915 70.7999 31.2319L71.5352 25.3047L71.5335 25.3029Z" fill="#EC7A15"/>
<path d="M52.5485 1.95374C54.4119 2.18318 56.2092 2.63163 57.8779 3.33039C66.9115 7.11444 71.9645 15.8124 73.2056 25.1256C73.2056 25.1343 75.7643 44.3553 55.0602 53.7694C51.6064 55.339 47.1704 55.7231 43.4506 55.6397C39.8003 55.5597 36.1605 54.8088 32.8509 53.2427C27.1964 50.5659 22.6005 45.9527 19.4056 40.5991C17.763 37.8492 16.5689 34.8074 16.0248 31.6456C15.7554 30.0812 15.6424 28.489 15.7206 26.9038C15.7814 25.6697 15.8909 23.8446 17.3458 23.7507C18.4392 23.6795 19.3813 25.0648 20.4973 25.1865C23.1602 25.4768 23.5652 23.0867 24.2518 21.06C25.9397 16.0731 28.8634 11.5955 32.9569 8.24775C38.0586 4.07607 45.8946 1.13505 52.5502 1.95374H52.5485Z" fill="#3A6D3C"/>
<path d="M41.2134 29.0505C39.324 23.0328 40.2713 16.5233 45.7937 12.9791C47.5336 11.8632 49.4874 10.9107 51.4829 10.3405C58.6844 8.27555 65.168 11.0428 69.564 13.9699C71.4656 17.3628 72.6806 21.1869 73.2056 25.1274C73.2056 25.1361 75.062 39.1703 62.6841 49.1284C58.222 48.4644 53.9859 46.7349 50.4782 43.7817C45.964 39.9803 42.9673 34.6318 41.2169 29.054L41.2134 29.0505Z" fill="#FDDE00"/>
<path d="M60.3862 25.9165C60.5322 25.8713 60.6504 25.7496 60.6852 25.588C60.9094 24.5433 61.1041 23.1823 60.6156 21.9308C60.162 20.7645 58.9052 19.6538 57.4677 19.8971C56.5238 20.0571 55.6669 20.8166 55.2375 21.8804C54.8725 22.786 54.8291 23.7751 54.7908 24.6494C54.7804 24.8927 54.9681 25.0978 55.2115 25.1082C55.4548 25.1187 55.6599 24.931 55.6704 24.6876C55.7069 23.8446 55.7451 22.9737 56.0545 22.2089C56.3013 21.5971 56.8419 20.8949 57.6154 20.7645C58.5576 20.6046 59.4632 21.3937 59.7969 22.2489C60.2002 23.2831 60.0246 24.479 59.8265 25.4037C59.7761 25.6419 59.9273 25.8748 60.1637 25.9252C60.2402 25.9408 60.3167 25.9374 60.3862 25.9148V25.9165Z" fill="#1D1D1B"/>
<path d="M63.595 34.0721C63.6801 33.801 63.7201 33.4968 63.7114 33.1526C63.6315 30.2776 59.199 29.9769 57.1427 30.2742C53.6818 30.7713 53.2681 34.2147 56.4995 35.4557C58.455 36.2066 62.7606 36.735 63.595 34.0721Z" fill="#F5B700"/>
<path d="M30.5841 38.4628C28.6564 38.1969 26.136 36.0276 25.4025 38.4176C24.5994 41.0319 26.8087 43.773 28.9554 44.8437C30.9022 45.8154 33.341 46.6045 35.5312 46.236C37.7561 45.8623 39.7637 44.6577 40.1653 42.2886C40.4347 40.6999 39.8924 39.0903 39.2492 37.6128C38.4861 35.8607 37.0973 34.4111 36.3707 32.6659C35.7589 31.2006 35.625 29.4624 35.2791 27.8841C35.2078 27.5608 35.1348 27.2323 34.9697 26.9438C33.1289 23.7403 30.313 28.5412 29.569 30.1473C28.8598 31.6786 27.617 38.0526 30.5824 38.4611L30.5841 38.4628Z" fill="#60AD62"/>
<path d="M48.8182 8.40766C48.8547 8.39549 48.893 8.37985 48.9278 8.35899C49.1607 8.21819 49.2354 7.91401 49.0946 7.67935C48.9034 7.36474 48.9034 6.93714 49.0946 6.53736C49.2841 6.13757 49.6178 5.87163 49.9811 5.81601C50.2523 5.78124 50.44 5.5292 50.4018 5.25805C50.3635 4.98689 50.1132 4.79916 49.8438 4.8374C49.145 4.93822 48.5332 5.41274 48.2012 6.11324C47.8674 6.81373 47.8866 7.59244 48.2498 8.19212C48.3698 8.39028 48.6079 8.47371 48.82 8.40766H48.8182Z" fill="#164D31"/>
<path d="M41.3926 12.8192C41.6411 12.741 41.7889 12.4803 41.7228 12.2247C41.5699 11.6303 41.4325 10.9367 41.5838 10.2936C41.6985 9.79821 42.0531 9.24199 42.6041 9.12727C42.8788 9.06817 43.0404 8.8057 42.9813 8.53976C42.9222 8.27381 42.6597 8.10347 42.3938 8.16257C41.5455 8.34856 40.8485 9.09598 40.6208 10.0711C40.4226 10.9263 40.5947 11.8041 40.7651 12.4716C40.8329 12.7358 41.1023 12.8957 41.3665 12.8279C41.3752 12.8262 41.3839 12.8227 41.3908 12.8209L41.3926 12.8192Z" fill="#164D31"/>
<path d="M34.1806 14.872C34.2084 14.8633 34.2379 14.8512 34.2657 14.8355C34.5074 14.7069 34.5977 14.4079 34.4691 14.1663C34.0919 13.4571 34.0711 12.5637 34.417 11.8389C34.7629 11.1123 35.4651 10.563 36.256 10.4083C36.5324 10.3527 36.6975 10.0954 36.6454 9.82776C36.5932 9.56008 36.3325 9.38626 36.0648 9.43841C34.9749 9.65221 34.0015 10.4101 33.5253 11.4147C33.049 12.4177 33.0751 13.6518 33.5983 14.6321C33.7112 14.8459 33.9598 14.9415 34.1823 14.872H34.1806Z" fill="#164D31"/>
<path d="M38.0603 19.7251C38.3071 19.6486 38.4549 19.3913 38.3923 19.1375C38.2202 18.4284 38.3193 17.6514 38.6617 17.0065C38.6687 16.9926 38.6808 16.977 38.693 16.9631C38.8407 17.0309 39.018 17.0256 39.1641 16.93C39.3952 16.784 39.4613 16.4781 39.3153 16.2469C39.1745 16.0279 38.9468 15.9062 38.686 15.9184C38.2915 15.934 37.9403 16.2539 37.7874 16.5442C37.3337 17.3993 37.2033 18.4284 37.431 19.3705C37.4954 19.6364 37.763 19.7998 38.0273 19.7355C38.0377 19.732 38.0481 19.7303 38.0585 19.7268L38.0603 19.7251Z" fill="#164D31"/>
<path d="M32.1104 24.2079C32.1956 24.1818 32.2721 24.1314 32.3347 24.0619C32.5137 23.8568 32.4928 23.5439 32.286 23.3648C31.323 22.5253 30.9875 21.0131 31.5055 19.845C31.6168 19.5947 31.5055 19.3027 31.2535 19.1932C31.0049 19.0819 30.7111 19.1949 30.6016 19.4452C29.9029 21.0183 30.3392 22.9807 31.6359 24.1123C31.7715 24.2287 31.9505 24.26 32.1087 24.2113L32.1104 24.2079Z" fill="#164D31"/>
<path d="M28.6791 19.0193C28.726 19.0054 28.7695 18.9846 28.8112 18.955C29.0371 18.8003 29.0928 18.4927 28.9398 18.2667C28.5157 17.6514 28.6234 16.7023 29.1727 16.1965C29.3726 16.0105 29.3848 15.6977 29.2005 15.4978C29.0163 15.2979 28.7034 15.2822 28.5018 15.47C27.5961 16.306 27.4275 17.8113 28.1246 18.8264C28.2515 19.0107 28.4774 19.0819 28.6791 19.0176V19.0193Z" fill="#164D31"/>
<path d="M24.7472 32.3583C24.9697 32.2887 25.1192 32.068 25.0896 31.8281C25.0253 31.2789 24.9575 30.7122 25.0705 30.1994C25.1557 29.8136 25.3956 29.3477 25.8162 29.1913C26.0717 29.0974 26.2021 28.8124 26.1082 28.5551C26.0126 28.2978 25.7345 28.1571 25.4721 28.2631C24.7959 28.5134 24.2848 29.1583 24.1041 29.9856C23.9563 30.6601 24.0363 31.3397 24.1075 31.9411C24.1388 32.2123 24.3857 32.4069 24.6568 32.3739C24.6881 32.3704 24.7177 32.3635 24.7472 32.3548V32.3583Z" fill="#164D31"/>
<path d="M18.978 32.7685C19.0076 32.7598 19.0354 32.7476 19.0632 32.732C19.3048 32.6034 19.3952 32.3044 19.2666 32.0628C18.7607 31.1155 18.905 29.8396 19.6073 29.0279C19.7863 28.821 19.7637 28.5099 19.5569 28.3309C19.35 28.1518 19.0389 28.1744 18.8598 28.3813C17.8847 29.5076 17.6935 31.2128 18.3957 32.5286C18.5087 32.7424 18.7573 32.838 18.9798 32.7685H18.978Z" fill="#164D31"/>
<path d="M44.9872 40.8337C45.1437 40.7851 45.2706 40.6599 45.3175 40.4913C45.3888 40.2271 45.2323 39.9559 44.9681 39.8847C43.687 39.5388 42.6389 38.3846 42.4181 37.0775C42.3729 36.8081 42.1174 36.6273 41.848 36.6725C41.582 36.7177 41.3978 36.9732 41.443 37.2426C41.7315 38.9443 43.0439 40.3887 44.7109 40.8389C44.8047 40.865 44.9003 40.8598 44.9872 40.8337Z" fill="#164D31"/>
<path d="M50.2957 50.2113C50.5165 50.1418 50.666 49.9245 50.6381 49.6846C50.6086 49.4135 50.3635 49.2188 50.0923 49.2483C48.2915 49.45 46.4577 48.0559 46.1709 46.2673C46.1274 45.9979 45.8736 45.8137 45.6042 45.8571C45.3365 45.8954 45.1523 46.1543 45.194 46.4238C45.5608 48.7095 47.9004 50.4877 50.2018 50.2304C50.2349 50.2269 50.2644 50.22 50.2957 50.2113Z" fill="#164D31"/>
<path d="M40.984 51.9773C41.0448 51.9582 41.1022 51.9269 41.1543 51.8834C41.3629 51.7079 41.3907 51.3967 41.2152 51.1864C40.4938 50.326 40.3304 49.0189 40.8171 48.0073C40.9353 47.7604 40.8328 47.4649 40.5859 47.3467C40.3391 47.2303 40.0454 47.3328 39.9254 47.5779C39.2649 48.9494 39.4769 50.6545 40.4573 51.8209C40.5894 51.979 40.798 52.0329 40.984 51.9756V51.9773Z" fill="#164D31"/>
<path d="M32.5188 50.1209C32.7343 50.0531 32.8821 49.8445 32.863 49.6099C32.8299 49.1771 32.976 48.7217 33.2558 48.3897C33.4331 48.1811 33.407 47.8682 33.1984 47.6926C32.9899 47.5154 32.677 47.5414 32.5014 47.75C32.0495 48.2836 31.8218 48.9893 31.8774 49.6864C31.8982 49.9593 32.1364 50.1609 32.4093 50.14C32.4475 50.1366 32.484 50.1296 32.5188 50.1192V50.1209Z" fill="#164D31"/>
</g>
<defs>
<clipPath id="clip0_8_626">
<rect width="80.3636" height="68" fill="white"/>
</clipPath>
</defs>
</svg>
