<svg width="42" height="42" viewBox="0 0 42 42" fill="none" xmlns="http://www.w3.org/2000/svg">
<path d="M21 29.3333L29.3333 21L26.4166 18.0833L23.0833 21.4167V12.6667H18.9166V21.4167L15.5833 18.0833L12.6666 21L21 29.3333ZM21 41.8333C18.118 41.8333 15.4097 41.2861 12.875 40.1917C10.3402 39.0972 8.13538 37.6132 6.26038 35.7396C4.38538 33.8646 2.90135 31.6597 1.80829 29.125C0.715237 26.5903 0.168015 23.8819 0.166626 21C0.166626 18.118 0.713848 15.4097 1.80829 12.875C2.90274 10.3403 4.38677 8.13541 6.26038 6.26041C8.13538 4.38541 10.3402 2.90138 12.875 1.80832C15.4097 0.715268 18.118 0.168045 21 0.166656C23.8819 0.166656 26.5902 0.713879 29.125 1.80832C31.6597 2.90277 33.8645 4.3868 35.7395 6.26041C37.6145 8.13541 39.0993 10.3403 40.1937 12.875C41.2882 15.4097 41.8347 18.118 41.8333 21C41.8333 23.8819 41.2861 26.5903 40.1916 29.125C39.0972 31.6597 37.6132 33.8646 35.7395 35.7396C33.8645 37.6146 31.6597 39.0993 29.125 40.1937C26.5902 41.2882 23.8819 41.8347 21 41.8333Z" fill="#3061C1"/>
</svg>
