<svg width="46" height="46" viewBox="0 0 46 46" fill="none" xmlns="http://www.w3.org/2000/svg">
<path d="M37.3648 4.875V0H8.125V4.875H0V8.73438C0 11.9844 0.964844 15.1115 2.71781 17.5307C4.07164 19.3995 6.1882 20.6893 8.09148 21.3098C8.64398 24.2846 10.143 27.1121 13.1889 29.4176C15.4233 31.1096 18.1096 32.3497 20.5156 32.8565V41.0312H13V45.5H32.5V41.0312H24.9844V32.8565C27.3904 32.3487 30.0757 31.1096 32.3111 29.4176C35.358 27.1121 36.856 24.2846 37.4085 21.3098C39.3118 20.6893 41.4284 19.3995 42.7822 17.5307C44.5352 15.1115 45.5 11.9844 45.5 8.73438V4.875H37.3648ZM6.3375 14.9094C5.25281 13.4184 4.59367 11.4156 4.485 9.34375H8.125V16.186C7.72484 16.0702 6.81281 15.5645 6.3375 14.9094ZM39.1625 14.9094C38.6953 15.5807 37.9844 16.187 37.375 16.187C37.375 13.912 37.375 11.4857 37.3699 9.34375H41.016C40.9063 11.4156 40.2188 13.3961 39.1625 14.9094Z" fill="#34AF65"/>
</svg>
